<svg width="45" height="31" viewBox="0 0 45 31" fill="none" xmlns="http://www.w3.org/2000/svg">
<path d="M1.95652 0H11.7391V3.875H1.95652V0Z" fill="white"/>
<path d="M0 1.9375H3.91304V31H0V1.9375Z" fill="white"/>
<path d="M9.78261 1.9375H13.6957V31H9.78261V1.9375Z" fill="white"/>
<path d="M0 13.5625H13.6957V17.4375H0V13.5625Z" fill="white"/>
<path d="M15.6522 0H19.5652V31H15.6522V0Z" fill="white"/>
<path d="M15.6522 0H27.3913V3.875H15.6522V0Z" fill="white"/>
<path d="M15.6522 13.5625H27.3913V17.4375H15.6522V13.5625Z" fill="white"/>
<path d="M15.6522 27.125H27.3913V31H15.6522V27.125Z" fill="white"/>
<path d="M25.4348 1.9375H29.3478V13.5625H25.4348V1.9375Z" fill="white"/>
<path d="M25.4348 17.4375H29.3478V29.0625H25.4348V17.4375Z" fill="white"/>
<path d="M31.3043 1.9375H35.2174V29.0625H31.3043V1.9375Z" fill="white"/>
<path d="M33.2609 0H43.0435V3.875H33.2609V0Z" fill="white"/>
<path d="M33.2609 27.125H43.0435V31H33.2609V27.125Z" fill="white"/>
<path d="M41.087 1.9375H45V5.8125H41.087V1.9375Z" fill="white"/>
<path d="M41.087 25.1875H45V29.0625H41.087V25.1875Z" fill="white"/>
</svg>
