<svg width="88" height="31" viewBox="0 0 88 31" fill="none" xmlns="http://www.w3.org/2000/svg">
<rect y="6.19995" width="12.4" height="3.1" fill="#2F3238"/>
<rect y="6.19995" width="9.3" height="24.8" fill="#2F3238"/>
<rect y="15.5" width="27.9" height="6.2" fill="#2F3238"/>
<rect x="32.1001" y="24.8" width="24.8" height="6.2" fill="#2F3238"/>
<rect x="32.1001" width="24.8" height="6.2" fill="#2F3238"/>
<rect x="66.2" width="18.6" height="6.2" fill="#2F3238"/>
<rect x="66.2" y="24.8" width="18.6" height="6.2" fill="#2F3238"/>
<rect x="32.1001" y="12.4" width="24.8" height="6.2" fill="#2F3238"/>
<rect x="18.6001" y="6.19995" width="9.3" height="24.8" fill="#2F3238"/>
<rect x="50.7" y="3.09998" width="9.3" height="9.3" fill="#2F3238"/>
<rect x="50.7" y="18.6" width="9.3" height="9.3" fill="#2F3238"/>
<rect x="63.1001" y="3.09998" width="9.3" height="24.8" fill="#2F3238"/>
<rect x="78.6001" y="3.09998" width="9.3" height="9.3" fill="#2F3238"/>
<rect x="78.6001" y="18.6" width="9.3" height="9.3" fill="#2F3238"/>
<rect x="32.1001" width="9.3" height="31" fill="#2F3238"/>
<rect x="15" y="6.19995" width="12.4" height="3.1" fill="#2F3238"/>
<rect x="15.5" y="3.1001" width="9.3" height="6.2" fill="#2F3238"/>
<rect x="3.1001" y="3.1001" width="9.3" height="6.2" fill="#2F3238"/>
<rect x="3.1001" y="3.1001" width="21.7" height="3.1" fill="#2F3238"/>
<rect x="6.19995" width="15.5" height="6.2" fill="#2F3238"/>
</svg>
