<svg width="274" height="274" viewBox="0 0 274 274" fill="none" xmlns="http://www.w3.org/2000/svg">
<rect x="54" y="66.2857" width="6.42857" height="6.42857" fill="#2F3238"/>
<rect x="54" y="72.7143" width="6.42857" height="6.42857" fill="#2F3238"/>
<rect x="54" y="79.1428" width="6.42857" height="6.42857" fill="#2F3238"/>
<rect x="54" y="85.5714" width="6.42857" height="6.42857" fill="#2F3238"/>
<rect x="54" y="92" width="6.42857" height="6.42857" fill="#2F3238"/>
<rect x="54" y="98.4286" width="6.42857" height="6.42857" fill="#2F3238"/>
<rect x="54" y="104.857" width="6.42857" height="6.42857" fill="#2F3238"/>
<rect x="54" y="111.286" width="6.42857" height="6.42857" fill="#2F3238"/>
<rect x="54" y="117.714" width="6.42857" height="6.42857" fill="#2F3238"/>
<rect x="54" y="124.143" width="6.42857" height="6.42857" fill="#2F3238"/>
<rect x="54" y="130.571" width="6.42857" height="6.42857" fill="#2F3238"/>
<rect x="54" y="137" width="6.42857" height="6.42857" fill="#2F3238"/>
<rect x="54" y="143.429" width="6.42857" height="6.42857" fill="#2F3238"/>
<rect x="54" y="149.857" width="6.42857" height="6.42857" fill="#2F3238"/>
<rect x="54" y="156.286" width="6.42857" height="6.42857" fill="#2F3238"/>
<rect x="54" y="162.714" width="6.42857" height="6.42857" fill="#2F3238"/>
<rect x="54" y="169.143" width="6.42857" height="6.42857" fill="#2F3238"/>
<rect x="54" y="175.571" width="6.42857" height="6.42857" fill="#2F3238"/>
<rect x="54" y="182" width="6.42857" height="6.42857" fill="#2F3238"/>
<rect x="54" y="188.429" width="6.42857" height="6.42857" fill="#2F3238"/>
<rect x="54" y="194.857" width="6.42857" height="6.42857" fill="#2F3238"/>
<rect x="54" y="201.286" width="6.42857" height="6.42857" fill="#2F3238"/>
<rect x="60.4286" y="201.286" width="6.42857" height="6.42857" fill="#2F3238"/>
<rect x="60.4286" y="207.714" width="6.42857" height="6.42857" fill="#2F3238"/>
<rect x="66.8572" y="207.714" width="6.42857" height="6.42857" fill="#2F3238"/>
<rect x="73.2856" y="207.714" width="6.42857" height="6.42857" fill="#2F3238"/>
<rect x="79.7142" y="207.714" width="6.42857" height="6.42857" fill="#2F3238"/>
<rect x="86.1428" y="207.714" width="6.42857" height="6.42857" fill="#2F3238"/>
<rect x="92.5715" y="207.714" width="6.42857" height="6.42857" fill="#2F3238"/>
<rect x="99.0001" y="207.714" width="6.42857" height="6.42857" fill="#2F3238"/>
<rect x="105.429" y="207.714" width="6.42857" height="6.42857" fill="#2F3238"/>
<rect x="111.857" y="207.714" width="6.42857" height="6.42857" fill="#2F3238"/>
<rect x="118.286" y="207.714" width="6.42857" height="6.42857" fill="#2F3238"/>
<rect x="124.714" y="207.714" width="6.42857" height="6.42857" fill="#2F3238"/>
<rect x="131.143" y="207.714" width="6.42857" height="6.42857" fill="#2F3238"/>
<rect x="137.572" y="207.714" width="6.42857" height="6.42857" fill="#2F3238"/>
<rect x="144" y="207.714" width="6.42857" height="6.42857" fill="#2F3238"/>
<rect x="150.429" y="207.714" width="6.42857" height="6.42857" fill="#2F3238"/>
<rect x="150.429" y="201.286" width="6.42857" height="6.42857" fill="#2F3238"/>
<rect x="150.429" y="194.857" width="6.42857" height="6.42857" fill="#2F3238"/>
<rect x="150.429" y="188.429" width="6.42857" height="6.42857" fill="#2F3238"/>
<rect x="150.429" y="182" width="6.42857" height="6.42857" fill="#2F3238"/>
<rect x="150.429" y="175.571" width="6.42857" height="6.42857" fill="#2F3238"/>
<rect x="156.857" y="175.571" width="6.42857" height="6.42857" fill="#2F3238"/>
<rect x="163.286" y="175.571" width="6.42857" height="6.42857" fill="#2F3238"/>
<rect x="169.714" y="175.571" width="6.42857" height="6.42857" fill="#2F3238"/>
<rect x="176.143" y="175.571" width="6.42857" height="6.42857" fill="#2F3238"/>
<rect x="182.571" y="175.571" width="6.42857" height="6.42857" fill="#2F3238"/>
<rect x="182.571" y="182" width="6.42857" height="6.42857" fill="#2F3238"/>
<rect x="176.143" y="182" width="6.42857" height="6.42857" fill="#2F3238"/>
<rect x="176.143" y="188.429" width="6.42857" height="6.42857" fill="#2F3238"/>
<rect x="169.714" y="188.429" width="6.42857" height="6.42857" fill="#2F3238"/>
<rect x="169.714" y="194.857" width="6.42857" height="6.42857" fill="#2F3238"/>
<rect x="163.286" y="194.857" width="6.42857" height="6.42857" fill="#2F3238"/>
<rect x="163.286" y="201.286" width="6.42857" height="6.42857" fill="#2F3238"/>
<rect x="156.857" y="201.286" width="6.42857" height="6.42857" fill="#2F3238"/>
<rect x="156.857" y="207.714" width="6.42857" height="6.42857" fill="#2F3238"/>
<rect x="66.8572" y="214.143" width="6.42857" height="6.42857" fill="#2F3238"/>
<rect x="73.2856" y="220.571" width="6.42857" height="6.42857" fill="#2F3238"/>
<rect x="79.7142" y="220.571" width="6.42857" height="6.42857" fill="#2F3238"/>
<rect x="86.1428" y="220.571" width="6.42857" height="6.42857" fill="#2F3238"/>
<rect x="92.5715" y="220.571" width="6.42857" height="6.42857" fill="#2F3238"/>
<rect x="99.0001" y="220.571" width="6.42857" height="6.42857" fill="#2F3238"/>
<rect x="105.429" y="220.571" width="6.42857" height="6.42857" fill="#2F3238"/>
<rect x="111.857" y="220.571" width="6.42857" height="6.42857" fill="#2F3238"/>
<rect x="118.286" y="220.571" width="6.42857" height="6.42857" fill="#2F3238"/>
<rect x="124.714" y="220.571" width="6.42857" height="6.42857" fill="#2F3238"/>
<rect x="131.143" y="220.571" width="6.42857" height="6.42857" fill="#2F3238"/>
<rect x="137.572" y="220.571" width="6.42857" height="6.42857" fill="#2F3238"/>
<rect x="144" y="220.571" width="6.42857" height="6.42857" fill="#2F3238"/>
<rect x="150.429" y="220.571" width="6.42857" height="6.42857" fill="#2F3238"/>
<rect x="156.857" y="220.571" width="6.42857" height="6.42857" fill="#2F3238"/>
<rect x="163.286" y="220.571" width="6.42857" height="6.42857" fill="#2F3238"/>
<rect x="169.714" y="220.571" width="6.42857" height="6.42857" fill="#2F3238"/>
<rect x="176.143" y="220.571" width="6.42857" height="6.42857" fill="#2F3238"/>
<rect x="182.571" y="220.571" width="6.42857" height="6.42857" fill="#2F3238"/>
<rect x="189" y="220.571" width="6.42857" height="6.42857" fill="#2F3238"/>
<rect x="195.429" y="214.143" width="6.42857" height="6.42857" fill="#2F3238"/>
<rect x="195.429" y="207.714" width="6.42857" height="6.42857" fill="#2F3238"/>
<rect x="195.429" y="201.286" width="6.42857" height="6.42857" fill="#2F3238"/>
<rect x="195.429" y="194.857" width="6.42857" height="6.42857" fill="#2F3238"/>
<rect x="195.429" y="188.429" width="6.42857" height="6.42857" fill="#2F3238"/>
<rect x="195.429" y="182" width="6.42857" height="6.42857" fill="#2F3238"/>
<rect x="195.429" y="175.571" width="6.42857" height="6.42857" fill="#2F3238"/>
<rect x="195.429" y="169.143" width="6.42857" height="6.42857" fill="#2F3238"/>
<rect x="195.429" y="162.714" width="6.42857" height="6.42857" fill="#2F3238"/>
<rect x="195.429" y="156.286" width="6.42857" height="6.42857" fill="#2F3238"/>
<rect x="195.429" y="149.857" width="6.42857" height="6.42857" fill="#2F3238"/>
<rect x="195.429" y="143.429" width="6.42857" height="6.42857" fill="#2F3238"/>
<rect x="195.429" y="137" width="6.42857" height="6.42857" fill="#2F3238"/>
<rect x="195.429" y="130.571" width="6.42857" height="6.42857" fill="#2F3238"/>
<rect x="195.429" y="124.143" width="6.42857" height="6.42857" fill="#2F3238"/>
<rect x="195.429" y="117.714" width="6.42857" height="6.42857" fill="#2F3238"/>
<rect x="195.429" y="111.286" width="6.42857" height="6.42857" fill="#2F3238"/>
<rect x="195.429" y="104.857" width="6.42857" height="6.42857" fill="#2F3238"/>
<rect x="195.429" y="98.4286" width="6.42857" height="6.42857" fill="#2F3238"/>
<rect x="189" y="98.4286" width="6.42857" height="6.42857" fill="#2F3238"/>
<rect x="182.571" y="98.4286" width="6.42857" height="6.42857" fill="#2F3238"/>
<rect x="182.571" y="92" width="6.42857" height="6.42857" fill="#2F3238"/>
<rect x="182.571" y="85.5714" width="6.42857" height="6.42857" fill="#2F3238"/>
<rect x="182.571" y="79.1428" width="6.42857" height="6.42857" fill="#2F3238"/>
<rect x="182.571" y="72.7143" width="6.42857" height="6.42857" fill="#2F3238"/>
<rect x="182.571" y="66.2857" width="6.42857" height="6.42857" fill="#2F3238"/>
<rect x="176.143" y="92" width="6.42857" height="6.42857" fill="#2F3238"/>
<rect x="169.714" y="92" width="6.42857" height="6.42857" fill="#2F3238"/>
<rect x="163.286" y="92" width="6.42857" height="6.42857" fill="#2F3238"/>
<rect x="156.857" y="92" width="6.42857" height="6.42857" fill="#2F3238"/>
<rect x="150.429" y="92" width="6.42857" height="6.42857" fill="#2F3238"/>
<rect x="144" y="92" width="6.42857" height="6.42857" fill="#2F3238"/>
<rect x="137.572" y="92" width="6.42857" height="6.42857" fill="#2F3238"/>
<rect x="131.143" y="92" width="6.42857" height="6.42857" fill="#2F3238"/>
<rect x="124.714" y="92" width="6.42857" height="6.42857" fill="#2F3238"/>
<rect x="118.286" y="92" width="6.42857" height="6.42857" fill="#2F3238"/>
<rect x="111.857" y="92" width="6.42857" height="6.42857" fill="#2F3238"/>
<rect x="105.429" y="92" width="6.42857" height="6.42857" fill="#2F3238"/>
<rect x="99.0001" y="92" width="6.42857" height="6.42857" fill="#2F3238"/>
<rect x="86.1428" y="124.143" width="6.42857" height="6.42857" fill="#2F3238"/>
<rect x="86.1428" y="130.571" width="6.42857" height="6.42857" fill="#2F3238"/>
<rect x="86.1428" y="143.429" width="6.42857" height="6.42857" fill="#2F3238"/>
<rect x="92.5715" y="143.429" width="6.42857" height="6.42857" fill="#2F3238"/>
<rect x="92.5715" y="149.857" width="6.42857" height="6.42857" fill="#2F3238"/>
<rect x="92.5715" y="149.857" width="6.42857" height="6.42857" fill="#2F3238"/>
<rect x="86.1428" y="149.857" width="6.42857" height="6.42857" fill="#2F3238"/>
<rect x="86.1428" y="162.714" width="6.42857" height="6.42857" fill="#2F3238"/>
<rect x="92.5715" y="162.714" width="6.42857" height="6.42857" fill="#2F3238"/>
<rect x="92.5715" y="169.143" width="6.42857" height="6.42857" fill="#2F3238"/>
<rect x="86.1428" y="169.143" width="6.42857" height="6.42857" fill="#2F3238"/>
<rect x="92.5715" y="124.143" width="6.42857" height="6.42857" fill="#2F3238"/>
<rect x="92.5715" y="130.571" width="6.42857" height="6.42857" fill="#2F3238"/>
<rect x="99.0001" y="124.143" width="6.42857" height="6.42857" fill="#2F3238"/>
<rect x="105.429" y="124.143" width="6.42857" height="6.42857" fill="#2F3238"/>
<rect x="105.429" y="130.571" width="6.42857" height="6.42857" fill="#2F3238"/>
<rect x="99.0001" y="130.571" width="6.42857" height="6.42857" fill="#2F3238"/>
<rect x="105.429" y="137" width="6.42857" height="6.42857" fill="#2F3238"/>
<rect x="99.0001" y="137" width="6.42857" height="6.42857" fill="#2F3238"/>
<rect x="105.429" y="143.429" width="6.42857" height="6.42857" fill="#2F3238"/>
<rect x="99.0001" y="143.429" width="6.42857" height="6.42857" fill="#2F3238"/>
<rect x="105.429" y="149.857" width="6.42857" height="6.42857" fill="#2F3238"/>
<rect x="99.0001" y="149.857" width="6.42857" height="6.42857" fill="#2F3238"/>
<rect x="105.429" y="156.286" width="6.42857" height="6.42857" fill="#2F3238"/>
<rect x="99.0001" y="156.286" width="6.42857" height="6.42857" fill="#2F3238"/>
<rect x="105.429" y="162.714" width="6.42857" height="6.42857" fill="#2F3238"/>
<rect x="118.286" y="162.714" width="6.42857" height="6.42857" fill="#2F3238"/>
<rect x="118.286" y="169.143" width="6.42857" height="6.42857" fill="#2F3238"/>
<rect x="124.714" y="169.143" width="6.42857" height="6.42857" fill="#2F3238"/>
<rect x="131.143" y="169.143" width="6.42857" height="6.42857" fill="#2F3238"/>
<rect x="137.572" y="169.143" width="6.42857" height="6.42857" fill="#2F3238"/>
<rect x="124.714" y="162.714" width="6.42857" height="6.42857" fill="#2F3238"/>
<rect x="137.572" y="162.714" width="6.42857" height="6.42857" fill="#2F3238"/>
<rect x="131.143" y="162.714" width="6.42857" height="6.42857" fill="#2F3238"/>
<rect x="131.143" y="156.286" width="6.42857" height="6.42857" fill="#2F3238"/>
<rect x="124.714" y="156.286" width="6.42857" height="6.42857" fill="#2F3238"/>
<rect x="124.714" y="149.857" width="6.42857" height="6.42857" fill="#2F3238"/>
<rect x="124.714" y="143.429" width="6.42857" height="6.42857" fill="#2F3238"/>
<rect x="124.714" y="137" width="6.42857" height="6.42857" fill="#2F3238"/>
<rect x="118.286" y="137" width="6.42857" height="6.42857" fill="#2F3238"/>
<rect x="124.714" y="130.571" width="6.42857" height="6.42857" fill="#2F3238"/>
<rect x="118.286" y="130.571" width="6.42857" height="6.42857" fill="#2F3238"/>
<rect x="124.714" y="124.143" width="6.42857" height="6.42857" fill="#2F3238"/>
<rect x="131.143" y="149.857" width="6.42857" height="6.42857" fill="#2F3238"/>
<rect x="131.143" y="143.429" width="6.42857" height="6.42857" fill="#2F3238"/>
<rect x="131.143" y="137" width="6.42857" height="6.42857" fill="#2F3238"/>
<rect x="131.143" y="130.571" width="6.42857" height="6.42857" fill="#2F3238"/>
<rect x="131.143" y="124.143" width="6.42857" height="6.42857" fill="#2F3238"/>
<rect x="99.0001" y="162.714" width="6.42857" height="6.42857" fill="#2F3238"/>
<rect x="105.429" y="169.143" width="6.42857" height="6.42857" fill="#2F3238"/>
<rect x="99.0001" y="169.143" width="6.42857" height="6.42857" fill="#2F3238"/>
<rect x="92.5715" y="92" width="6.42857" height="6.42857" fill="#2F3238"/>
<rect x="86.1428" y="92" width="6.42857" height="6.42857" fill="#2F3238"/>
<rect x="79.7142" y="92" width="6.42857" height="6.42857" fill="#2F3238"/>
<rect x="73.2856" y="92" width="6.42857" height="6.42857" fill="#2F3238"/>
<rect x="66.8572" y="92" width="6.42857" height="6.42857" fill="#2F3238"/>
<rect x="60.4286" y="92" width="6.42857" height="6.42857" fill="#2F3238"/>
<rect x="60.4286" y="59.8572" width="6.42857" height="6.42857" fill="#2F3238"/>
<rect x="66.8572" y="59.8572" width="6.42857" height="6.42857" fill="#2F3238"/>
<rect x="73.2856" y="59.8572" width="6.42857" height="6.42857" fill="#2F3238"/>
<rect x="73.2856" y="66.2857" width="6.42857" height="6.42857" fill="#2F3238"/>
<rect x="73.2856" y="72.7143" width="6.42857" height="6.42857" fill="#2F3238"/>
<rect x="79.7142" y="72.7143" width="6.42857" height="6.42857" fill="#2F3238"/>
<rect x="73.2856" y="53.4286" width="6.42857" height="6.42857" fill="#2F3238"/>
<rect x="73.2856" y="47" width="6.42857" height="6.42857" fill="#2F3238"/>
<rect x="79.7142" y="47" width="6.42857" height="6.42857" fill="#2F3238"/>
<rect x="86.1428" y="47" width="6.42857" height="6.42857" fill="#2F3238"/>
<rect x="86.1428" y="53.4286" width="6.42857" height="6.42857" fill="#2F3238"/>
<rect x="79.7142" y="59.8572" width="6.42857" height="6.42857" fill="#2F3238"/>
<rect x="86.1428" y="59.8572" width="6.42857" height="6.42857" fill="#2F3238"/>
<rect x="92.5715" y="59.8572" width="6.42857" height="6.42857" fill="#2F3238"/>
<rect x="99.0001" y="59.8572" width="6.42857" height="6.42857" fill="#2F3238"/>
<rect x="105.429" y="59.8572" width="6.42857" height="6.42857" fill="#2F3238"/>
<rect x="111.857" y="59.8572" width="6.42857" height="6.42857" fill="#2F3238"/>
<rect x="118.286" y="59.8572" width="6.42857" height="6.42857" fill="#2F3238"/>
<rect x="124.714" y="59.8572" width="6.42857" height="6.42857" fill="#2F3238"/>
<rect x="131.143" y="59.8572" width="6.42857" height="6.42857" fill="#2F3238"/>
<rect x="137.572" y="59.8572" width="6.42857" height="6.42857" fill="#2F3238"/>
<rect x="144" y="59.8572" width="6.42857" height="6.42857" fill="#2F3238"/>
<rect x="150.429" y="59.8572" width="6.42857" height="6.42857" fill="#2F3238"/>
<rect x="150.429" y="53.4286" width="6.42857" height="6.42857" fill="#2F3238"/>
<rect x="150.429" y="47" width="6.42857" height="6.42857" fill="#2F3238"/>
<rect x="156.857" y="47" width="6.42857" height="6.42857" fill="#2F3238"/>
<rect x="163.286" y="47" width="6.42857" height="6.42857" fill="#2F3238"/>
<rect x="163.286" y="53.4286" width="6.42857" height="6.42857" fill="#2F3238"/>
<rect x="150.429" y="66.2857" width="6.42857" height="6.42857" fill="#2F3238"/>
<rect x="150.429" y="72.7143" width="6.42857" height="6.42857" fill="#2F3238"/>
<rect x="156.857" y="72.7143" width="6.42857" height="6.42857" fill="#2F3238"/>
<rect x="156.857" y="59.8572" width="6.42857" height="6.42857" fill="#2F3238"/>
<rect x="163.286" y="59.8572" width="6.42857" height="6.42857" fill="#2F3238"/>
<rect x="169.714" y="59.8572" width="6.42857" height="6.42857" fill="#2F3238"/>
<rect x="176.143" y="59.8572" width="6.42857" height="6.42857" fill="#2F3238"/>
<rect x="189" y="66.2857" width="6.42857" height="6.42857" fill="#2F3238"/>
<rect x="182.571" y="104.857" width="6.42857" height="6.42857" fill="#2F3238"/>
<rect x="182.571" y="111.286" width="6.42857" height="6.42857" fill="#2F3238"/>
<rect x="182.571" y="117.714" width="6.42857" height="6.42857" fill="#2F3238"/>
<rect x="182.571" y="124.143" width="6.42857" height="6.42857" fill="#2F3238"/>
<rect x="182.571" y="130.571" width="6.42857" height="6.42857" fill="#2F3238"/>
<rect x="182.571" y="137" width="6.42857" height="6.42857" fill="#2F3238"/>
<rect x="182.571" y="143.429" width="6.42857" height="6.42857" fill="#2F3238"/>
<rect x="182.571" y="149.857" width="6.42857" height="6.42857" fill="#2F3238"/>
<rect x="182.571" y="156.286" width="6.42857" height="6.42857" fill="#2F3238"/>
<rect x="182.571" y="162.714" width="6.42857" height="6.42857" fill="#2F3238"/>
<rect x="182.571" y="169.143" width="6.42857" height="6.42857" fill="#2F3238"/>
<rect x="195.429" y="92" width="6.42857" height="6.42857" fill="#2F3238"/>
<rect x="195.429" y="85.5714" width="6.42857" height="6.42857" fill="#2F3238"/>
<rect x="195.429" y="79.1428" width="6.42857" height="6.42857" fill="#2F3238"/>
<rect x="195.429" y="79.1428" width="6.42857" height="6.42857" fill="#2F3238"/>
<rect x="195.429" y="79.1428" width="6.42857" height="6.42857" fill="#2F3238"/>
<rect x="195.429" y="72.7143" width="6.42857" height="6.42857" fill="#2F3238"/>
</svg>
