<svg width="100" height="100" viewBox="0 0 100 100" fill="none" xmlns="http://www.w3.org/2000/svg">
<g clip-path="url(#clip0_2656_6569)">
<rect width="100" height="100" rx="50" fill="#F3F4F5"/>
<g clip-path="url(#clip1_2656_6569)">
<path d="M3.33333 0H0V3.33333H3.33333V0Z" fill="#676633"/>
<path d="M6.66659 0H3.33325V3.33333H6.66659V0Z" fill="#676633"/>
<path d="M10.0001 0H6.66675V3.33333H10.0001V0Z" fill="#676633"/>
<path d="M13.3333 0H10V3.33333H13.3333V0Z" fill="#676633"/>
<path d="M16.6666 0H13.3333V3.33333H16.6666V0Z" fill="#676633"/>
<path d="M20.0001 0H16.6667V3.33333H20.0001V0Z" fill="#676633"/>
<path d="M23.3333 0H20V3.33333H23.3333V0Z" fill="#676633"/>
<path d="M26.6666 0H23.3333V3.33333H26.6666V0Z" fill="#676633"/>
<path d="M30.0001 0H26.6667V3.33333H30.0001V0Z" fill="#676633"/>
<path d="M33.3333 0H30V3.33333H33.3333V0Z" fill="#676633"/>
<path d="M36.6666 0H33.3333V3.33333H36.6666V0Z" fill="#676633"/>
<path d="M40.0001 0H36.6667V3.33333H40.0001V0Z" fill="#676633"/>
<path d="M43.3333 0H40V3.33333H43.3333V0Z" fill="#676633"/>
<path d="M46.6666 0H43.3333V3.33333H46.6666V0Z" fill="#676633"/>
<path d="M50.0001 0H46.6667V3.33333H50.0001V0Z" fill="#676633"/>
<path d="M53.3333 0H50V3.33333H53.3333V0Z" fill="#676633"/>
<path d="M56.6666 0H53.3333V3.33333H56.6666V0Z" fill="#676633"/>
<path d="M60.0001 0H56.6667V3.33333H60.0001V0Z" fill="#676633"/>
<path d="M63.3333 0H60V3.33333H63.3333V0Z" fill="#676633"/>
<path d="M66.6666 0H63.3333V3.33333H66.6666V0Z" fill="#676633"/>
<path d="M70.0001 0H66.6667V3.33333H70.0001V0Z" fill="#676633"/>
<path d="M73.3333 0H70V3.33333H73.3333V0Z" fill="#676633"/>
<path d="M76.6666 0H73.3333V3.33333H76.6666V0Z" fill="#676633"/>
<path d="M80.0001 0H76.6667V3.33333H80.0001V0Z" fill="#676633"/>
<path d="M83.3333 0H80V3.33333H83.3333V0Z" fill="#676633"/>
<path d="M86.6666 0H83.3333V3.33333H86.6666V0Z" fill="#676633"/>
<path d="M90.0001 0H86.6667V3.33333H90.0001V0Z" fill="#676633"/>
<path d="M93.3333 0H90V3.33333H93.3333V0Z" fill="#676633"/>
<path d="M96.6666 0H93.3333V3.33333H96.6666V0Z" fill="#676633"/>
<path d="M100 0H96.6667V3.33333H100V0Z" fill="#676633"/>
<path d="M3.33333 3.33325H0V6.66659H3.33333V3.33325Z" fill="#676633"/>
<path d="M6.66659 3.33325H3.33325V6.66659H6.66659V3.33325Z" fill="#676633"/>
<path d="M10.0001 3.33325H6.66675V6.66659H10.0001V3.33325Z" fill="#676633"/>
<path d="M13.3333 3.33325H10V6.66659H13.3333V3.33325Z" fill="#676633"/>
<path d="M16.6666 3.33325H13.3333V6.66659H16.6666V3.33325Z" fill="#676633"/>
<path d="M20.0001 3.33325H16.6667V6.66659H20.0001V3.33325Z" fill="#676633"/>
<path d="M23.3333 3.33325H20V6.66659H23.3333V3.33325Z" fill="#676633"/>
<path d="M26.6666 3.33325H23.3333V6.66659H26.6666V3.33325Z" fill="#676633"/>
<path d="M30.0001 3.33325H26.6667V6.66659H30.0001V3.33325Z" fill="#676633"/>
<path d="M33.3333 3.33325H30V6.66659H33.3333V3.33325Z" fill="#676633"/>
<path d="M36.6666 3.33325H33.3333V6.66659H36.6666V3.33325Z" fill="#676633"/>
<path d="M40.0001 3.33325H36.6667V6.66659H40.0001V3.33325Z" fill="#676633"/>
<path d="M43.3333 3.33325H40V6.66659H43.3333V3.33325Z" fill="#676633"/>
<path d="M46.6666 3.33325H43.3333V6.66659H46.6666V3.33325Z" fill="#676633"/>
<path d="M50.0001 3.33325H46.6667V6.66659H50.0001V3.33325Z" fill="#676633"/>
<path d="M53.3333 3.33325H50V6.66659H53.3333V3.33325Z" fill="#676633"/>
<path d="M56.6666 3.33325H53.3333V6.66659H56.6666V3.33325Z" fill="#676633"/>
<path d="M60.0001 3.33325H56.6667V6.66659H60.0001V3.33325Z" fill="#676633"/>
<path d="M63.3333 3.33325H60V6.66659H63.3333V3.33325Z" fill="#676633"/>
<path d="M66.6666 3.33325H63.3333V6.66659H66.6666V3.33325Z" fill="#676633"/>
<path d="M70.0001 3.33325H66.6667V6.66659H70.0001V3.33325Z" fill="#676633"/>
<path d="M73.3333 3.33325H70V6.66659H73.3333V3.33325Z" fill="#676633"/>
<path d="M76.6666 3.33325H73.3333V6.66659H76.6666V3.33325Z" fill="#676633"/>
<path d="M80.0001 3.33325H76.6667V6.66659H80.0001V3.33325Z" fill="#676633"/>
<path d="M83.3333 3.33325H80V6.66659H83.3333V3.33325Z" fill="#676633"/>
<path d="M86.6666 3.33325H83.3333V6.66659H86.6666V3.33325Z" fill="#676633"/>
<path d="M90.0001 3.33325H86.6667V6.66659H90.0001V3.33325Z" fill="#676633"/>
<path d="M93.3333 3.33325H90V6.66659H93.3333V3.33325Z" fill="#676633"/>
<path d="M96.6666 3.33325H93.3333V6.66659H96.6666V3.33325Z" fill="#676633"/>
<path d="M100 3.33325H96.6667V6.66659H100V3.33325Z" fill="#676633"/>
<path d="M3.33333 6.66675H0V10.0001H3.33333V6.66675Z" fill="#676633"/>
<path d="M6.66659 6.66675H3.33325V10.0001H6.66659V6.66675Z" fill="#676633"/>
<path d="M10.0001 6.66675H6.66675V10.0001H10.0001V6.66675Z" fill="#676633"/>
<path d="M13.3333 6.66675H10V10.0001H13.3333V6.66675Z" fill="#676633"/>
<path d="M16.6666 6.66675H13.3333V10.0001H16.6666V6.66675Z" fill="#676633"/>
<path d="M20.0001 6.66675H16.6667V10.0001H20.0001V6.66675Z" fill="#676633"/>
<path d="M23.3333 6.66675H20V10.0001H23.3333V6.66675Z" fill="#676633"/>
<path d="M26.6666 6.66675H23.3333V10.0001H26.6666V6.66675Z" fill="#676633"/>
<path d="M30.0001 6.66675H26.6667V10.0001H30.0001V6.66675Z" fill="#676633"/>
<path d="M33.3333 6.66675H30V10.0001H33.3333V6.66675Z" fill="#676633"/>
<path d="M36.6666 6.66675H33.3333V10.0001H36.6666V6.66675Z" fill="#676633"/>
<path d="M40.0001 6.66675H36.6667V10.0001H40.0001V6.66675Z" fill="#676633"/>
<path d="M43.3333 6.66675H40V10.0001H43.3333V6.66675Z" fill="#676633"/>
<path d="M46.6666 6.66675H43.3333V10.0001H46.6666V6.66675Z" fill="#676633"/>
<path d="M50.0001 6.66675H46.6667V10.0001H50.0001V6.66675Z" fill="#676633"/>
<path d="M53.3333 6.66675H50V10.0001H53.3333V6.66675Z" fill="#676633"/>
<path d="M56.6666 6.66675H53.3333V10.0001H56.6666V6.66675Z" fill="#676633"/>
<path d="M60.0001 6.66675H56.6667V10.0001H60.0001V6.66675Z" fill="#676633"/>
<path d="M63.3333 6.66675H60V10.0001H63.3333V6.66675Z" fill="#676633"/>
<path d="M66.6666 6.66675H63.3333V10.0001H66.6666V6.66675Z" fill="#676633"/>
<path d="M70.0001 6.66675H66.6667V10.0001H70.0001V6.66675Z" fill="#676633"/>
<path d="M73.3333 6.66675H70V10.0001H73.3333V6.66675Z" fill="#676633"/>
<path d="M76.6666 6.66675H73.3333V10.0001H76.6666V6.66675Z" fill="#676633"/>
<path d="M80.0001 6.66675H76.6667V10.0001H80.0001V6.66675Z" fill="#676633"/>
<path d="M83.3333 6.66675H80V10.0001H83.3333V6.66675Z" fill="#676633"/>
<path d="M86.6666 6.66675H83.3333V10.0001H86.6666V6.66675Z" fill="#676633"/>
<path d="M90.0001 6.66675H86.6667V10.0001H90.0001V6.66675Z" fill="#676633"/>
<path d="M93.3333 6.66675H90V10.0001H93.3333V6.66675Z" fill="#676633"/>
<path d="M96.6666 6.66675H93.3333V10.0001H96.6666V6.66675Z" fill="#676633"/>
<path d="M100 6.66675H96.6667V10.0001H100V6.66675Z" fill="#676633"/>
<path d="M3.33333 10H0V13.3333H3.33333V10Z" fill="#676633"/>
<path d="M6.66659 10H3.33325V13.3333H6.66659V10Z" fill="#676633"/>
<path d="M10.0001 10H6.66675V13.3333H10.0001V10Z" fill="#676633"/>
<path d="M13.3333 10H10V13.3333H13.3333V10Z" fill="#676633"/>
<path d="M16.6666 10H13.3333V13.3333H16.6666V10Z" fill="#676633"/>
<path d="M20.0001 10H16.6667V13.3333H20.0001V10Z" fill="#676633"/>
<path d="M23.3333 10H20V13.3333H23.3333V10Z" fill="#676633"/>
<path d="M26.6666 10H23.3333V13.3333H26.6666V10Z" fill="#676633"/>
<path d="M30.0001 10H26.6667V13.3333H30.0001V10Z" fill="#676633"/>
<path d="M33.3333 10H30V13.3333H33.3333V10Z" fill="#676633"/>
<path d="M36.6666 10H33.3333V13.3333H36.6666V10Z" fill="#676633"/>
<path d="M40.0001 10H36.6667V13.3333H40.0001V10Z" fill="#676633"/>
<path d="M43.3333 10H40V13.3333H43.3333V10Z" fill="#676633"/>
<path d="M46.6666 10H43.3333V13.3333H46.6666V10Z" fill="#676633"/>
<path d="M50.0001 10H46.6667V13.3333H50.0001V10Z" fill="#676633"/>
<path d="M53.3333 10H50V13.3333H53.3333V10Z" fill="#676633"/>
<path d="M56.6666 10H53.3333V13.3333H56.6666V10Z" fill="#676633"/>
<path d="M60.0001 10H56.6667V13.3333H60.0001V10Z" fill="#676633"/>
<path d="M63.3333 10H60V13.3333H63.3333V10Z" fill="#676633"/>
<path d="M66.6666 10H63.3333V13.3333H66.6666V10Z" fill="#676633"/>
<path d="M70.0001 10H66.6667V13.3333H70.0001V10Z" fill="#676633"/>
<path d="M73.3333 10H70V13.3333H73.3333V10Z" fill="#676633"/>
<path d="M76.6666 10H73.3333V13.3333H76.6666V10Z" fill="#676633"/>
<path d="M80.0001 10H76.6667V13.3333H80.0001V10Z" fill="#676633"/>
<path d="M83.3333 10H80V13.3333H83.3333V10Z" fill="#676633"/>
<path d="M86.6666 10H83.3333V13.3333H86.6666V10Z" fill="#676633"/>
<path d="M90.0001 10H86.6667V13.3333H90.0001V10Z" fill="#676633"/>
<path d="M93.3333 10H90V13.3333H93.3333V10Z" fill="#676633"/>
<path d="M96.6666 10H93.3333V13.3333H96.6666V10Z" fill="#676633"/>
<path d="M100 10H96.6667V13.3333H100V10Z" fill="#676633"/>
<path d="M3.33333 13.3333H0V16.6666H3.33333V13.3333Z" fill="#676633"/>
<path d="M6.66659 13.3333H3.33325V16.6666H6.66659V13.3333Z" fill="#676633"/>
<path d="M10.0001 13.3333H6.66675V16.6666H10.0001V13.3333Z" fill="#676633"/>
<path d="M13.3333 13.3333H10V16.6666H13.3333V13.3333Z" fill="#676633"/>
<path d="M16.6666 13.3333H13.3333V16.6666H16.6666V13.3333Z" fill="#676633"/>
<path d="M20.0001 13.3333H16.6667V16.6666H20.0001V13.3333Z" fill="#676633"/>
<path d="M23.3333 13.3333H20V16.6666H23.3333V13.3333Z" fill="#676633"/>
<path d="M26.6666 13.3333H23.3333V16.6666H26.6666V13.3333Z" fill="#676633"/>
<path d="M30.0001 13.3333H26.6667V16.6666H30.0001V13.3333Z" fill="#676633"/>
<path d="M33.3333 13.3333H30V16.6666H33.3333V13.3333Z" fill="#676633"/>
<path d="M36.6666 13.3333H33.3333V16.6666H36.6666V13.3333Z" fill="#676633"/>
<path d="M40.0001 13.3333H36.6667V16.6666H40.0001V13.3333Z" fill="#676633"/>
<path d="M43.3333 13.3333H40V16.6666H43.3333V13.3333Z" fill="#676633"/>
<path d="M46.6666 13.3333H43.3333V16.6666H46.6666V13.3333Z" fill="#676633"/>
<path d="M50.0001 13.3333H46.6667V16.6666H50.0001V13.3333Z" fill="#676633"/>
<path d="M53.3333 13.3333H50V16.6666H53.3333V13.3333Z" fill="#676633"/>
<path d="M56.6666 13.3333H53.3333V16.6666H56.6666V13.3333Z" fill="#676633"/>
<path d="M60.0001 13.3333H56.6667V16.6666H60.0001V13.3333Z" fill="#676633"/>
<path d="M63.3333 13.3333H60V16.6666H63.3333V13.3333Z" fill="#676633"/>
<path d="M66.6666 13.3333H63.3333V16.6666H66.6666V13.3333Z" fill="#676633"/>
<path d="M70.0001 13.3333H66.6667V16.6666H70.0001V13.3333Z" fill="#676633"/>
<path d="M73.3333 13.3333H70V16.6666H73.3333V13.3333Z" fill="#676633"/>
<path d="M76.6666 13.3333H73.3333V16.6666H76.6666V13.3333Z" fill="#676633"/>
<path d="M80.0001 13.3333H76.6667V16.6666H80.0001V13.3333Z" fill="#676633"/>
<path d="M83.3333 13.3333H80V16.6666H83.3333V13.3333Z" fill="#676633"/>
<path d="M86.6666 13.3333H83.3333V16.6666H86.6666V13.3333Z" fill="#676633"/>
<path d="M90.0001 13.3333H86.6667V16.6666H90.0001V13.3333Z" fill="#676633"/>
<path d="M93.3333 13.3333H90V16.6666H93.3333V13.3333Z" fill="#676633"/>
<path d="M96.6666 13.3333H93.3333V16.6666H96.6666V13.3333Z" fill="#676633"/>
<path d="M100 13.3333H96.6667V16.6666H100V13.3333Z" fill="#676633"/>
<path d="M3.33333 16.6667H0V20.0001H3.33333V16.6667Z" fill="#676633"/>
<path d="M6.66659 16.6667H3.33325V20.0001H6.66659V16.6667Z" fill="#676633"/>
<path d="M10.0001 16.6667H6.66675V20.0001H10.0001V16.6667Z" fill="#676633"/>
<path d="M13.3333 16.6667H10V20.0001H13.3333V16.6667Z" fill="#676633"/>
<path d="M16.6666 16.6667H13.3333V20.0001H16.6666V16.6667Z" fill="#676633"/>
<path d="M20.0001 16.6667H16.6667V20.0001H20.0001V16.6667Z" fill="#676633"/>
<path d="M23.3333 16.6667H20V20.0001H23.3333V16.6667Z" fill="#676633"/>
<path d="M26.6666 16.6667H23.3333V20.0001H26.6666V16.6667Z" fill="#676633"/>
<path d="M30.0001 16.6667H26.6667V20.0001H30.0001V16.6667Z" fill="#676633"/>
<path d="M33.3333 16.6667H30V20.0001H33.3333V16.6667Z" fill="#676633"/>
<path d="M36.6666 16.6667H33.3333V20.0001H36.6666V16.6667Z" fill="#676633"/>
<path d="M40.0001 16.6667H36.6667V20.0001H40.0001V16.6667Z" fill="#060608"/>
<path d="M43.3333 16.6667H40V20.0001H43.3333V16.6667Z" fill="#676633"/>
<path d="M46.6666 16.6667H43.3333V20.0001H46.6666V16.6667Z" fill="#676633"/>
<path d="M50.0001 16.6667H46.6667V20.0001H50.0001V16.6667Z" fill="#676633"/>
<path d="M53.3333 16.6667H50V20.0001H53.3333V16.6667Z" fill="#676633"/>
<path d="M56.6666 16.6667H53.3333V20.0001H56.6666V16.6667Z" fill="#676633"/>
<path d="M60.0001 16.6667H56.6667V20.0001H60.0001V16.6667Z" fill="#676633"/>
<path d="M63.3333 16.6667H60V20.0001H63.3333V16.6667Z" fill="#676633"/>
<path d="M66.6666 16.6667H63.3333V20.0001H66.6666V16.6667Z" fill="#676633"/>
<path d="M70.0001 16.6667H66.6667V20.0001H70.0001V16.6667Z" fill="#676633"/>
<path d="M73.3333 16.6667H70V20.0001H73.3333V16.6667Z" fill="#676633"/>
<path d="M76.6666 16.6667H73.3333V20.0001H76.6666V16.6667Z" fill="#676633"/>
<path d="M80.0001 16.6667H76.6667V20.0001H80.0001V16.6667Z" fill="#676633"/>
<path d="M83.3333 16.6667H80V20.0001H83.3333V16.6667Z" fill="#676633"/>
<path d="M86.6666 16.6667H83.3333V20.0001H86.6666V16.6667Z" fill="#676633"/>
<path d="M90.0001 16.6667H86.6667V20.0001H90.0001V16.6667Z" fill="#676633"/>
<path d="M93.3333 16.6667H90V20.0001H93.3333V16.6667Z" fill="#676633"/>
<path d="M96.6666 16.6667H93.3333V20.0001H96.6666V16.6667Z" fill="#676633"/>
<path d="M100 16.6667H96.6667V20.0001H100V16.6667Z" fill="#676633"/>
<path d="M3.33333 20H0V23.3333H3.33333V20Z" fill="#676633"/>
<path d="M6.66659 20H3.33325V23.3333H6.66659V20Z" fill="#676633"/>
<path d="M10.0001 20H6.66675V23.3333H10.0001V20Z" fill="#676633"/>
<path d="M13.3333 20H10V23.3333H13.3333V20Z" fill="#676633"/>
<path d="M16.6666 20H13.3333V23.3333H16.6666V20Z" fill="#676633"/>
<path d="M20.0001 20H16.6667V23.3333H20.0001V20Z" fill="#676633"/>
<path d="M23.3333 20H20V23.3333H23.3333V20Z" fill="#676633"/>
<path d="M26.6666 20H23.3333V23.3333H26.6666V20Z" fill="#676633"/>
<path d="M30.0001 20H26.6667V23.3333H30.0001V20Z" fill="#676633"/>
<path d="M33.3333 20H30V23.3333H33.3333V20Z" fill="#676633"/>
<path d="M36.6666 20H33.3333V23.3333H36.6666V20Z" fill="#676633"/>
<path d="M40.0001 20H36.6667V23.3333H40.0001V20Z" fill="#060608"/>
<path d="M43.3333 20H40V23.3333H43.3333V20Z" fill="#060608"/>
<path d="M46.6666 20H43.3333V23.3333H46.6666V20Z" fill="#676633"/>
<path d="M50.0001 20H46.6667V23.3333H50.0001V20Z" fill="#676633"/>
<path d="M53.3333 20H50V23.3333H53.3333V20Z" fill="#676633"/>
<path d="M56.6666 20H53.3333V23.3333H56.6666V20Z" fill="#676633"/>
<path d="M60.0001 20H56.6667V23.3333H60.0001V20Z" fill="#676633"/>
<path d="M63.3333 20H60V23.3333H63.3333V20Z" fill="#676633"/>
<path d="M66.6666 20H63.3333V23.3333H66.6666V20Z" fill="#676633"/>
<path d="M70.0001 20H66.6667V23.3333H70.0001V20Z" fill="#676633"/>
<path d="M73.3333 20H70V23.3333H73.3333V20Z" fill="#676633"/>
<path d="M76.6666 20H73.3333V23.3333H76.6666V20Z" fill="#676633"/>
<path d="M80.0001 20H76.6667V23.3333H80.0001V20Z" fill="#676633"/>
<path d="M83.3333 20H80V23.3333H83.3333V20Z" fill="#676633"/>
<path d="M86.6666 20H83.3333V23.3333H86.6666V20Z" fill="#676633"/>
<path d="M90.0001 20H86.6667V23.3333H90.0001V20Z" fill="#676633"/>
<path d="M93.3333 20H90V23.3333H93.3333V20Z" fill="#676633"/>
<path d="M96.6666 20H93.3333V23.3333H96.6666V20Z" fill="#676633"/>
<path d="M100 20H96.6667V23.3333H100V20Z" fill="#676633"/>
<path d="M3.33333 23.3333H0V26.6666H3.33333V23.3333Z" fill="#676633"/>
<path d="M6.66659 23.3333H3.33325V26.6666H6.66659V23.3333Z" fill="#676633"/>
<path d="M10.0001 23.3333H6.66675V26.6666H10.0001V23.3333Z" fill="#676633"/>
<path d="M13.3333 23.3333H10V26.6666H13.3333V23.3333Z" fill="#676633"/>
<path d="M16.6666 23.3333H13.3333V26.6666H16.6666V23.3333Z" fill="#676633"/>
<path d="M20.0001 23.3333H16.6667V26.6666H20.0001V23.3333Z" fill="#676633"/>
<path d="M23.3333 23.3333H20V26.6666H23.3333V23.3333Z" fill="#676633"/>
<path d="M26.6666 23.3333H23.3333V26.6666H26.6666V23.3333Z" fill="#676633"/>
<path d="M30.0001 23.3333H26.6667V26.6666H30.0001V23.3333Z" fill="#676633"/>
<path d="M33.3333 23.3333H30V26.6666H33.3333V23.3333Z" fill="#676633"/>
<path d="M36.6666 23.3333H33.3333V26.6666H36.6666V23.3333Z" fill="#676633"/>
<path d="M40.0001 23.3333H36.6667V26.6666H40.0001V23.3333Z" fill="#060608"/>
<path d="M43.3333 23.3333H40V26.6666H43.3333V23.3333Z" fill="#D5E04B"/>
<path d="M46.6666 23.3333H43.3333V26.6666H46.6666V23.3333Z" fill="#060608"/>
<path d="M50.0001 23.3333H46.6667V26.6666H50.0001V23.3333Z" fill="#676633"/>
<path d="M53.3333 23.3333H50V26.6666H53.3333V23.3333Z" fill="#676633"/>
<path d="M56.6666 23.3333H53.3333V26.6666H56.6666V23.3333Z" fill="#676633"/>
<path d="M60.0001 23.3333H56.6667V26.6666H60.0001V23.3333Z" fill="#676633"/>
<path d="M63.3333 23.3333H60V26.6666H63.3333V23.3333Z" fill="#676633"/>
<path d="M66.6666 23.3333H63.3333V26.6666H66.6666V23.3333Z" fill="#676633"/>
<path d="M70.0001 23.3333H66.6667V26.6666H70.0001V23.3333Z" fill="#676633"/>
<path d="M73.3333 23.3333H70V26.6666H73.3333V23.3333Z" fill="#676633"/>
<path d="M76.6666 23.3333H73.3333V26.6666H76.6666V23.3333Z" fill="#676633"/>
<path d="M80.0001 23.3333H76.6667V26.6666H80.0001V23.3333Z" fill="#676633"/>
<path d="M83.3333 23.3333H80V26.6666H83.3333V23.3333Z" fill="#676633"/>
<path d="M86.6666 23.3333H83.3333V26.6666H86.6666V23.3333Z" fill="#676633"/>
<path d="M90.0001 23.3333H86.6667V26.6666H90.0001V23.3333Z" fill="#676633"/>
<path d="M93.3333 23.3333H90V26.6666H93.3333V23.3333Z" fill="#676633"/>
<path d="M96.6666 23.3333H93.3333V26.6666H96.6666V23.3333Z" fill="#676633"/>
<path d="M100 23.3333H96.6667V26.6666H100V23.3333Z" fill="#676633"/>
<path d="M3.33333 26.6667H0V30.0001H3.33333V26.6667Z" fill="#676633"/>
<path d="M6.66659 26.6667H3.33325V30.0001H6.66659V26.6667Z" fill="#676633"/>
<path d="M10.0001 26.6667H6.66675V30.0001H10.0001V26.6667Z" fill="#676633"/>
<path d="M13.3333 26.6667H10V30.0001H13.3333V26.6667Z" fill="#676633"/>
<path d="M16.6666 26.6667H13.3333V30.0001H16.6666V26.6667Z" fill="#676633"/>
<path d="M20.0001 26.6667H16.6667V30.0001H20.0001V26.6667Z" fill="#676633"/>
<path d="M23.3333 26.6667H20V30.0001H23.3333V26.6667Z" fill="#676633"/>
<path d="M26.6666 26.6667H23.3333V30.0001H26.6666V26.6667Z" fill="#676633"/>
<path d="M30.0001 26.6667H26.6667V30.0001H30.0001V26.6667Z" fill="#676633"/>
<path d="M33.3333 26.6667H30V30.0001H33.3333V26.6667Z" fill="#676633"/>
<path d="M36.6666 26.6667H33.3333V30.0001H36.6666V26.6667Z" fill="#676633"/>
<path d="M40.0001 26.6667H36.6667V30.0001H40.0001V26.6667Z" fill="#060608"/>
<path d="M43.3333 26.6667H40V30.0001H43.3333V26.6667Z" fill="#D5E04B"/>
<path d="M46.6666 26.6667H43.3333V30.0001H46.6666V26.6667Z" fill="#D5E04B"/>
<path d="M50.0001 26.6667H46.6667V30.0001H50.0001V26.6667Z" fill="#060608"/>
<path d="M53.3333 26.6667H50V30.0001H53.3333V26.6667Z" fill="#676633"/>
<path d="M56.6666 26.6667H53.3333V30.0001H56.6666V26.6667Z" fill="#676633"/>
<path d="M60.0001 26.6667H56.6667V30.0001H60.0001V26.6667Z" fill="#676633"/>
<path d="M63.3333 26.6667H60V30.0001H63.3333V26.6667Z" fill="#676633"/>
<path d="M66.6666 26.6667H63.3333V30.0001H66.6666V26.6667Z" fill="#676633"/>
<path d="M70.0001 26.6667H66.6667V30.0001H70.0001V26.6667Z" fill="#676633"/>
<path d="M73.3333 26.6667H70V30.0001H73.3333V26.6667Z" fill="#676633"/>
<path d="M76.6666 26.6667H73.3333V30.0001H76.6666V26.6667Z" fill="#676633"/>
<path d="M80.0001 26.6667H76.6667V30.0001H80.0001V26.6667Z" fill="#676633"/>
<path d="M83.3333 26.6667H80V30.0001H83.3333V26.6667Z" fill="#676633"/>
<path d="M86.6666 26.6667H83.3333V30.0001H86.6666V26.6667Z" fill="#676633"/>
<path d="M90.0001 26.6667H86.6667V30.0001H90.0001V26.6667Z" fill="#676633"/>
<path d="M93.3333 26.6667H90V30.0001H93.3333V26.6667Z" fill="#676633"/>
<path d="M96.6666 26.6667H93.3333V30.0001H96.6666V26.6667Z" fill="#676633"/>
<path d="M100 26.6667H96.6667V30.0001H100V26.6667Z" fill="#676633"/>
<path d="M3.33333 30H0V33.3333H3.33333V30Z" fill="#676633"/>
<path d="M6.66659 30H3.33325V33.3333H6.66659V30Z" fill="#676633"/>
<path d="M10.0001 30H6.66675V33.3333H10.0001V30Z" fill="#676633"/>
<path d="M13.3333 30H10V33.3333H13.3333V30Z" fill="#676633"/>
<path d="M16.6666 30H13.3333V33.3333H16.6666V30Z" fill="#676633"/>
<path d="M20.0001 30H16.6667V33.3333H20.0001V30Z" fill="#676633"/>
<path d="M23.3333 30H20V33.3333H23.3333V30Z" fill="#676633"/>
<path d="M26.6666 30H23.3333V33.3333H26.6666V30Z" fill="#676633"/>
<path d="M30.0001 30H26.6667V33.3333H30.0001V30Z" fill="#676633"/>
<path d="M33.3333 30H30V33.3333H33.3333V30Z" fill="#676633"/>
<path d="M36.6666 30H33.3333V33.3333H36.6666V30Z" fill="#676633"/>
<path d="M40.0001 30H36.6667V33.3333H40.0001V30Z" fill="#060608"/>
<path d="M43.3333 30H40V33.3333H43.3333V30Z" fill="#D5E04B"/>
<path d="M46.6666 30H43.3333V33.3333H46.6666V30Z" fill="#D5E04B"/>
<path d="M50.0001 30H46.6667V33.3333H50.0001V30Z" fill="#D5E04B"/>
<path d="M53.3333 30H50V33.3333H53.3333V30Z" fill="#060608"/>
<path d="M56.6666 30H53.3333V33.3333H56.6666V30Z" fill="#676633"/>
<path d="M60.0001 30H56.6667V33.3333H60.0001V30Z" fill="#676633"/>
<path d="M63.3333 30H60V33.3333H63.3333V30Z" fill="#676633"/>
<path d="M66.6666 30H63.3333V33.3333H66.6666V30Z" fill="#676633"/>
<path d="M70.0001 30H66.6667V33.3333H70.0001V30Z" fill="#676633"/>
<path d="M73.3333 30H70V33.3333H73.3333V30Z" fill="#676633"/>
<path d="M76.6666 30H73.3333V33.3333H76.6666V30Z" fill="#676633"/>
<path d="M80.0001 30H76.6667V33.3333H80.0001V30Z" fill="#676633"/>
<path d="M83.3333 30H80V33.3333H83.3333V30Z" fill="#676633"/>
<path d="M86.6666 30H83.3333V33.3333H86.6666V30Z" fill="#676633"/>
<path d="M90.0001 30H86.6667V33.3333H90.0001V30Z" fill="#676633"/>
<path d="M93.3333 30H90V33.3333H93.3333V30Z" fill="#676633"/>
<path d="M96.6666 30H93.3333V33.3333H96.6666V30Z" fill="#676633"/>
<path d="M100 30H96.6667V33.3333H100V30Z" fill="#676633"/>
<path d="M3.33333 33.3333H0V36.6666H3.33333V33.3333Z" fill="#676633"/>
<path d="M6.66659 33.3333H3.33325V36.6666H6.66659V33.3333Z" fill="#676633"/>
<path d="M10.0001 33.3333H6.66675V36.6666H10.0001V33.3333Z" fill="#676633"/>
<path d="M13.3333 33.3333H10V36.6666H13.3333V33.3333Z" fill="#676633"/>
<path d="M16.6666 33.3333H13.3333V36.6666H16.6666V33.3333Z" fill="#676633"/>
<path d="M20.0001 33.3333H16.6667V36.6666H20.0001V33.3333Z" fill="#676633"/>
<path d="M23.3333 33.3333H20V36.6666H23.3333V33.3333Z" fill="#676633"/>
<path d="M26.6666 33.3333H23.3333V36.6666H26.6666V33.3333Z" fill="#676633"/>
<path d="M30.0001 33.3333H26.6667V36.6666H30.0001V33.3333Z" fill="#676633"/>
<path d="M33.3333 33.3333H30V36.6666H33.3333V33.3333Z" fill="#676633"/>
<path d="M36.6666 33.3333H33.3333V36.6666H36.6666V33.3333Z" fill="#676633"/>
<path d="M40.0001 33.3333H36.6667V36.6666H40.0001V33.3333Z" fill="#060608"/>
<path d="M43.3333 33.3333H40V36.6666H43.3333V33.3333Z" fill="#D5E04B"/>
<path d="M46.6666 33.3333H43.3333V36.6666H46.6666V33.3333Z" fill="#D5E04B"/>
<path d="M50.0001 33.3333H46.6667V36.6666H50.0001V33.3333Z" fill="#D5E04B"/>
<path d="M53.3333 33.3333H50V36.6666H53.3333V33.3333Z" fill="#D5E04B"/>
<path d="M56.6666 33.3333H53.3333V36.6666H56.6666V33.3333Z" fill="#060608"/>
<path d="M60.0001 33.3333H56.6667V36.6666H60.0001V33.3333Z" fill="#676633"/>
<path d="M63.3333 33.3333H60V36.6666H63.3333V33.3333Z" fill="#676633"/>
<path d="M66.6666 33.3333H63.3333V36.6666H66.6666V33.3333Z" fill="#676633"/>
<path d="M70.0001 33.3333H66.6667V36.6666H70.0001V33.3333Z" fill="#676633"/>
<path d="M73.3333 33.3333H70V36.6666H73.3333V33.3333Z" fill="#676633"/>
<path d="M76.6666 33.3333H73.3333V36.6666H76.6666V33.3333Z" fill="#676633"/>
<path d="M80.0001 33.3333H76.6667V36.6666H80.0001V33.3333Z" fill="#676633"/>
<path d="M83.3333 33.3333H80V36.6666H83.3333V33.3333Z" fill="#676633"/>
<path d="M86.6666 33.3333H83.3333V36.6666H86.6666V33.3333Z" fill="#676633"/>
<path d="M90.0001 33.3333H86.6667V36.6666H90.0001V33.3333Z" fill="#676633"/>
<path d="M93.3333 33.3333H90V36.6666H93.3333V33.3333Z" fill="#676633"/>
<path d="M96.6666 33.3333H93.3333V36.6666H96.6666V33.3333Z" fill="#676633"/>
<path d="M100 33.3333H96.6667V36.6666H100V33.3333Z" fill="#676633"/>
<path d="M3.33333 36.6667H0V40.0001H3.33333V36.6667Z" fill="#676633"/>
<path d="M6.66659 36.6667H3.33325V40.0001H6.66659V36.6667Z" fill="#676633"/>
<path d="M10.0001 36.6667H6.66675V40.0001H10.0001V36.6667Z" fill="#676633"/>
<path d="M13.3333 36.6667H10V40.0001H13.3333V36.6667Z" fill="#676633"/>
<path d="M16.6666 36.6667H13.3333V40.0001H16.6666V36.6667Z" fill="#676633"/>
<path d="M20.0001 36.6667H16.6667V40.0001H20.0001V36.6667Z" fill="#676633"/>
<path d="M23.3333 36.6667H20V40.0001H23.3333V36.6667Z" fill="#676633"/>
<path d="M26.6666 36.6667H23.3333V40.0001H26.6666V36.6667Z" fill="#676633"/>
<path d="M30.0001 36.6667H26.6667V40.0001H30.0001V36.6667Z" fill="#676633"/>
<path d="M33.3333 36.6667H30V40.0001H33.3333V36.6667Z" fill="#676633"/>
<path d="M36.6666 36.6667H33.3333V40.0001H36.6666V36.6667Z" fill="#676633"/>
<path d="M40.0001 36.6667H36.6667V40.0001H40.0001V36.6667Z" fill="#060608"/>
<path d="M43.3333 36.6667H40V40.0001H43.3333V36.6667Z" fill="#D5E04B"/>
<path d="M46.6666 36.6667H43.3333V40.0001H46.6666V36.6667Z" fill="#D5E04B"/>
<path d="M50.0001 36.6667H46.6667V40.0001H50.0001V36.6667Z" fill="#D5E04B"/>
<path d="M53.3333 36.6667H50V40.0001H53.3333V36.6667Z" fill="#D5E04B"/>
<path d="M56.6666 36.6667H53.3333V40.0001H56.6666V36.6667Z" fill="#D5E04B"/>
<path d="M60.0001 36.6667H56.6667V40.0001H60.0001V36.6667Z" fill="#060608"/>
<path d="M63.3333 36.6667H60V40.0001H63.3333V36.6667Z" fill="#676633"/>
<path d="M66.6666 36.6667H63.3333V40.0001H66.6666V36.6667Z" fill="#676633"/>
<path d="M70.0001 36.6667H66.6667V40.0001H70.0001V36.6667Z" fill="#676633"/>
<path d="M73.3333 36.6667H70V40.0001H73.3333V36.6667Z" fill="#676633"/>
<path d="M76.6666 36.6667H73.3333V40.0001H76.6666V36.6667Z" fill="#676633"/>
<path d="M80.0001 36.6667H76.6667V40.0001H80.0001V36.6667Z" fill="#676633"/>
<path d="M83.3333 36.6667H80V40.0001H83.3333V36.6667Z" fill="#676633"/>
<path d="M86.6666 36.6667H83.3333V40.0001H86.6666V36.6667Z" fill="#676633"/>
<path d="M90.0001 36.6667H86.6667V40.0001H90.0001V36.6667Z" fill="#676633"/>
<path d="M93.3333 36.6667H90V40.0001H93.3333V36.6667Z" fill="#676633"/>
<path d="M96.6666 36.6667H93.3333V40.0001H96.6666V36.6667Z" fill="#676633"/>
<path d="M100 36.6667H96.6667V40.0001H100V36.6667Z" fill="#676633"/>
<path d="M3.33333 40H0V43.3333H3.33333V40Z" fill="#676633"/>
<path d="M6.66659 40H3.33325V43.3333H6.66659V40Z" fill="#676633"/>
<path d="M10.0001 40H6.66675V43.3333H10.0001V40Z" fill="#676633"/>
<path d="M13.3333 40H10V43.3333H13.3333V40Z" fill="#676633"/>
<path d="M16.6666 40H13.3333V43.3333H16.6666V40Z" fill="#676633"/>
<path d="M20.0001 40H16.6667V43.3333H20.0001V40Z" fill="#676633"/>
<path d="M23.3333 40H20V43.3333H23.3333V40Z" fill="#676633"/>
<path d="M26.6666 40H23.3333V43.3333H26.6666V40Z" fill="#676633"/>
<path d="M30.0001 40H26.6667V43.3333H30.0001V40Z" fill="#676633"/>
<path d="M33.3333 40H30V43.3333H33.3333V40Z" fill="#676633"/>
<path d="M36.6666 40H33.3333V43.3333H36.6666V40Z" fill="#676633"/>
<path d="M40.0001 40H36.6667V43.3333H40.0001V40Z" fill="#060608"/>
<path d="M43.3333 40H40V43.3333H43.3333V40Z" fill="#D5E04B"/>
<path d="M46.6666 40H43.3333V43.3333H46.6666V40Z" fill="#D5E04B"/>
<path d="M50.0001 40H46.6667V43.3333H50.0001V40Z" fill="#D5E04B"/>
<path d="M53.3333 40H50V43.3333H53.3333V40Z" fill="#D5E04B"/>
<path d="M56.6666 40H53.3333V43.3333H56.6666V40Z" fill="#D5E04B"/>
<path d="M60.0001 40H56.6667V43.3333H60.0001V40Z" fill="#D5E04B"/>
<path d="M63.3333 40H60V43.3333H63.3333V40Z" fill="#060608"/>
<path d="M66.6666 40H63.3333V43.3333H66.6666V40Z" fill="#676633"/>
<path d="M70.0001 40H66.6667V43.3333H70.0001V40Z" fill="#676633"/>
<path d="M73.3333 40H70V43.3333H73.3333V40Z" fill="#676633"/>
<path d="M76.6666 40H73.3333V43.3333H76.6666V40Z" fill="#676633"/>
<path d="M80.0001 40H76.6667V43.3333H80.0001V40Z" fill="#676633"/>
<path d="M83.3333 40H80V43.3333H83.3333V40Z" fill="#676633"/>
<path d="M86.6666 40H83.3333V43.3333H86.6666V40Z" fill="#676633"/>
<path d="M90.0001 40H86.6667V43.3333H90.0001V40Z" fill="#676633"/>
<path d="M93.3333 40H90V43.3333H93.3333V40Z" fill="#676633"/>
<path d="M96.6666 40H93.3333V43.3333H96.6666V40Z" fill="#676633"/>
<path d="M100 40H96.6667V43.3333H100V40Z" fill="#676633"/>
<path d="M3.33333 43.3333H0V46.6666H3.33333V43.3333Z" fill="#676633"/>
<path d="M6.66659 43.3333H3.33325V46.6666H6.66659V43.3333Z" fill="#676633"/>
<path d="M10.0001 43.3333H6.66675V46.6666H10.0001V43.3333Z" fill="#676633"/>
<path d="M13.3333 43.3333H10V46.6666H13.3333V43.3333Z" fill="#676633"/>
<path d="M16.6666 43.3333H13.3333V46.6666H16.6666V43.3333Z" fill="#676633"/>
<path d="M20.0001 43.3333H16.6667V46.6666H20.0001V43.3333Z" fill="#676633"/>
<path d="M23.3333 43.3333H20V46.6666H23.3333V43.3333Z" fill="#676633"/>
<path d="M26.6666 43.3333H23.3333V46.6666H26.6666V43.3333Z" fill="#676633"/>
<path d="M30.0001 43.3333H26.6667V46.6666H30.0001V43.3333Z" fill="#676633"/>
<path d="M33.3333 43.3333H30V46.6666H33.3333V43.3333Z" fill="#676633"/>
<path d="M36.6666 43.3333H33.3333V46.6666H36.6666V43.3333Z" fill="#676633"/>
<path d="M40.0001 43.3333H36.6667V46.6666H40.0001V43.3333Z" fill="#060608"/>
<path d="M43.3333 43.3333H40V46.6666H43.3333V43.3333Z" fill="#D5E04B"/>
<path d="M46.6666 43.3333H43.3333V46.6666H46.6666V43.3333Z" fill="#D5E04B"/>
<path d="M50.0001 43.3333H46.6667V46.6666H50.0001V43.3333Z" fill="#D5E04B"/>
<path d="M53.3333 43.3333H50V46.6666H53.3333V43.3333Z" fill="#D5E04B"/>
<path d="M56.6666 43.3333H53.3333V46.6666H56.6666V43.3333Z" fill="#D5E04B"/>
<path d="M60.0001 43.3333H56.6667V46.6666H60.0001V43.3333Z" fill="#D5E04B"/>
<path d="M63.3333 43.3333H60V46.6666H63.3333V43.3333Z" fill="#D5E04B"/>
<path d="M66.6666 43.3333H63.3333V46.6666H66.6666V43.3333Z" fill="#060608"/>
<path d="M70.0001 43.3333H66.6667V46.6666H70.0001V43.3333Z" fill="#676633"/>
<path d="M73.3333 43.3333H70V46.6666H73.3333V43.3333Z" fill="#676633"/>
<path d="M76.6666 43.3333H73.3333V46.6666H76.6666V43.3333Z" fill="#676633"/>
<path d="M80.0001 43.3333H76.6667V46.6666H80.0001V43.3333Z" fill="#676633"/>
<path d="M83.3333 43.3333H80V46.6666H83.3333V43.3333Z" fill="#676633"/>
<path d="M86.6666 43.3333H83.3333V46.6666H86.6666V43.3333Z" fill="#676633"/>
<path d="M90.0001 43.3333H86.6667V46.6666H90.0001V43.3333Z" fill="#676633"/>
<path d="M93.3333 43.3333H90V46.6666H93.3333V43.3333Z" fill="#676633"/>
<path d="M96.6666 43.3333H93.3333V46.6666H96.6666V43.3333Z" fill="#676633"/>
<path d="M100 43.3333H96.6667V46.6666H100V43.3333Z" fill="#676633"/>
<path d="M3.33333 46.6667H0V50.0001H3.33333V46.6667Z" fill="#676633"/>
<path d="M6.66659 46.6667H3.33325V50.0001H6.66659V46.6667Z" fill="#676633"/>
<path d="M10.0001 46.6667H6.66675V50.0001H10.0001V46.6667Z" fill="#676633"/>
<path d="M13.3333 46.6667H10V50.0001H13.3333V46.6667Z" fill="#676633"/>
<path d="M16.6666 46.6667H13.3333V50.0001H16.6666V46.6667Z" fill="#676633"/>
<path d="M20.0001 46.6667H16.6667V50.0001H20.0001V46.6667Z" fill="#676633"/>
<path d="M23.3333 46.6667H20V50.0001H23.3333V46.6667Z" fill="#676633"/>
<path d="M26.6666 46.6667H23.3333V50.0001H26.6666V46.6667Z" fill="#676633"/>
<path d="M30.0001 46.6667H26.6667V50.0001H30.0001V46.6667Z" fill="#676633"/>
<path d="M33.3333 46.6667H30V50.0001H33.3333V46.6667Z" fill="#676633"/>
<path d="M36.6666 46.6667H33.3333V50.0001H36.6666V46.6667Z" fill="#676633"/>
<path d="M40.0001 46.6667H36.6667V50.0001H40.0001V46.6667Z" fill="#060608"/>
<path d="M43.3333 46.6667H40V50.0001H43.3333V46.6667Z" fill="#D5E04B"/>
<path d="M46.6666 46.6667H43.3333V50.0001H46.6666V46.6667Z" fill="#D5E04B"/>
<path d="M50.0001 46.6667H46.6667V50.0001H50.0001V46.6667Z" fill="#D5E04B"/>
<path d="M53.3333 46.6667H50V50.0001H53.3333V46.6667Z" fill="#D5E04B"/>
<path d="M56.6666 46.6667H53.3333V50.0001H56.6666V46.6667Z" fill="#D5E04B"/>
<path d="M60.0001 46.6667H56.6667V50.0001H60.0001V46.6667Z" fill="#D5E04B"/>
<path d="M63.3333 46.6667H60V50.0001H63.3333V46.6667Z" fill="#D5E04B"/>
<path d="M66.6666 46.6667H63.3333V50.0001H66.6666V46.6667Z" fill="#D5E04B"/>
<path d="M70.0001 46.6667H66.6667V50.0001H70.0001V46.6667Z" fill="#060608"/>
<path d="M73.3333 46.6667H70V50.0001H73.3333V46.6667Z" fill="#676633"/>
<path d="M76.6666 46.6667H73.3333V50.0001H76.6666V46.6667Z" fill="#676633"/>
<path d="M80.0001 46.6667H76.6667V50.0001H80.0001V46.6667Z" fill="#676633"/>
<path d="M83.3333 46.6667H80V50.0001H83.3333V46.6667Z" fill="#676633"/>
<path d="M86.6666 46.6667H83.3333V50.0001H86.6666V46.6667Z" fill="#676633"/>
<path d="M90.0001 46.6667H86.6667V50.0001H90.0001V46.6667Z" fill="#676633"/>
<path d="M93.3333 46.6667H90V50.0001H93.3333V46.6667Z" fill="#676633"/>
<path d="M96.6666 46.6667H93.3333V50.0001H96.6666V46.6667Z" fill="#676633"/>
<path d="M100 46.6667H96.6667V50.0001H100V46.6667Z" fill="#676633"/>
<path d="M3.33333 50H0V53.3333H3.33333V50Z" fill="#676633"/>
<path d="M6.66659 50H3.33325V53.3333H6.66659V50Z" fill="#676633"/>
<path d="M10.0001 50H6.66675V53.3333H10.0001V50Z" fill="#676633"/>
<path d="M13.3333 50H10V53.3333H13.3333V50Z" fill="#676633"/>
<path d="M16.6666 50H13.3333V53.3333H16.6666V50Z" fill="#676633"/>
<path d="M20.0001 50H16.6667V53.3333H20.0001V50Z" fill="#676633"/>
<path d="M23.3333 50H20V53.3333H23.3333V50Z" fill="#676633"/>
<path d="M26.6666 50H23.3333V53.3333H26.6666V50Z" fill="#676633"/>
<path d="M30.0001 50H26.6667V53.3333H30.0001V50Z" fill="#676633"/>
<path d="M33.3333 50H30V53.3333H33.3333V50Z" fill="#676633"/>
<path d="M36.6666 50H33.3333V53.3333H36.6666V50Z" fill="#676633"/>
<path d="M40.0001 50H36.6667V53.3333H40.0001V50Z" fill="#060608"/>
<path d="M43.3333 50H40V53.3333H43.3333V50Z" fill="#D5E04B"/>
<path d="M46.6666 50H43.3333V53.3333H46.6666V50Z" fill="#D5E04B"/>
<path d="M50.0001 50H46.6667V53.3333H50.0001V50Z" fill="#D5E04B"/>
<path d="M53.3333 50H50V53.3333H53.3333V50Z" fill="#D5E04B"/>
<path d="M56.6666 50H53.3333V53.3333H56.6666V50Z" fill="#D5E04B"/>
<path d="M60.0001 50H56.6667V53.3333H60.0001V50Z" fill="#D5E04B"/>
<path d="M63.3333 50H60V53.3333H63.3333V50Z" fill="#D5E04B"/>
<path d="M66.6666 50H63.3333V53.3333H66.6666V50Z" fill="#D5E04B"/>
<path d="M70.0001 50H66.6667V53.3333H70.0001V50Z" fill="#D5E04B"/>
<path d="M73.3333 50H70V53.3333H73.3333V50Z" fill="#060608"/>
<path d="M76.6666 50H73.3333V53.3333H76.6666V50Z" fill="#676633"/>
<path d="M80.0001 50H76.6667V53.3333H80.0001V50Z" fill="#676633"/>
<path d="M83.3333 50H80V53.3333H83.3333V50Z" fill="#676633"/>
<path d="M86.6666 50H83.3333V53.3333H86.6666V50Z" fill="#676633"/>
<path d="M90.0001 50H86.6667V53.3333H90.0001V50Z" fill="#676633"/>
<path d="M93.3333 50H90V53.3333H93.3333V50Z" fill="#676633"/>
<path d="M96.6666 50H93.3333V53.3333H96.6666V50Z" fill="#676633"/>
<path d="M100 50H96.6667V53.3333H100V50Z" fill="#676633"/>
<path d="M3.33333 53.3333H0V56.6666H3.33333V53.3333Z" fill="#676633"/>
<path d="M6.66659 53.3333H3.33325V56.6666H6.66659V53.3333Z" fill="#676633"/>
<path d="M10.0001 53.3333H6.66675V56.6666H10.0001V53.3333Z" fill="#676633"/>
<path d="M13.3333 53.3333H10V56.6666H13.3333V53.3333Z" fill="#676633"/>
<path d="M16.6666 53.3333H13.3333V56.6666H16.6666V53.3333Z" fill="#676633"/>
<path d="M20.0001 53.3333H16.6667V56.6666H20.0001V53.3333Z" fill="#676633"/>
<path d="M23.3333 53.3333H20V56.6666H23.3333V53.3333Z" fill="#676633"/>
<path d="M26.6666 53.3333H23.3333V56.6666H26.6666V53.3333Z" fill="#676633"/>
<path d="M30.0001 53.3333H26.6667V56.6666H30.0001V53.3333Z" fill="#676633"/>
<path d="M33.3333 53.3333H30V56.6666H33.3333V53.3333Z" fill="#676633"/>
<path d="M36.6666 53.3333H33.3333V56.6666H36.6666V53.3333Z" fill="#676633"/>
<path d="M40.0001 53.3333H36.6667V56.6666H40.0001V53.3333Z" fill="#060608"/>
<path d="M43.3333 53.3333H40V56.6666H43.3333V53.3333Z" fill="#D5E04B"/>
<path d="M46.6666 53.3333H43.3333V56.6666H46.6666V53.3333Z" fill="#D5E04B"/>
<path d="M50.0001 53.3333H46.6667V56.6666H50.0001V53.3333Z" fill="#D5E04B"/>
<path d="M53.3333 53.3333H50V56.6666H53.3333V53.3333Z" fill="#D5E04B"/>
<path d="M56.6666 53.3333H53.3333V56.6666H56.6666V53.3333Z" fill="#D5E04B"/>
<path d="M60.0001 53.3333H56.6667V56.6666H60.0001V53.3333Z" fill="#D5E04B"/>
<path d="M63.3333 53.3333H60V56.6666H63.3333V53.3333Z" fill="#D5E04B"/>
<path d="M66.6666 53.3333H63.3333V56.6666H66.6666V53.3333Z" fill="#D5E04B"/>
<path d="M70.0001 53.3333H66.6667V56.6666H70.0001V53.3333Z" fill="#D5E04B"/>
<path d="M73.3333 53.3333H70V56.6666H73.3333V53.3333Z" fill="#D5E04B"/>
<path d="M76.6666 53.3333H73.3333V56.6666H76.6666V53.3333Z" fill="#060608"/>
<path d="M80.0001 53.3333H76.6667V56.6666H80.0001V53.3333Z" fill="#676633"/>
<path d="M83.3333 53.3333H80V56.6666H83.3333V53.3333Z" fill="#676633"/>
<path d="M86.6666 53.3333H83.3333V56.6666H86.6666V53.3333Z" fill="#676633"/>
<path d="M90.0001 53.3333H86.6667V56.6666H90.0001V53.3333Z" fill="#676633"/>
<path d="M93.3333 53.3333H90V56.6666H93.3333V53.3333Z" fill="#676633"/>
<path d="M96.6666 53.3333H93.3333V56.6666H96.6666V53.3333Z" fill="#676633"/>
<path d="M100 53.3333H96.6667V56.6666H100V53.3333Z" fill="#676633"/>
<path d="M3.33333 56.6667H0V60.0001H3.33333V56.6667Z" fill="#676633"/>
<path d="M6.66659 56.6667H3.33325V60.0001H6.66659V56.6667Z" fill="#676633"/>
<path d="M10.0001 56.6667H6.66675V60.0001H10.0001V56.6667Z" fill="#676633"/>
<path d="M13.3333 56.6667H10V60.0001H13.3333V56.6667Z" fill="#676633"/>
<path d="M16.6666 56.6667H13.3333V60.0001H16.6666V56.6667Z" fill="#676633"/>
<path d="M20.0001 56.6667H16.6667V60.0001H20.0001V56.6667Z" fill="#676633"/>
<path d="M23.3333 56.6667H20V60.0001H23.3333V56.6667Z" fill="#676633"/>
<path d="M26.6666 56.6667H23.3333V60.0001H26.6666V56.6667Z" fill="#676633"/>
<path d="M30.0001 56.6667H26.6667V60.0001H30.0001V56.6667Z" fill="#676633"/>
<path d="M33.3333 56.6667H30V60.0001H33.3333V56.6667Z" fill="#676633"/>
<path d="M36.6666 56.6667H33.3333V60.0001H36.6666V56.6667Z" fill="#676633"/>
<path d="M40.0001 56.6667H36.6667V60.0001H40.0001V56.6667Z" fill="#060608"/>
<path d="M43.3333 56.6667H40V60.0001H43.3333V56.6667Z" fill="#D5E04B"/>
<path d="M46.6666 56.6667H43.3333V60.0001H46.6666V56.6667Z" fill="#D5E04B"/>
<path d="M50.0001 56.6667H46.6667V60.0001H50.0001V56.6667Z" fill="#D5E04B"/>
<path d="M53.3333 56.6667H50V60.0001H53.3333V56.6667Z" fill="#D5E04B"/>
<path d="M56.6666 56.6667H53.3333V60.0001H56.6666V56.6667Z" fill="#D5E04B"/>
<path d="M60.0001 56.6667H56.6667V60.0001H60.0001V56.6667Z" fill="#D5E04B"/>
<path d="M63.3333 56.6667H60V60.0001H63.3333V56.6667Z" fill="#D5E04B"/>
<path d="M66.6666 56.6667H63.3333V60.0001H66.6666V56.6667Z" fill="#D5E04B"/>
<path d="M70.0001 56.6667H66.6667V60.0001H70.0001V56.6667Z" fill="#D5E04B"/>
<path d="M73.3333 56.6667H70V60.0001H73.3333V56.6667Z" fill="#D5E04B"/>
<path d="M76.6666 56.6667H73.3333V60.0001H76.6666V56.6667Z" fill="#D5E04B"/>
<path d="M80.0001 56.6667H76.6667V60.0001H80.0001V56.6667Z" fill="#060608"/>
<path d="M83.3333 56.6667H80V60.0001H83.3333V56.6667Z" fill="#676633"/>
<path d="M86.6666 56.6667H83.3333V60.0001H86.6666V56.6667Z" fill="#676633"/>
<path d="M90.0001 56.6667H86.6667V60.0001H90.0001V56.6667Z" fill="#676633"/>
<path d="M93.3333 56.6667H90V60.0001H93.3333V56.6667Z" fill="#676633"/>
<path d="M96.6666 56.6667H93.3333V60.0001H96.6666V56.6667Z" fill="#676633"/>
<path d="M100 56.6667H96.6667V60.0001H100V56.6667Z" fill="#676633"/>
<path d="M3.33333 60H0V63.3333H3.33333V60Z" fill="#676633"/>
<path d="M6.66659 60H3.33325V63.3333H6.66659V60Z" fill="#676633"/>
<path d="M10.0001 60H6.66675V63.3333H10.0001V60Z" fill="#676633"/>
<path d="M13.3333 60H10V63.3333H13.3333V60Z" fill="#676633"/>
<path d="M16.6666 60H13.3333V63.3333H16.6666V60Z" fill="#676633"/>
<path d="M20.0001 60H16.6667V63.3333H20.0001V60Z" fill="#676633"/>
<path d="M23.3333 60H20V63.3333H23.3333V60Z" fill="#676633"/>
<path d="M26.6666 60H23.3333V63.3333H26.6666V60Z" fill="#676633"/>
<path d="M30.0001 60H26.6667V63.3333H30.0001V60Z" fill="#676633"/>
<path d="M33.3333 60H30V63.3333H33.3333V60Z" fill="#676633"/>
<path d="M36.6666 60H33.3333V63.3333H36.6666V60Z" fill="#676633"/>
<path d="M40.0001 60H36.6667V63.3333H40.0001V60Z" fill="#060608"/>
<path d="M43.3333 60H40V63.3333H43.3333V60Z" fill="#D5E04B"/>
<path d="M46.6666 60H43.3333V63.3333H46.6666V60Z" fill="#D5E04B"/>
<path d="M50.0001 60H46.6667V63.3333H50.0001V60Z" fill="#D5E04B"/>
<path d="M53.3333 60H50V63.3333H53.3333V60Z" fill="#D5E04B"/>
<path d="M56.6666 60H53.3333V63.3333H56.6666V60Z" fill="#D5E04B"/>
<path d="M60.0001 60H56.6667V63.3333H60.0001V60Z" fill="#D5E04B"/>
<path d="M63.3333 60H60V63.3333H63.3333V60Z" fill="#D5E04B"/>
<path d="M66.6666 60H63.3333V63.3333H66.6666V60Z" fill="#D5E04B"/>
<path d="M70.0001 60H66.6667V63.3333H70.0001V60Z" fill="#D5E04B"/>
<path d="M73.3333 60H70V63.3333H73.3333V60Z" fill="#D5E04B"/>
<path d="M76.6666 60H73.3333V63.3333H76.6666V60Z" fill="#D5E04B"/>
<path d="M80.0001 60H76.6667V63.3333H80.0001V60Z" fill="#D5E04B"/>
<path d="M83.3333 60H80V63.3333H83.3333V60Z" fill="#060608"/>
<path d="M86.6666 60H83.3333V63.3333H86.6666V60Z" fill="#676633"/>
<path d="M90.0001 60H86.6667V63.3333H90.0001V60Z" fill="#676633"/>
<path d="M93.3333 60H90V63.3333H93.3333V60Z" fill="#676633"/>
<path d="M96.6666 60H93.3333V63.3333H96.6666V60Z" fill="#676633"/>
<path d="M100 60H96.6667V63.3333H100V60Z" fill="#676633"/>
<path d="M3.33333 63.3333H0V66.6666H3.33333V63.3333Z" fill="#676633"/>
<path d="M6.66659 63.3333H3.33325V66.6666H6.66659V63.3333Z" fill="#676633"/>
<path d="M10.0001 63.3333H6.66675V66.6666H10.0001V63.3333Z" fill="#676633"/>
<path d="M13.3333 63.3333H10V66.6666H13.3333V63.3333Z" fill="#676633"/>
<path d="M16.6666 63.3333H13.3333V66.6666H16.6666V63.3333Z" fill="#676633"/>
<path d="M20.0001 63.3333H16.6667V66.6666H20.0001V63.3333Z" fill="#676633"/>
<path d="M23.3333 63.3333H20V66.6666H23.3333V63.3333Z" fill="#676633"/>
<path d="M26.6666 63.3333H23.3333V66.6666H26.6666V63.3333Z" fill="#676633"/>
<path d="M30.0001 63.3333H26.6667V66.6666H30.0001V63.3333Z" fill="#676633"/>
<path d="M33.3333 63.3333H30V66.6666H33.3333V63.3333Z" fill="#676633"/>
<path d="M36.6666 63.3333H33.3333V66.6666H36.6666V63.3333Z" fill="#676633"/>
<path d="M40.0001 63.3333H36.6667V66.6666H40.0001V63.3333Z" fill="#060608"/>
<path d="M43.3333 63.3333H40V66.6666H43.3333V63.3333Z" fill="#D5E04B"/>
<path d="M46.6666 63.3333H43.3333V66.6666H46.6666V63.3333Z" fill="#D5E04B"/>
<path d="M50.0001 63.3333H46.6667V66.6666H50.0001V63.3333Z" fill="#D5E04B"/>
<path d="M53.3333 63.3333H50V66.6666H53.3333V63.3333Z" fill="#D5E04B"/>
<path d="M56.6666 63.3333H53.3333V66.6666H56.6666V63.3333Z" fill="#D5E04B"/>
<path d="M60.0001 63.3333H56.6667V66.6666H60.0001V63.3333Z" fill="#060608"/>
<path d="M63.3333 63.3333H60V66.6666H63.3333V63.3333Z" fill="#060608"/>
<path d="M66.6666 63.3333H63.3333V66.6666H66.6666V63.3333Z" fill="#060608"/>
<path d="M70.0001 63.3333H66.6667V66.6666H70.0001V63.3333Z" fill="#060608"/>
<path d="M73.3333 63.3333H70V66.6666H73.3333V63.3333Z" fill="#060608"/>
<path d="M76.6666 63.3333H73.3333V66.6666H76.6666V63.3333Z" fill="#060608"/>
<path d="M80.0001 63.3333H76.6667V66.6666H80.0001V63.3333Z" fill="#060608"/>
<path d="M83.3333 63.3333H80V66.6666H83.3333V63.3333Z" fill="#060608"/>
<path d="M86.6666 63.3333H83.3333V66.6666H86.6666V63.3333Z" fill="#676633"/>
<path d="M90.0001 63.3333H86.6667V66.6666H90.0001V63.3333Z" fill="#676633"/>
<path d="M93.3333 63.3333H90V66.6666H93.3333V63.3333Z" fill="#676633"/>
<path d="M96.6666 63.3333H93.3333V66.6666H96.6666V63.3333Z" fill="#676633"/>
<path d="M100 63.3333H96.6667V66.6666H100V63.3333Z" fill="#676633"/>
<path d="M3.33333 66.6667H0V70.0001H3.33333V66.6667Z" fill="#676633"/>
<path d="M6.66659 66.6667H3.33325V70.0001H6.66659V66.6667Z" fill="#676633"/>
<path d="M10.0001 66.6667H6.66675V70.0001H10.0001V66.6667Z" fill="#676633"/>
<path d="M13.3333 66.6667H10V70.0001H13.3333V66.6667Z" fill="#676633"/>
<path d="M16.6666 66.6667H13.3333V70.0001H16.6666V66.6667Z" fill="#676633"/>
<path d="M20.0001 66.6667H16.6667V70.0001H20.0001V66.6667Z" fill="#676633"/>
<path d="M23.3333 66.6667H20V70.0001H23.3333V66.6667Z" fill="#676633"/>
<path d="M26.6666 66.6667H23.3333V70.0001H26.6666V66.6667Z" fill="#676633"/>
<path d="M30.0001 66.6667H26.6667V70.0001H30.0001V66.6667Z" fill="#676633"/>
<path d="M33.3333 66.6667H30V70.0001H33.3333V66.6667Z" fill="#676633"/>
<path d="M36.6666 66.6667H33.3333V70.0001H36.6666V66.6667Z" fill="#676633"/>
<path d="M40.0001 66.6667H36.6667V70.0001H40.0001V66.6667Z" fill="#060608"/>
<path d="M43.3333 66.6667H40V70.0001H43.3333V66.6667Z" fill="#D5E04B"/>
<path d="M46.6666 66.6667H43.3333V70.0001H46.6666V66.6667Z" fill="#D5E04B"/>
<path d="M50.0001 66.6667H46.6667V70.0001H50.0001V66.6667Z" fill="#D5E04B"/>
<path d="M53.3333 66.6667H50V70.0001H53.3333V66.6667Z" fill="#D5E04B"/>
<path d="M56.6666 66.6667H53.3333V70.0001H56.6666V66.6667Z" fill="#060608"/>
<path d="M60.0001 66.6667H56.6667V70.0001H60.0001V66.6667Z" fill="#676633"/>
<path d="M63.3333 66.6667H60V70.0001H63.3333V66.6667Z" fill="#676633"/>
<path d="M66.6666 66.6667H63.3333V70.0001H66.6666V66.6667Z" fill="#676633"/>
<path d="M70.0001 66.6667H66.6667V70.0001H70.0001V66.6667Z" fill="#676633"/>
<path d="M73.3333 66.6667H70V70.0001H73.3333V66.6667Z" fill="#676633"/>
<path d="M76.6666 66.6667H73.3333V70.0001H76.6666V66.6667Z" fill="#676633"/>
<path d="M80.0001 66.6667H76.6667V70.0001H80.0001V66.6667Z" fill="#676633"/>
<path d="M83.3333 66.6667H80V70.0001H83.3333V66.6667Z" fill="#676633"/>
<path d="M86.6666 66.6667H83.3333V70.0001H86.6666V66.6667Z" fill="#676633"/>
<path d="M90.0001 66.6667H86.6667V70.0001H90.0001V66.6667Z" fill="#676633"/>
<path d="M93.3333 66.6667H90V70.0001H93.3333V66.6667Z" fill="#676633"/>
<path d="M96.6666 66.6667H93.3333V70.0001H96.6666V66.6667Z" fill="#676633"/>
<path d="M100 66.6667H96.6667V70.0001H100V66.6667Z" fill="#676633"/>
<path d="M3.33333 70H0V73.3333H3.33333V70Z" fill="#676633"/>
<path d="M6.66659 70H3.33325V73.3333H6.66659V70Z" fill="#676633"/>
<path d="M10.0001 70H6.66675V73.3333H10.0001V70Z" fill="#676633"/>
<path d="M13.3333 70H10V73.3333H13.3333V70Z" fill="#676633"/>
<path d="M16.6666 70H13.3333V73.3333H16.6666V70Z" fill="#676633"/>
<path d="M20.0001 70H16.6667V73.3333H20.0001V70Z" fill="#676633"/>
<path d="M23.3333 70H20V73.3333H23.3333V70Z" fill="#676633"/>
<path d="M26.6666 70H23.3333V73.3333H26.6666V70Z" fill="#676633"/>
<path d="M30.0001 70H26.6667V73.3333H30.0001V70Z" fill="#676633"/>
<path d="M33.3333 70H30V73.3333H33.3333V70Z" fill="#676633"/>
<path d="M36.6666 70H33.3333V73.3333H36.6666V70Z" fill="#676633"/>
<path d="M40.0001 70H36.6667V73.3333H40.0001V70Z" fill="#060608"/>
<path d="M43.3333 70H40V73.3333H43.3333V70Z" fill="#D5E04B"/>
<path d="M46.6666 70H43.3333V73.3333H46.6666V70Z" fill="#D5E04B"/>
<path d="M50.0001 70H46.6667V73.3333H50.0001V70Z" fill="#D5E04B"/>
<path d="M53.3333 70H50V73.3333H53.3333V70Z" fill="#060608"/>
<path d="M56.6666 70H53.3333V73.3333H56.6666V70Z" fill="#676633"/>
<path d="M60.0001 70H56.6667V73.3333H60.0001V70Z" fill="#676633"/>
<path d="M63.3333 70H60V73.3333H63.3333V70Z" fill="#676633"/>
<path d="M66.6666 70H63.3333V73.3333H66.6666V70Z" fill="#676633"/>
<path d="M70.0001 70H66.6667V73.3333H70.0001V70Z" fill="#676633"/>
<path d="M73.3333 70H70V73.3333H73.3333V70Z" fill="#676633"/>
<path d="M76.6666 70H73.3333V73.3333H76.6666V70Z" fill="#676633"/>
<path d="M80.0001 70H76.6667V73.3333H80.0001V70Z" fill="#676633"/>
<path d="M83.3333 70H80V73.3333H83.3333V70Z" fill="#676633"/>
<path d="M86.6666 70H83.3333V73.3333H86.6666V70Z" fill="#676633"/>
<path d="M90.0001 70H86.6667V73.3333H90.0001V70Z" fill="#676633"/>
<path d="M93.3333 70H90V73.3333H93.3333V70Z" fill="#676633"/>
<path d="M96.6666 70H93.3333V73.3333H96.6666V70Z" fill="#676633"/>
<path d="M100 70H96.6667V73.3333H100V70Z" fill="#676633"/>
<path d="M3.33333 73.3333H0V76.6666H3.33333V73.3333Z" fill="#676633"/>
<path d="M6.66659 73.3333H3.33325V76.6666H6.66659V73.3333Z" fill="#676633"/>
<path d="M10.0001 73.3333H6.66675V76.6666H10.0001V73.3333Z" fill="#676633"/>
<path d="M13.3333 73.3333H10V76.6666H13.3333V73.3333Z" fill="#676633"/>
<path d="M16.6666 73.3333H13.3333V76.6666H16.6666V73.3333Z" fill="#676633"/>
<path d="M20.0001 73.3333H16.6667V76.6666H20.0001V73.3333Z" fill="#676633"/>
<path d="M23.3333 73.3333H20V76.6666H23.3333V73.3333Z" fill="#676633"/>
<path d="M26.6666 73.3333H23.3333V76.6666H26.6666V73.3333Z" fill="#676633"/>
<path d="M30.0001 73.3333H26.6667V76.6666H30.0001V73.3333Z" fill="#676633"/>
<path d="M33.3333 73.3333H30V76.6666H33.3333V73.3333Z" fill="#676633"/>
<path d="M36.6666 73.3333H33.3333V76.6666H36.6666V73.3333Z" fill="#676633"/>
<path d="M40.0001 73.3333H36.6667V76.6666H40.0001V73.3333Z" fill="#060608"/>
<path d="M43.3333 73.3333H40V76.6666H43.3333V73.3333Z" fill="#D5E04B"/>
<path d="M46.6666 73.3333H43.3333V76.6666H46.6666V73.3333Z" fill="#D5E04B"/>
<path d="M50.0001 73.3333H46.6667V76.6666H50.0001V73.3333Z" fill="#060608"/>
<path d="M53.3333 73.3333H50V76.6666H53.3333V73.3333Z" fill="#676633"/>
<path d="M56.6666 73.3333H53.3333V76.6666H56.6666V73.3333Z" fill="#676633"/>
<path d="M60.0001 73.3333H56.6667V76.6666H60.0001V73.3333Z" fill="#676633"/>
<path d="M63.3333 73.3333H60V76.6666H63.3333V73.3333Z" fill="#676633"/>
<path d="M66.6666 73.3333H63.3333V76.6666H66.6666V73.3333Z" fill="#676633"/>
<path d="M70.0001 73.3333H66.6667V76.6666H70.0001V73.3333Z" fill="#676633"/>
<path d="M73.3333 73.3333H70V76.6666H73.3333V73.3333Z" fill="#676633"/>
<path d="M76.6666 73.3333H73.3333V76.6666H76.6666V73.3333Z" fill="#676633"/>
<path d="M80.0001 73.3333H76.6667V76.6666H80.0001V73.3333Z" fill="#676633"/>
<path d="M83.3333 73.3333H80V76.6666H83.3333V73.3333Z" fill="#676633"/>
<path d="M86.6666 73.3333H83.3333V76.6666H86.6666V73.3333Z" fill="#676633"/>
<path d="M90.0001 73.3333H86.6667V76.6666H90.0001V73.3333Z" fill="#676633"/>
<path d="M93.3333 73.3333H90V76.6666H93.3333V73.3333Z" fill="#676633"/>
<path d="M96.6666 73.3333H93.3333V76.6666H96.6666V73.3333Z" fill="#676633"/>
<path d="M100 73.3333H96.6667V76.6666H100V73.3333Z" fill="#676633"/>
<path d="M3.33333 76.6667H0V80.0001H3.33333V76.6667Z" fill="#676633"/>
<path d="M6.66659 76.6667H3.33325V80.0001H6.66659V76.6667Z" fill="#676633"/>
<path d="M10.0001 76.6667H6.66675V80.0001H10.0001V76.6667Z" fill="#676633"/>
<path d="M13.3333 76.6667H10V80.0001H13.3333V76.6667Z" fill="#676633"/>
<path d="M16.6666 76.6667H13.3333V80.0001H16.6666V76.6667Z" fill="#676633"/>
<path d="M20.0001 76.6667H16.6667V80.0001H20.0001V76.6667Z" fill="#676633"/>
<path d="M23.3333 76.6667H20V80.0001H23.3333V76.6667Z" fill="#676633"/>
<path d="M26.6666 76.6667H23.3333V80.0001H26.6666V76.6667Z" fill="#676633"/>
<path d="M30.0001 76.6667H26.6667V80.0001H30.0001V76.6667Z" fill="#676633"/>
<path d="M33.3333 76.6667H30V80.0001H33.3333V76.6667Z" fill="#676633"/>
<path d="M36.6666 76.6667H33.3333V80.0001H36.6666V76.6667Z" fill="#676633"/>
<path d="M40.0001 76.6667H36.6667V80.0001H40.0001V76.6667Z" fill="#060608"/>
<path d="M43.3333 76.6667H40V80.0001H43.3333V76.6667Z" fill="#D5E04B"/>
<path d="M46.6666 76.6667H43.3333V80.0001H46.6666V76.6667Z" fill="#060608"/>
<path d="M50.0001 76.6667H46.6667V80.0001H50.0001V76.6667Z" fill="#676633"/>
<path d="M53.3333 76.6667H50V80.0001H53.3333V76.6667Z" fill="#676633"/>
<path d="M56.6666 76.6667H53.3333V80.0001H56.6666V76.6667Z" fill="#676633"/>
<path d="M60.0001 76.6667H56.6667V80.0001H60.0001V76.6667Z" fill="#676633"/>
<path d="M63.3333 76.6667H60V80.0001H63.3333V76.6667Z" fill="#676633"/>
<path d="M66.6666 76.6667H63.3333V80.0001H66.6666V76.6667Z" fill="#676633"/>
<path d="M70.0001 76.6667H66.6667V80.0001H70.0001V76.6667Z" fill="#676633"/>
<path d="M73.3333 76.6667H70V80.0001H73.3333V76.6667Z" fill="#676633"/>
<path d="M76.6666 76.6667H73.3333V80.0001H76.6666V76.6667Z" fill="#676633"/>
<path d="M80.0001 76.6667H76.6667V80.0001H80.0001V76.6667Z" fill="#676633"/>
<path d="M83.3333 76.6667H80V80.0001H83.3333V76.6667Z" fill="#676633"/>
<path d="M86.6666 76.6667H83.3333V80.0001H86.6666V76.6667Z" fill="#676633"/>
<path d="M90.0001 76.6667H86.6667V80.0001H90.0001V76.6667Z" fill="#676633"/>
<path d="M93.3333 76.6667H90V80.0001H93.3333V76.6667Z" fill="#676633"/>
<path d="M96.6666 76.6667H93.3333V80.0001H96.6666V76.6667Z" fill="#676633"/>
<path d="M100 76.6667H96.6667V80.0001H100V76.6667Z" fill="#676633"/>
<path d="M3.33333 80H0V83.3333H3.33333V80Z" fill="#676633"/>
<path d="M6.66659 80H3.33325V83.3333H6.66659V80Z" fill="#676633"/>
<path d="M10.0001 80H6.66675V83.3333H10.0001V80Z" fill="#676633"/>
<path d="M13.3333 80H10V83.3333H13.3333V80Z" fill="#676633"/>
<path d="M16.6666 80H13.3333V83.3333H16.6666V80Z" fill="#676633"/>
<path d="M20.0001 80H16.6667V83.3333H20.0001V80Z" fill="#676633"/>
<path d="M23.3333 80H20V83.3333H23.3333V80Z" fill="#676633"/>
<path d="M26.6666 80H23.3333V83.3333H26.6666V80Z" fill="#676633"/>
<path d="M30.0001 80H26.6667V83.3333H30.0001V80Z" fill="#676633"/>
<path d="M33.3333 80H30V83.3333H33.3333V80Z" fill="#676633"/>
<path d="M36.6666 80H33.3333V83.3333H36.6666V80Z" fill="#676633"/>
<path d="M40.0001 80H36.6667V83.3333H40.0001V80Z" fill="#060608"/>
<path d="M43.3333 80H40V83.3333H43.3333V80Z" fill="#060608"/>
<path d="M46.6666 80H43.3333V83.3333H46.6666V80Z" fill="#676633"/>
<path d="M50.0001 80H46.6667V83.3333H50.0001V80Z" fill="#676633"/>
<path d="M53.3333 80H50V83.3333H53.3333V80Z" fill="#676633"/>
<path d="M56.6666 80H53.3333V83.3333H56.6666V80Z" fill="#676633"/>
<path d="M60.0001 80H56.6667V83.3333H60.0001V80Z" fill="#676633"/>
<path d="M63.3333 80H60V83.3333H63.3333V80Z" fill="#676633"/>
<path d="M66.6666 80H63.3333V83.3333H66.6666V80Z" fill="#676633"/>
<path d="M70.0001 80H66.6667V83.3333H70.0001V80Z" fill="#676633"/>
<path d="M73.3333 80H70V83.3333H73.3333V80Z" fill="#676633"/>
<path d="M76.6666 80H73.3333V83.3333H76.6666V80Z" fill="#676633"/>
<path d="M80.0001 80H76.6667V83.3333H80.0001V80Z" fill="#676633"/>
<path d="M83.3333 80H80V83.3333H83.3333V80Z" fill="#676633"/>
<path d="M86.6666 80H83.3333V83.3333H86.6666V80Z" fill="#676633"/>
<path d="M90.0001 80H86.6667V83.3333H90.0001V80Z" fill="#676633"/>
<path d="M93.3333 80H90V83.3333H93.3333V80Z" fill="#676633"/>
<path d="M96.6666 80H93.3333V83.3333H96.6666V80Z" fill="#676633"/>
<path d="M100 80H96.6667V83.3333H100V80Z" fill="#676633"/>
<path d="M3.33333 83.3333H0V86.6666H3.33333V83.3333Z" fill="#676633"/>
<path d="M6.66659 83.3333H3.33325V86.6666H6.66659V83.3333Z" fill="#676633"/>
<path d="M10.0001 83.3333H6.66675V86.6666H10.0001V83.3333Z" fill="#676633"/>
<path d="M13.3333 83.3333H10V86.6666H13.3333V83.3333Z" fill="#676633"/>
<path d="M16.6666 83.3333H13.3333V86.6666H16.6666V83.3333Z" fill="#676633"/>
<path d="M20.0001 83.3333H16.6667V86.6666H20.0001V83.3333Z" fill="#676633"/>
<path d="M23.3333 83.3333H20V86.6666H23.3333V83.3333Z" fill="#676633"/>
<path d="M26.6666 83.3333H23.3333V86.6666H26.6666V83.3333Z" fill="#676633"/>
<path d="M30.0001 83.3333H26.6667V86.6666H30.0001V83.3333Z" fill="#676633"/>
<path d="M33.3333 83.3333H30V86.6666H33.3333V83.3333Z" fill="#676633"/>
<path d="M36.6666 83.3333H33.3333V86.6666H36.6666V83.3333Z" fill="#676633"/>
<path d="M40.0001 83.3333H36.6667V86.6666H40.0001V83.3333Z" fill="#676633"/>
<path d="M43.3333 83.3333H40V86.6666H43.3333V83.3333Z" fill="#676633"/>
<path d="M46.6666 83.3333H43.3333V86.6666H46.6666V83.3333Z" fill="#676633"/>
<path d="M50.0001 83.3333H46.6667V86.6666H50.0001V83.3333Z" fill="#676633"/>
<path d="M53.3333 83.3333H50V86.6666H53.3333V83.3333Z" fill="#676633"/>
<path d="M56.6666 83.3333H53.3333V86.6666H56.6666V83.3333Z" fill="#676633"/>
<path d="M60.0001 83.3333H56.6667V86.6666H60.0001V83.3333Z" fill="#676633"/>
<path d="M63.3333 83.3333H60V86.6666H63.3333V83.3333Z" fill="#676633"/>
<path d="M66.6666 83.3333H63.3333V86.6666H66.6666V83.3333Z" fill="#676633"/>
<path d="M70.0001 83.3333H66.6667V86.6666H70.0001V83.3333Z" fill="#676633"/>
<path d="M73.3333 83.3333H70V86.6666H73.3333V83.3333Z" fill="#676633"/>
<path d="M76.6666 83.3333H73.3333V86.6666H76.6666V83.3333Z" fill="#676633"/>
<path d="M80.0001 83.3333H76.6667V86.6666H80.0001V83.3333Z" fill="#676633"/>
<path d="M83.3333 83.3333H80V86.6666H83.3333V83.3333Z" fill="#676633"/>
<path d="M86.6666 83.3333H83.3333V86.6666H86.6666V83.3333Z" fill="#676633"/>
<path d="M90.0001 83.3333H86.6667V86.6666H90.0001V83.3333Z" fill="#676633"/>
<path d="M93.3333 83.3333H90V86.6666H93.3333V83.3333Z" fill="#676633"/>
<path d="M96.6666 83.3333H93.3333V86.6666H96.6666V83.3333Z" fill="#676633"/>
<path d="M100 83.3333H96.6667V86.6666H100V83.3333Z" fill="#676633"/>
<path d="M3.33333 86.6667H0V90.0001H3.33333V86.6667Z" fill="#676633"/>
<path d="M6.66659 86.6667H3.33325V90.0001H6.66659V86.6667Z" fill="#676633"/>
<path d="M10.0001 86.6667H6.66675V90.0001H10.0001V86.6667Z" fill="#676633"/>
<path d="M13.3333 86.6667H10V90.0001H13.3333V86.6667Z" fill="#676633"/>
<path d="M16.6666 86.6667H13.3333V90.0001H16.6666V86.6667Z" fill="#676633"/>
<path d="M20.0001 86.6667H16.6667V90.0001H20.0001V86.6667Z" fill="#676633"/>
<path d="M23.3333 86.6667H20V90.0001H23.3333V86.6667Z" fill="#676633"/>
<path d="M26.6666 86.6667H23.3333V90.0001H26.6666V86.6667Z" fill="#676633"/>
<path d="M30.0001 86.6667H26.6667V90.0001H30.0001V86.6667Z" fill="#676633"/>
<path d="M33.3333 86.6667H30V90.0001H33.3333V86.6667Z" fill="#676633"/>
<path d="M36.6666 86.6667H33.3333V90.0001H36.6666V86.6667Z" fill="#676633"/>
<path d="M40.0001 86.6667H36.6667V90.0001H40.0001V86.6667Z" fill="#676633"/>
<path d="M43.3333 86.6667H40V90.0001H43.3333V86.6667Z" fill="#676633"/>
<path d="M46.6666 86.6667H43.3333V90.0001H46.6666V86.6667Z" fill="#676633"/>
<path d="M50.0001 86.6667H46.6667V90.0001H50.0001V86.6667Z" fill="#676633"/>
<path d="M53.3333 86.6667H50V90.0001H53.3333V86.6667Z" fill="#676633"/>
<path d="M56.6666 86.6667H53.3333V90.0001H56.6666V86.6667Z" fill="#676633"/>
<path d="M60.0001 86.6667H56.6667V90.0001H60.0001V86.6667Z" fill="#676633"/>
<path d="M63.3333 86.6667H60V90.0001H63.3333V86.6667Z" fill="#676633"/>
<path d="M66.6666 86.6667H63.3333V90.0001H66.6666V86.6667Z" fill="#676633"/>
<path d="M70.0001 86.6667H66.6667V90.0001H70.0001V86.6667Z" fill="#676633"/>
<path d="M73.3333 86.6667H70V90.0001H73.3333V86.6667Z" fill="#676633"/>
<path d="M76.6666 86.6667H73.3333V90.0001H76.6666V86.6667Z" fill="#676633"/>
<path d="M80.0001 86.6667H76.6667V90.0001H80.0001V86.6667Z" fill="#676633"/>
<path d="M83.3333 86.6667H80V90.0001H83.3333V86.6667Z" fill="#676633"/>
<path d="M86.6666 86.6667H83.3333V90.0001H86.6666V86.6667Z" fill="#676633"/>
<path d="M90.0001 86.6667H86.6667V90.0001H90.0001V86.6667Z" fill="#676633"/>
<path d="M93.3333 86.6667H90V90.0001H93.3333V86.6667Z" fill="#676633"/>
<path d="M96.6666 86.6667H93.3333V90.0001H96.6666V86.6667Z" fill="#676633"/>
<path d="M100 86.6667H96.6667V90.0001H100V86.6667Z" fill="#676633"/>
<path d="M3.33333 90H0V93.3333H3.33333V90Z" fill="#676633"/>
<path d="M6.66659 90H3.33325V93.3333H6.66659V90Z" fill="#676633"/>
<path d="M10.0001 90H6.66675V93.3333H10.0001V90Z" fill="#676633"/>
<path d="M13.3333 90H10V93.3333H13.3333V90Z" fill="#676633"/>
<path d="M16.6666 90H13.3333V93.3333H16.6666V90Z" fill="#676633"/>
<path d="M20.0001 90H16.6667V93.3333H20.0001V90Z" fill="#676633"/>
<path d="M23.3333 90H20V93.3333H23.3333V90Z" fill="#676633"/>
<path d="M26.6666 90H23.3333V93.3333H26.6666V90Z" fill="#676633"/>
<path d="M30.0001 90H26.6667V93.3333H30.0001V90Z" fill="#676633"/>
<path d="M33.3333 90H30V93.3333H33.3333V90Z" fill="#676633"/>
<path d="M36.6666 90H33.3333V93.3333H36.6666V90Z" fill="#676633"/>
<path d="M40.0001 90H36.6667V93.3333H40.0001V90Z" fill="#676633"/>
<path d="M43.3333 90H40V93.3333H43.3333V90Z" fill="#676633"/>
<path d="M46.6666 90H43.3333V93.3333H46.6666V90Z" fill="#676633"/>
<path d="M50.0001 90H46.6667V93.3333H50.0001V90Z" fill="#676633"/>
<path d="M53.3333 90H50V93.3333H53.3333V90Z" fill="#676633"/>
<path d="M56.6666 90H53.3333V93.3333H56.6666V90Z" fill="#676633"/>
<path d="M60.0001 90H56.6667V93.3333H60.0001V90Z" fill="#676633"/>
<path d="M63.3333 90H60V93.3333H63.3333V90Z" fill="#676633"/>
<path d="M66.6666 90H63.3333V93.3333H66.6666V90Z" fill="#676633"/>
<path d="M70.0001 90H66.6667V93.3333H70.0001V90Z" fill="#676633"/>
<path d="M73.3333 90H70V93.3333H73.3333V90Z" fill="#676633"/>
<path d="M76.6666 90H73.3333V93.3333H76.6666V90Z" fill="#676633"/>
<path d="M80.0001 90H76.6667V93.3333H80.0001V90Z" fill="#676633"/>
<path d="M83.3333 90H80V93.3333H83.3333V90Z" fill="#676633"/>
<path d="M86.6666 90H83.3333V93.3333H86.6666V90Z" fill="#676633"/>
<path d="M90.0001 90H86.6667V93.3333H90.0001V90Z" fill="#676633"/>
<path d="M93.3333 90H90V93.3333H93.3333V90Z" fill="#676633"/>
<path d="M96.6666 90H93.3333V93.3333H96.6666V90Z" fill="#676633"/>
<path d="M100 90H96.6667V93.3333H100V90Z" fill="#676633"/>
<path d="M3.33333 93.3333H0V96.6666H3.33333V93.3333Z" fill="#676633"/>
<path d="M6.66659 93.3333H3.33325V96.6666H6.66659V93.3333Z" fill="#676633"/>
<path d="M10.0001 93.3333H6.66675V96.6666H10.0001V93.3333Z" fill="#676633"/>
<path d="M13.3333 93.3333H10V96.6666H13.3333V93.3333Z" fill="#676633"/>
<path d="M16.6666 93.3333H13.3333V96.6666H16.6666V93.3333Z" fill="#676633"/>
<path d="M20.0001 93.3333H16.6667V96.6666H20.0001V93.3333Z" fill="#676633"/>
<path d="M23.3333 93.3333H20V96.6666H23.3333V93.3333Z" fill="#676633"/>
<path d="M26.6666 93.3333H23.3333V96.6666H26.6666V93.3333Z" fill="#676633"/>
<path d="M30.0001 93.3333H26.6667V96.6666H30.0001V93.3333Z" fill="#676633"/>
<path d="M33.3333 93.3333H30V96.6666H33.3333V93.3333Z" fill="#676633"/>
<path d="M36.6666 93.3333H33.3333V96.6666H36.6666V93.3333Z" fill="#676633"/>
<path d="M40.0001 93.3333H36.6667V96.6666H40.0001V93.3333Z" fill="#676633"/>
<path d="M43.3333 93.3333H40V96.6666H43.3333V93.3333Z" fill="#676633"/>
<path d="M46.6666 93.3333H43.3333V96.6666H46.6666V93.3333Z" fill="#676633"/>
<path d="M50.0001 93.3333H46.6667V96.6666H50.0001V93.3333Z" fill="#676633"/>
<path d="M53.3333 93.3333H50V96.6666H53.3333V93.3333Z" fill="#676633"/>
<path d="M56.6666 93.3333H53.3333V96.6666H56.6666V93.3333Z" fill="#676633"/>
<path d="M60.0001 93.3333H56.6667V96.6666H60.0001V93.3333Z" fill="#676633"/>
<path d="M63.3333 93.3333H60V96.6666H63.3333V93.3333Z" fill="#676633"/>
<path d="M66.6666 93.3333H63.3333V96.6666H66.6666V93.3333Z" fill="#676633"/>
<path d="M70.0001 93.3333H66.6667V96.6666H70.0001V93.3333Z" fill="#676633"/>
<path d="M73.3333 93.3333H70V96.6666H73.3333V93.3333Z" fill="#676633"/>
<path d="M76.6666 93.3333H73.3333V96.6666H76.6666V93.3333Z" fill="#676633"/>
<path d="M80.0001 93.3333H76.6667V96.6666H80.0001V93.3333Z" fill="#676633"/>
<path d="M83.3333 93.3333H80V96.6666H83.3333V93.3333Z" fill="#676633"/>
<path d="M86.6666 93.3333H83.3333V96.6666H86.6666V93.3333Z" fill="#676633"/>
<path d="M90.0001 93.3333H86.6667V96.6666H90.0001V93.3333Z" fill="#676633"/>
<path d="M93.3333 93.3333H90V96.6666H93.3333V93.3333Z" fill="#676633"/>
<path d="M96.6666 93.3333H93.3333V96.6666H96.6666V93.3333Z" fill="#676633"/>
<path d="M100 93.3333H96.6667V96.6666H100V93.3333Z" fill="#676633"/>
<path d="M3.33333 96.6667H0V100H3.33333V96.6667Z" fill="#676633"/>
<path d="M6.66659 96.6667H3.33325V100H6.66659V96.6667Z" fill="#676633"/>
<path d="M10.0001 96.6667H6.66675V100H10.0001V96.6667Z" fill="#676633"/>
<path d="M13.3333 96.6667H10V100H13.3333V96.6667Z" fill="#676633"/>
<path d="M16.6666 96.6667H13.3333V100H16.6666V96.6667Z" fill="#676633"/>
<path d="M20.0001 96.6667H16.6667V100H20.0001V96.6667Z" fill="#676633"/>
<path d="M23.3333 96.6667H20V100H23.3333V96.6667Z" fill="#676633"/>
<path d="M26.6666 96.6667H23.3333V100H26.6666V96.6667Z" fill="#676633"/>
<path d="M30.0001 96.6667H26.6667V100H30.0001V96.6667Z" fill="#676633"/>
<path d="M33.3333 96.6667H30V100H33.3333V96.6667Z" fill="#676633"/>
<path d="M36.6666 96.6667H33.3333V100H36.6666V96.6667Z" fill="#676633"/>
<path d="M40.0001 96.6667H36.6667V100H40.0001V96.6667Z" fill="#676633"/>
<path d="M43.3333 96.6667H40V100H43.3333V96.6667Z" fill="#676633"/>
<path d="M46.6666 96.6667H43.3333V100H46.6666V96.6667Z" fill="#676633"/>
<path d="M50.0001 96.6667H46.6667V100H50.0001V96.6667Z" fill="#676633"/>
<path d="M53.3333 96.6667H50V100H53.3333V96.6667Z" fill="#676633"/>
<path d="M56.6666 96.6667H53.3333V100H56.6666V96.6667Z" fill="#676633"/>
<path d="M60.0001 96.6667H56.6667V100H60.0001V96.6667Z" fill="#676633"/>
<path d="M63.3333 96.6667H60V100H63.3333V96.6667Z" fill="#676633"/>
<path d="M66.6666 96.6667H63.3333V100H66.6666V96.6667Z" fill="#676633"/>
<path d="M70.0001 96.6667H66.6667V100H70.0001V96.6667Z" fill="#676633"/>
<path d="M73.3333 96.6667H70V100H73.3333V96.6667Z" fill="#676633"/>
<path d="M76.6666 96.6667H73.3333V100H76.6666V96.6667Z" fill="#676633"/>
<path d="M80.0001 96.6667H76.6667V100H80.0001V96.6667Z" fill="#676633"/>
<path d="M83.3333 96.6667H80V100H83.3333V96.6667Z" fill="#676633"/>
<path d="M86.6666 96.6667H83.3333V100H86.6666V96.6667Z" fill="#676633"/>
<path d="M90.0001 96.6667H86.6667V100H90.0001V96.6667Z" fill="#676633"/>
<path d="M93.3333 96.6667H90V100H93.3333V96.6667Z" fill="#676633"/>
<path d="M96.6666 96.6667H93.3333V100H96.6666V96.6667Z" fill="#676633"/>
<path d="M100 96.6667H96.6667V100H100V96.6667Z" fill="#676633"/>
</g>
</g>
<defs>
<clipPath id="clip0_2656_6569">
<rect width="100" height="100" rx="50" fill="white"/>
</clipPath>
<clipPath id="clip1_2656_6569">
<rect width="100" height="100" fill="white"/>
</clipPath>
</defs>
</svg>
