<svg width="57" height="20" viewBox="0 0 57 20" fill="none" xmlns="http://www.w3.org/2000/svg">
<path d="M8.048 13.096H4.736V19H0.848V1.23999H8.048C11.672 1.23999 14.096 3.61599 14.096 7.16799C14.096 10.72 11.672 13.096 8.048 13.096ZM7.184 4.69599H4.736V9.63999H7.184C9.056 9.63999 9.992 8.82399 9.992 7.16799C9.992 5.51199 9.056 4.69599 7.184 4.69599Z" fill="#4E78F6"/>
<path d="M17.4391 5.12799C16.2631 5.12799 15.3271 4.19199 15.3271 3.01599C15.3271 1.83999 16.2631 0.927991 17.4391 0.927991C18.5911 0.927991 19.5271 1.83999 19.5271 3.01599C19.5271 4.19199 18.5911 5.12799 17.4391 5.12799ZM15.6151 19V6.99999H19.3111V19H15.6151Z" fill="#4E78F6"/>
<path d="M20.9559 12.952C20.9559 9.25599 23.4999 6.61599 27.0999 6.61599C30.6519 6.61599 33.0039 8.55999 33.2439 11.704H29.5239C29.2599 10.504 28.5159 9.92799 27.2439 9.92799C25.6839 9.92799 24.6759 11.104 24.6759 12.952C24.6759 14.872 25.6119 16 27.1959 16C28.4919 16 29.2839 15.4 29.5239 14.224H33.2439C33.0039 17.248 30.5559 19.312 27.1959 19.312C23.4039 19.312 20.9559 16.792 20.9559 12.952Z" fill="#4E78F6"/>
<path d="M38.4839 19H34.7879V0.903992H38.4839V11.32L42.3719 6.99999H47.0039L42.4919 11.752L46.8599 19H42.5879L39.8999 14.512L38.4839 16V19Z" fill="#4E78F6"/>
<path d="M56.2983 6.99999V10.48H55.1223C53.0103 10.48 51.7383 11.416 51.7383 13.792V19H48.0423V7.02399H51.5223L51.7143 8.79999C52.2183 7.62399 53.2743 6.83199 54.8823 6.83199C55.3143 6.83199 55.7943 6.87999 56.2983 6.99999Z" fill="#4E78F6"/>
</svg>
