<svg width="247" height="247" viewBox="0 0 247 247" fill="none" xmlns="http://www.w3.org/2000/svg">
<rect x="139" y="136" width="20" height="10" fill="white"/>
<rect x="69" y="96" width="110" height="10" fill="white"/>
<rect x="69" y="196" width="110" height="10" fill="white"/>
<rect x="179" y="186" width="10" height="10" fill="white"/>
<rect x="179" y="106" width="10" height="10" fill="white"/>
<rect x="189" y="116" width="10" height="70" fill="white"/>
<rect x="59" y="186" width="10" height="10" fill="white"/>
<rect x="59" y="106" width="10" height="10" fill="white"/>
<rect x="49" y="116" width="10" height="70" fill="white"/>
<rect x="99" y="166" width="50" height="10" fill="white"/>
<rect x="89" y="156" width="10" height="10" fill="white"/>
<rect x="149" y="156" width="10" height="10" fill="white"/>
<rect x="99" y="126" width="10" height="20" fill="white"/>
<rect x="119" y="16" width="10" height="30" fill="white"/>
<rect x="119" y="56" width="10" height="10" fill="white"/>
</svg>
