<svg width="42" height="38" viewBox="0 0 42 38" fill="none" xmlns="http://www.w3.org/2000/svg">
<path d="M0 0H3V31H0V0Z" fill="#2F3238"/>
<path d="M2 0H42V3H2V0Z" fill="#2F3238"/>
<path d="M0 28H17V31H0V28Z" fill="#2F3238"/>
<path d="M25.0358 28H42V31H25L25.0358 28Z" fill="#2F3238"/>
<path d="M11.0769 13.8462H13.8462V16.6154H11.0769V13.8462Z" fill="#2F3238"/>
<path d="M19.3846 13.8462H22.1538V16.6154H19.3846V13.8462Z" fill="#2F3238"/>
<path d="M14 28H17V38H14V28Z" fill="#2F3238"/>
<path d="M27.6923 13.8462H30.4615V16.6154H27.6923V13.8462Z" fill="#2F3238"/>
<path d="M39 0H42V31H39V0Z" fill="#2F3238"/>
<path fill-rule="evenodd" clip-rule="evenodd" d="M25 31L17 38L14.5 37L25.0358 28L25 31Z" fill="#2F3238"/>
</svg>
