<svg width="24" height="24" viewBox="0 0 24 24" fill="none" xmlns="http://www.w3.org/2000/svg">
<mask id="mask0_1929_1548" style="mask-type:alpha" maskUnits="userSpaceOnUse" x="0" y="0" width="24" height="24">
<rect width="24" height="24" fill="#D9D9D9"/>
</mask>
<g mask="url(#mask0_1929_1548)">
<path d="M8.76925 19.3652L7.7155 18.3115L9.65775 16.3385C7.62058 16.068 5.91833 15.5343 4.551 14.7375C3.18367 13.9407 2.5 13.0282 2.5 12C2.5 10.7705 3.41767 9.71317 5.253 8.828C7.08817 7.94267 9.33717 7.5 12 7.5C14.6628 7.5 16.9118 7.94267 18.747 8.828C20.5823 9.71317 21.5 10.7705 21.5 12C21.5 12.8795 20.9955 13.6859 19.9865 14.4193C18.9775 15.1526 17.6487 15.7064 16 16.0808V14.55C17.2833 14.2167 18.2708 13.8042 18.9625 13.3125C19.6542 12.8208 20 12.3833 20 12C20 11.4475 19.2875 10.8093 17.8625 10.0855C16.4375 9.36183 14.4833 9 12 9C9.51667 9 7.5625 9.36183 6.1375 10.0855C4.7125 10.8093 4 11.4475 4 12C4 12.4385 4.48908 12.9449 5.46725 13.5192C6.44558 14.0936 7.75008 14.5128 9.38075 14.777L7.7155 13.1115L8.76925 12.0578L12.423 15.7115L8.76925 19.3652Z" fill="white"/>
</g>
</svg>
