<svg width="101" height="100" viewBox="0 0 101 100" fill="none" xmlns="http://www.w3.org/2000/svg">
<g clip-path="url(#clip0_2656_8374)">
<rect x="0.5" width="100" height="100" rx="50" fill="#F3F4F5"/>
<g clip-path="url(#clip1_2656_8374)">
<path d="M4.33333 0H1V3.33333H4.33333V0Z" fill="#9E4539"/>
<path d="M7.66659 0H4.33325V3.33333H7.66659V0Z" fill="#9E4539"/>
<path d="M11.0001 0H7.66675V3.33333H11.0001V0Z" fill="#9E4539"/>
<path d="M14.3333 0H11V3.33333H14.3333V0Z" fill="#9E4539"/>
<path d="M17.6666 0H14.3333V3.33333H17.6666V0Z" fill="#9E4539"/>
<path d="M21.0001 0H17.6667V3.33333H21.0001V0Z" fill="#9E4539"/>
<path d="M24.3333 0H21V3.33333H24.3333V0Z" fill="#9E4539"/>
<path d="M27.6666 0H24.3333V3.33333H27.6666V0Z" fill="#9E4539"/>
<path d="M31.0001 0H27.6667V3.33333H31.0001V0Z" fill="#9E4539"/>
<path d="M34.3333 0H31V3.33333H34.3333V0Z" fill="#9E4539"/>
<path d="M37.6666 0H34.3333V3.33333H37.6666V0Z" fill="#9E4539"/>
<path d="M41.0001 0H37.6667V3.33333H41.0001V0Z" fill="#9E4539"/>
<path d="M44.3333 0H41V3.33333H44.3333V0Z" fill="#9E4539"/>
<path d="M47.6666 0H44.3333V3.33333H47.6666V0Z" fill="#9E4539"/>
<path d="M51.0001 0H47.6667V3.33333H51.0001V0Z" fill="#9E4539"/>
<path d="M54.3333 0H51V3.33333H54.3333V0Z" fill="#9E4539"/>
<path d="M57.6666 0H54.3333V3.33333H57.6666V0Z" fill="#9E4539"/>
<path d="M61.0001 0H57.6667V3.33333H61.0001V0Z" fill="#9E4539"/>
<path d="M64.3333 0H61V3.33333H64.3333V0Z" fill="#9E4539"/>
<path d="M67.6666 0H64.3333V3.33333H67.6666V0Z" fill="#9E4539"/>
<path d="M71.0001 0H67.6667V3.33333H71.0001V0Z" fill="#9E4539"/>
<path d="M74.3333 0H71V3.33333H74.3333V0Z" fill="#9E4539"/>
<path d="M77.6666 0H74.3333V3.33333H77.6666V0Z" fill="#9E4539"/>
<path d="M81.0001 0H77.6667V3.33333H81.0001V0Z" fill="#9E4539"/>
<path d="M84.3333 0H81V3.33333H84.3333V0Z" fill="#9E4539"/>
<path d="M87.6666 0H84.3333V3.33333H87.6666V0Z" fill="#9E4539"/>
<path d="M91.0001 0H87.6667V3.33333H91.0001V0Z" fill="#9E4539"/>
<path d="M94.3333 0H91V3.33333H94.3333V0Z" fill="#9E4539"/>
<path d="M97.6666 0H94.3333V3.33333H97.6666V0Z" fill="#9E4539"/>
<path d="M101 0H97.6667V3.33333H101V0Z" fill="#9E4539"/>
<path d="M4.33333 3.33325H1V6.66659H4.33333V3.33325Z" fill="#9E4539"/>
<path d="M7.66659 3.33325H4.33325V6.66659H7.66659V3.33325Z" fill="#9E4539"/>
<path d="M11.0001 3.33325H7.66675V6.66659H11.0001V3.33325Z" fill="#9E4539"/>
<path d="M14.3333 3.33325H11V6.66659H14.3333V3.33325Z" fill="#9E4539"/>
<path d="M17.6666 3.33325H14.3333V6.66659H17.6666V3.33325Z" fill="#9E4539"/>
<path d="M21.0001 3.33325H17.6667V6.66659H21.0001V3.33325Z" fill="#9E4539"/>
<path d="M24.3333 3.33325H21V6.66659H24.3333V3.33325Z" fill="#9E4539"/>
<path d="M27.6666 3.33325H24.3333V6.66659H27.6666V3.33325Z" fill="#9E4539"/>
<path d="M31.0001 3.33325H27.6667V6.66659H31.0001V3.33325Z" fill="#9E4539"/>
<path d="M34.3333 3.33325H31V6.66659H34.3333V3.33325Z" fill="#9E4539"/>
<path d="M37.6666 3.33325H34.3333V6.66659H37.6666V3.33325Z" fill="#9E4539"/>
<path d="M41.0001 3.33325H37.6667V6.66659H41.0001V3.33325Z" fill="#9E4539"/>
<path d="M44.3333 3.33325H41V6.66659H44.3333V3.33325Z" fill="#9E4539"/>
<path d="M47.6666 3.33325H44.3333V6.66659H47.6666V3.33325Z" fill="#9E4539"/>
<path d="M51.0001 3.33325H47.6667V6.66659H51.0001V3.33325Z" fill="#9E4539"/>
<path d="M54.3333 3.33325H51V6.66659H54.3333V3.33325Z" fill="#9E4539"/>
<path d="M57.6666 3.33325H54.3333V6.66659H57.6666V3.33325Z" fill="#9E4539"/>
<path d="M61.0001 3.33325H57.6667V6.66659H61.0001V3.33325Z" fill="#9E4539"/>
<path d="M64.3333 3.33325H61V6.66659H64.3333V3.33325Z" fill="#9E4539"/>
<path d="M67.6666 3.33325H64.3333V6.66659H67.6666V3.33325Z" fill="#9E4539"/>
<path d="M71.0001 3.33325H67.6667V6.66659H71.0001V3.33325Z" fill="#9E4539"/>
<path d="M74.3333 3.33325H71V6.66659H74.3333V3.33325Z" fill="#9E4539"/>
<path d="M77.6666 3.33325H74.3333V6.66659H77.6666V3.33325Z" fill="#9E4539"/>
<path d="M81.0001 3.33325H77.6667V6.66659H81.0001V3.33325Z" fill="#9E4539"/>
<path d="M84.3333 3.33325H81V6.66659H84.3333V3.33325Z" fill="#9E4539"/>
<path d="M87.6666 3.33325H84.3333V6.66659H87.6666V3.33325Z" fill="#9E4539"/>
<path d="M91.0001 3.33325H87.6667V6.66659H91.0001V3.33325Z" fill="#9E4539"/>
<path d="M94.3333 3.33325H91V6.66659H94.3333V3.33325Z" fill="#9E4539"/>
<path d="M97.6666 3.33325H94.3333V6.66659H97.6666V3.33325Z" fill="#9E4539"/>
<path d="M101 3.33325H97.6667V6.66659H101V3.33325Z" fill="#9E4539"/>
<path d="M4.33333 6.66675H1V10.0001H4.33333V6.66675Z" fill="#9E4539"/>
<path d="M7.66659 6.66675H4.33325V10.0001H7.66659V6.66675Z" fill="#9E4539"/>
<path d="M11.0001 6.66675H7.66675V10.0001H11.0001V6.66675Z" fill="#9E4539"/>
<path d="M14.3333 6.66675H11V10.0001H14.3333V6.66675Z" fill="#9E4539"/>
<path d="M17.6666 6.66675H14.3333V10.0001H17.6666V6.66675Z" fill="#9E4539"/>
<path d="M21.0001 6.66675H17.6667V10.0001H21.0001V6.66675Z" fill="#9E4539"/>
<path d="M24.3333 6.66675H21V10.0001H24.3333V6.66675Z" fill="#9E4539"/>
<path d="M27.6666 6.66675H24.3333V10.0001H27.6666V6.66675Z" fill="#9E4539"/>
<path d="M31.0001 6.66675H27.6667V10.0001H31.0001V6.66675Z" fill="#9E4539"/>
<path d="M34.3333 6.66675H31V10.0001H34.3333V6.66675Z" fill="#9E4539"/>
<path d="M37.6666 6.66675H34.3333V10.0001H37.6666V6.66675Z" fill="#9E4539"/>
<path d="M41.0001 6.66675H37.6667V10.0001H41.0001V6.66675Z" fill="#9E4539"/>
<path d="M44.3333 6.66675H41V10.0001H44.3333V6.66675Z" fill="#9E4539"/>
<path d="M47.6666 6.66675H44.3333V10.0001H47.6666V6.66675Z" fill="#9E4539"/>
<path d="M51.0001 6.66675H47.6667V10.0001H51.0001V6.66675Z" fill="#9E4539"/>
<path d="M54.3333 6.66675H51V10.0001H54.3333V6.66675Z" fill="#9E4539"/>
<path d="M57.6666 6.66675H54.3333V10.0001H57.6666V6.66675Z" fill="#9E4539"/>
<path d="M61.0001 6.66675H57.6667V10.0001H61.0001V6.66675Z" fill="#9E4539"/>
<path d="M64.3333 6.66675H61V10.0001H64.3333V6.66675Z" fill="#9E4539"/>
<path d="M67.6666 6.66675H64.3333V10.0001H67.6666V6.66675Z" fill="#9E4539"/>
<path d="M71.0001 6.66675H67.6667V10.0001H71.0001V6.66675Z" fill="#9E4539"/>
<path d="M74.3333 6.66675H71V10.0001H74.3333V6.66675Z" fill="#9E4539"/>
<path d="M77.6666 6.66675H74.3333V10.0001H77.6666V6.66675Z" fill="#9E4539"/>
<path d="M81.0001 6.66675H77.6667V10.0001H81.0001V6.66675Z" fill="#9E4539"/>
<path d="M84.3333 6.66675H81V10.0001H84.3333V6.66675Z" fill="#9E4539"/>
<path d="M87.6666 6.66675H84.3333V10.0001H87.6666V6.66675Z" fill="#9E4539"/>
<path d="M91.0001 6.66675H87.6667V10.0001H91.0001V6.66675Z" fill="#9E4539"/>
<path d="M94.3333 6.66675H91V10.0001H94.3333V6.66675Z" fill="#9E4539"/>
<path d="M97.6666 6.66675H94.3333V10.0001H97.6666V6.66675Z" fill="#9E4539"/>
<path d="M101 6.66675H97.6667V10.0001H101V6.66675Z" fill="#9E4539"/>
<path d="M4.33333 10H1V13.3333H4.33333V10Z" fill="#9E4539"/>
<path d="M7.66659 10H4.33325V13.3333H7.66659V10Z" fill="#9E4539"/>
<path d="M11.0001 10H7.66675V13.3333H11.0001V10Z" fill="#9E4539"/>
<path d="M14.3333 10H11V13.3333H14.3333V10Z" fill="#9E4539"/>
<path d="M17.6666 10H14.3333V13.3333H17.6666V10Z" fill="#9E4539"/>
<path d="M21.0001 10H17.6667V13.3333H21.0001V10Z" fill="#9E4539"/>
<path d="M24.3333 10H21V13.3333H24.3333V10Z" fill="#9E4539"/>
<path d="M27.6666 10H24.3333V13.3333H27.6666V10Z" fill="#9E4539"/>
<path d="M31.0001 10H27.6667V13.3333H31.0001V10Z" fill="#9E4539"/>
<path d="M34.3333 10H31V13.3333H34.3333V10Z" fill="#9E4539"/>
<path d="M37.6666 10H34.3333V13.3333H37.6666V10Z" fill="#9E4539"/>
<path d="M41.0001 10H37.6667V13.3333H41.0001V10Z" fill="#9E4539"/>
<path d="M44.3333 10H41V13.3333H44.3333V10Z" fill="#9E4539"/>
<path d="M47.6666 10H44.3333V13.3333H47.6666V10Z" fill="#9E4539"/>
<path d="M51.0001 10H47.6667V13.3333H51.0001V10Z" fill="#9E4539"/>
<path d="M54.3333 10H51V13.3333H54.3333V10Z" fill="#9E4539"/>
<path d="M57.6666 10H54.3333V13.3333H57.6666V10Z" fill="#9E4539"/>
<path d="M61.0001 10H57.6667V13.3333H61.0001V10Z" fill="#9E4539"/>
<path d="M64.3333 10H61V13.3333H64.3333V10Z" fill="#9E4539"/>
<path d="M67.6666 10H64.3333V13.3333H67.6666V10Z" fill="#9E4539"/>
<path d="M71.0001 10H67.6667V13.3333H71.0001V10Z" fill="#9E4539"/>
<path d="M74.3333 10H71V13.3333H74.3333V10Z" fill="#9E4539"/>
<path d="M77.6666 10H74.3333V13.3333H77.6666V10Z" fill="#9E4539"/>
<path d="M81.0001 10H77.6667V13.3333H81.0001V10Z" fill="#9E4539"/>
<path d="M84.3333 10H81V13.3333H84.3333V10Z" fill="#9E4539"/>
<path d="M87.6666 10H84.3333V13.3333H87.6666V10Z" fill="#9E4539"/>
<path d="M91.0001 10H87.6667V13.3333H91.0001V10Z" fill="#9E4539"/>
<path d="M94.3333 10H91V13.3333H94.3333V10Z" fill="#9E4539"/>
<path d="M97.6666 10H94.3333V13.3333H97.6666V10Z" fill="#9E4539"/>
<path d="M101 10H97.6667V13.3333H101V10Z" fill="#9E4539"/>
<path d="M4.33333 13.3333H1V16.6666H4.33333V13.3333Z" fill="#9E4539"/>
<path d="M7.66659 13.3333H4.33325V16.6666H7.66659V13.3333Z" fill="#9E4539"/>
<path d="M11.0001 13.3333H7.66675V16.6666H11.0001V13.3333Z" fill="#9E4539"/>
<path d="M14.3333 13.3333H11V16.6666H14.3333V13.3333Z" fill="#9E4539"/>
<path d="M17.6666 13.3333H14.3333V16.6666H17.6666V13.3333Z" fill="#9E4539"/>
<path d="M21.0001 13.3333H17.6667V16.6666H21.0001V13.3333Z" fill="#9E4539"/>
<path d="M24.3333 13.3333H21V16.6666H24.3333V13.3333Z" fill="#9E4539"/>
<path d="M27.6666 13.3333H24.3333V16.6666H27.6666V13.3333Z" fill="#9E4539"/>
<path d="M31.0001 13.3333H27.6667V16.6666H31.0001V13.3333Z" fill="#9E4539"/>
<path d="M34.3333 13.3333H31V16.6666H34.3333V13.3333Z" fill="#9E4539"/>
<path d="M37.6666 13.3333H34.3333V16.6666H37.6666V13.3333Z" fill="#9E4539"/>
<path d="M41.0001 13.3333H37.6667V16.6666H41.0001V13.3333Z" fill="#9E4539"/>
<path d="M44.3333 13.3333H41V16.6666H44.3333V13.3333Z" fill="#9E4539"/>
<path d="M47.6666 13.3333H44.3333V16.6666H47.6666V13.3333Z" fill="#9E4539"/>
<path d="M51.0001 13.3333H47.6667V16.6666H51.0001V13.3333Z" fill="#9E4539"/>
<path d="M54.3333 13.3333H51V16.6666H54.3333V13.3333Z" fill="#9E4539"/>
<path d="M57.6666 13.3333H54.3333V16.6666H57.6666V13.3333Z" fill="#9E4539"/>
<path d="M61.0001 13.3333H57.6667V16.6666H61.0001V13.3333Z" fill="#9E4539"/>
<path d="M64.3333 13.3333H61V16.6666H64.3333V13.3333Z" fill="#9E4539"/>
<path d="M67.6666 13.3333H64.3333V16.6666H67.6666V13.3333Z" fill="#9E4539"/>
<path d="M71.0001 13.3333H67.6667V16.6666H71.0001V13.3333Z" fill="#9E4539"/>
<path d="M74.3333 13.3333H71V16.6666H74.3333V13.3333Z" fill="#9E4539"/>
<path d="M77.6666 13.3333H74.3333V16.6666H77.6666V13.3333Z" fill="#9E4539"/>
<path d="M81.0001 13.3333H77.6667V16.6666H81.0001V13.3333Z" fill="#9E4539"/>
<path d="M84.3333 13.3333H81V16.6666H84.3333V13.3333Z" fill="#9E4539"/>
<path d="M87.6666 13.3333H84.3333V16.6666H87.6666V13.3333Z" fill="#9E4539"/>
<path d="M91.0001 13.3333H87.6667V16.6666H91.0001V13.3333Z" fill="#9E4539"/>
<path d="M94.3333 13.3333H91V16.6666H94.3333V13.3333Z" fill="#9E4539"/>
<path d="M97.6666 13.3333H94.3333V16.6666H97.6666V13.3333Z" fill="#9E4539"/>
<path d="M101 13.3333H97.6667V16.6666H101V13.3333Z" fill="#9E4539"/>
<path d="M4.33333 16.6667H1V20.0001H4.33333V16.6667Z" fill="#9E4539"/>
<path d="M7.66659 16.6667H4.33325V20.0001H7.66659V16.6667Z" fill="#9E4539"/>
<path d="M11.0001 16.6667H7.66675V20.0001H11.0001V16.6667Z" fill="#9E4539"/>
<path d="M14.3333 16.6667H11V20.0001H14.3333V16.6667Z" fill="#9E4539"/>
<path d="M17.6666 16.6667H14.3333V20.0001H17.6666V16.6667Z" fill="#9E4539"/>
<path d="M21.0001 16.6667H17.6667V20.0001H21.0001V16.6667Z" fill="#9E4539"/>
<path d="M24.3333 16.6667H21V20.0001H24.3333V16.6667Z" fill="#9E4539"/>
<path d="M27.6666 16.6667H24.3333V20.0001H27.6666V16.6667Z" fill="#9E4539"/>
<path d="M31.0001 16.6667H27.6667V20.0001H31.0001V16.6667Z" fill="#9E4539"/>
<path d="M34.3333 16.6667H31V20.0001H34.3333V16.6667Z" fill="#9E4539"/>
<path d="M37.6666 16.6667H34.3333V20.0001H37.6666V16.6667Z" fill="#9E4539"/>
<path d="M41.0001 16.6667H37.6667V20.0001H41.0001V16.6667Z" fill="#060608"/>
<path d="M44.3333 16.6667H41V20.0001H44.3333V16.6667Z" fill="#9E4539"/>
<path d="M47.6666 16.6667H44.3333V20.0001H47.6666V16.6667Z" fill="#9E4539"/>
<path d="M51.0001 16.6667H47.6667V20.0001H51.0001V16.6667Z" fill="#9E4539"/>
<path d="M54.3333 16.6667H51V20.0001H54.3333V16.6667Z" fill="#9E4539"/>
<path d="M57.6666 16.6667H54.3333V20.0001H57.6666V16.6667Z" fill="#9E4539"/>
<path d="M61.0001 16.6667H57.6667V20.0001H61.0001V16.6667Z" fill="#9E4539"/>
<path d="M64.3333 16.6667H61V20.0001H64.3333V16.6667Z" fill="#9E4539"/>
<path d="M67.6666 16.6667H64.3333V20.0001H67.6666V16.6667Z" fill="#9E4539"/>
<path d="M71.0001 16.6667H67.6667V20.0001H71.0001V16.6667Z" fill="#9E4539"/>
<path d="M74.3333 16.6667H71V20.0001H74.3333V16.6667Z" fill="#9E4539"/>
<path d="M77.6666 16.6667H74.3333V20.0001H77.6666V16.6667Z" fill="#9E4539"/>
<path d="M81.0001 16.6667H77.6667V20.0001H81.0001V16.6667Z" fill="#9E4539"/>
<path d="M84.3333 16.6667H81V20.0001H84.3333V16.6667Z" fill="#9E4539"/>
<path d="M87.6666 16.6667H84.3333V20.0001H87.6666V16.6667Z" fill="#9E4539"/>
<path d="M91.0001 16.6667H87.6667V20.0001H91.0001V16.6667Z" fill="#9E4539"/>
<path d="M94.3333 16.6667H91V20.0001H94.3333V16.6667Z" fill="#9E4539"/>
<path d="M97.6666 16.6667H94.3333V20.0001H97.6666V16.6667Z" fill="#9E4539"/>
<path d="M101 16.6667H97.6667V20.0001H101V16.6667Z" fill="#9E4539"/>
<path d="M4.33333 20H1V23.3333H4.33333V20Z" fill="#9E4539"/>
<path d="M7.66659 20H4.33325V23.3333H7.66659V20Z" fill="#9E4539"/>
<path d="M11.0001 20H7.66675V23.3333H11.0001V20Z" fill="#9E4539"/>
<path d="M14.3333 20H11V23.3333H14.3333V20Z" fill="#9E4539"/>
<path d="M17.6666 20H14.3333V23.3333H17.6666V20Z" fill="#9E4539"/>
<path d="M21.0001 20H17.6667V23.3333H21.0001V20Z" fill="#9E4539"/>
<path d="M24.3333 20H21V23.3333H24.3333V20Z" fill="#9E4539"/>
<path d="M27.6666 20H24.3333V23.3333H27.6666V20Z" fill="#9E4539"/>
<path d="M31.0001 20H27.6667V23.3333H31.0001V20Z" fill="#9E4539"/>
<path d="M34.3333 20H31V23.3333H34.3333V20Z" fill="#9E4539"/>
<path d="M37.6666 20H34.3333V23.3333H37.6666V20Z" fill="#9E4539"/>
<path d="M41.0001 20H37.6667V23.3333H41.0001V20Z" fill="#060608"/>
<path d="M44.3333 20H41V23.3333H44.3333V20Z" fill="#060608"/>
<path d="M47.6666 20H44.3333V23.3333H47.6666V20Z" fill="#9E4539"/>
<path d="M51.0001 20H47.6667V23.3333H51.0001V20Z" fill="#9E4539"/>
<path d="M54.3333 20H51V23.3333H54.3333V20Z" fill="#9E4539"/>
<path d="M57.6666 20H54.3333V23.3333H57.6666V20Z" fill="#9E4539"/>
<path d="M61.0001 20H57.6667V23.3333H61.0001V20Z" fill="#9E4539"/>
<path d="M64.3333 20H61V23.3333H64.3333V20Z" fill="#9E4539"/>
<path d="M67.6666 20H64.3333V23.3333H67.6666V20Z" fill="#9E4539"/>
<path d="M71.0001 20H67.6667V23.3333H71.0001V20Z" fill="#9E4539"/>
<path d="M74.3333 20H71V23.3333H74.3333V20Z" fill="#9E4539"/>
<path d="M77.6666 20H74.3333V23.3333H77.6666V20Z" fill="#9E4539"/>
<path d="M81.0001 20H77.6667V23.3333H81.0001V20Z" fill="#9E4539"/>
<path d="M84.3333 20H81V23.3333H84.3333V20Z" fill="#9E4539"/>
<path d="M87.6666 20H84.3333V23.3333H87.6666V20Z" fill="#9E4539"/>
<path d="M91.0001 20H87.6667V23.3333H91.0001V20Z" fill="#9E4539"/>
<path d="M94.3333 20H91V23.3333H94.3333V20Z" fill="#9E4539"/>
<path d="M97.6666 20H94.3333V23.3333H97.6666V20Z" fill="#9E4539"/>
<path d="M101 20H97.6667V23.3333H101V20Z" fill="#9E4539"/>
<path d="M4.33333 23.3333H1V26.6666H4.33333V23.3333Z" fill="#9E4539"/>
<path d="M7.66659 23.3333H4.33325V26.6666H7.66659V23.3333Z" fill="#9E4539"/>
<path d="M11.0001 23.3333H7.66675V26.6666H11.0001V23.3333Z" fill="#9E4539"/>
<path d="M14.3333 23.3333H11V26.6666H14.3333V23.3333Z" fill="#9E4539"/>
<path d="M17.6666 23.3333H14.3333V26.6666H17.6666V23.3333Z" fill="#9E4539"/>
<path d="M21.0001 23.3333H17.6667V26.6666H21.0001V23.3333Z" fill="#9E4539"/>
<path d="M24.3333 23.3333H21V26.6666H24.3333V23.3333Z" fill="#9E4539"/>
<path d="M27.6666 23.3333H24.3333V26.6666H27.6666V23.3333Z" fill="#9E4539"/>
<path d="M31.0001 23.3333H27.6667V26.6666H31.0001V23.3333Z" fill="#9E4539"/>
<path d="M34.3333 23.3333H31V26.6666H34.3333V23.3333Z" fill="#9E4539"/>
<path d="M37.6666 23.3333H34.3333V26.6666H37.6666V23.3333Z" fill="#9E4539"/>
<path d="M41.0001 23.3333H37.6667V26.6666H41.0001V23.3333Z" fill="#060608"/>
<path d="M44.3333 23.3333H41V26.6666H44.3333V23.3333Z" fill="#E6904E"/>
<path d="M47.6666 23.3333H44.3333V26.6666H47.6666V23.3333Z" fill="#060608"/>
<path d="M51.0001 23.3333H47.6667V26.6666H51.0001V23.3333Z" fill="#9E4539"/>
<path d="M54.3333 23.3333H51V26.6666H54.3333V23.3333Z" fill="#9E4539"/>
<path d="M57.6666 23.3333H54.3333V26.6666H57.6666V23.3333Z" fill="#9E4539"/>
<path d="M61.0001 23.3333H57.6667V26.6666H61.0001V23.3333Z" fill="#9E4539"/>
<path d="M64.3333 23.3333H61V26.6666H64.3333V23.3333Z" fill="#9E4539"/>
<path d="M67.6666 23.3333H64.3333V26.6666H67.6666V23.3333Z" fill="#9E4539"/>
<path d="M71.0001 23.3333H67.6667V26.6666H71.0001V23.3333Z" fill="#9E4539"/>
<path d="M74.3333 23.3333H71V26.6666H74.3333V23.3333Z" fill="#9E4539"/>
<path d="M77.6666 23.3333H74.3333V26.6666H77.6666V23.3333Z" fill="#9E4539"/>
<path d="M81.0001 23.3333H77.6667V26.6666H81.0001V23.3333Z" fill="#9E4539"/>
<path d="M84.3333 23.3333H81V26.6666H84.3333V23.3333Z" fill="#9E4539"/>
<path d="M87.6666 23.3333H84.3333V26.6666H87.6666V23.3333Z" fill="#9E4539"/>
<path d="M91.0001 23.3333H87.6667V26.6666H91.0001V23.3333Z" fill="#9E4539"/>
<path d="M94.3333 23.3333H91V26.6666H94.3333V23.3333Z" fill="#9E4539"/>
<path d="M97.6666 23.3333H94.3333V26.6666H97.6666V23.3333Z" fill="#9E4539"/>
<path d="M101 23.3333H97.6667V26.6666H101V23.3333Z" fill="#9E4539"/>
<path d="M4.33333 26.6667H1V30.0001H4.33333V26.6667Z" fill="#9E4539"/>
<path d="M7.66659 26.6667H4.33325V30.0001H7.66659V26.6667Z" fill="#9E4539"/>
<path d="M11.0001 26.6667H7.66675V30.0001H11.0001V26.6667Z" fill="#9E4539"/>
<path d="M14.3333 26.6667H11V30.0001H14.3333V26.6667Z" fill="#9E4539"/>
<path d="M17.6666 26.6667H14.3333V30.0001H17.6666V26.6667Z" fill="#9E4539"/>
<path d="M21.0001 26.6667H17.6667V30.0001H21.0001V26.6667Z" fill="#9E4539"/>
<path d="M24.3333 26.6667H21V30.0001H24.3333V26.6667Z" fill="#9E4539"/>
<path d="M27.6666 26.6667H24.3333V30.0001H27.6666V26.6667Z" fill="#9E4539"/>
<path d="M31.0001 26.6667H27.6667V30.0001H31.0001V26.6667Z" fill="#9E4539"/>
<path d="M34.3333 26.6667H31V30.0001H34.3333V26.6667Z" fill="#9E4539"/>
<path d="M37.6666 26.6667H34.3333V30.0001H37.6666V26.6667Z" fill="#9E4539"/>
<path d="M41.0001 26.6667H37.6667V30.0001H41.0001V26.6667Z" fill="#060608"/>
<path d="M44.3333 26.6667H41V30.0001H44.3333V26.6667Z" fill="#E6904E"/>
<path d="M47.6666 26.6667H44.3333V30.0001H47.6666V26.6667Z" fill="#E6904E"/>
<path d="M51.0001 26.6667H47.6667V30.0001H51.0001V26.6667Z" fill="#060608"/>
<path d="M54.3333 26.6667H51V30.0001H54.3333V26.6667Z" fill="#9E4539"/>
<path d="M57.6666 26.6667H54.3333V30.0001H57.6666V26.6667Z" fill="#9E4539"/>
<path d="M61.0001 26.6667H57.6667V30.0001H61.0001V26.6667Z" fill="#9E4539"/>
<path d="M64.3333 26.6667H61V30.0001H64.3333V26.6667Z" fill="#9E4539"/>
<path d="M67.6666 26.6667H64.3333V30.0001H67.6666V26.6667Z" fill="#9E4539"/>
<path d="M71.0001 26.6667H67.6667V30.0001H71.0001V26.6667Z" fill="#9E4539"/>
<path d="M74.3333 26.6667H71V30.0001H74.3333V26.6667Z" fill="#9E4539"/>
<path d="M77.6666 26.6667H74.3333V30.0001H77.6666V26.6667Z" fill="#9E4539"/>
<path d="M81.0001 26.6667H77.6667V30.0001H81.0001V26.6667Z" fill="#9E4539"/>
<path d="M84.3333 26.6667H81V30.0001H84.3333V26.6667Z" fill="#9E4539"/>
<path d="M87.6666 26.6667H84.3333V30.0001H87.6666V26.6667Z" fill="#9E4539"/>
<path d="M91.0001 26.6667H87.6667V30.0001H91.0001V26.6667Z" fill="#9E4539"/>
<path d="M94.3333 26.6667H91V30.0001H94.3333V26.6667Z" fill="#9E4539"/>
<path d="M97.6666 26.6667H94.3333V30.0001H97.6666V26.6667Z" fill="#9E4539"/>
<path d="M101 26.6667H97.6667V30.0001H101V26.6667Z" fill="#9E4539"/>
<path d="M4.33333 30H1V33.3333H4.33333V30Z" fill="#9E4539"/>
<path d="M7.66659 30H4.33325V33.3333H7.66659V30Z" fill="#9E4539"/>
<path d="M11.0001 30H7.66675V33.3333H11.0001V30Z" fill="#9E4539"/>
<path d="M14.3333 30H11V33.3333H14.3333V30Z" fill="#9E4539"/>
<path d="M17.6666 30H14.3333V33.3333H17.6666V30Z" fill="#9E4539"/>
<path d="M21.0001 30H17.6667V33.3333H21.0001V30Z" fill="#9E4539"/>
<path d="M24.3333 30H21V33.3333H24.3333V30Z" fill="#9E4539"/>
<path d="M27.6666 30H24.3333V33.3333H27.6666V30Z" fill="#9E4539"/>
<path d="M31.0001 30H27.6667V33.3333H31.0001V30Z" fill="#9E4539"/>
<path d="M34.3333 30H31V33.3333H34.3333V30Z" fill="#9E4539"/>
<path d="M37.6666 30H34.3333V33.3333H37.6666V30Z" fill="#9E4539"/>
<path d="M41.0001 30H37.6667V33.3333H41.0001V30Z" fill="#060608"/>
<path d="M44.3333 30H41V33.3333H44.3333V30Z" fill="#E6904E"/>
<path d="M47.6666 30H44.3333V33.3333H47.6666V30Z" fill="#E6904E"/>
<path d="M51.0001 30H47.6667V33.3333H51.0001V30Z" fill="#E6904E"/>
<path d="M54.3333 30H51V33.3333H54.3333V30Z" fill="#060608"/>
<path d="M57.6666 30H54.3333V33.3333H57.6666V30Z" fill="#9E4539"/>
<path d="M61.0001 30H57.6667V33.3333H61.0001V30Z" fill="#9E4539"/>
<path d="M64.3333 30H61V33.3333H64.3333V30Z" fill="#9E4539"/>
<path d="M67.6666 30H64.3333V33.3333H67.6666V30Z" fill="#9E4539"/>
<path d="M71.0001 30H67.6667V33.3333H71.0001V30Z" fill="#9E4539"/>
<path d="M74.3333 30H71V33.3333H74.3333V30Z" fill="#9E4539"/>
<path d="M77.6666 30H74.3333V33.3333H77.6666V30Z" fill="#9E4539"/>
<path d="M81.0001 30H77.6667V33.3333H81.0001V30Z" fill="#9E4539"/>
<path d="M84.3333 30H81V33.3333H84.3333V30Z" fill="#9E4539"/>
<path d="M87.6666 30H84.3333V33.3333H87.6666V30Z" fill="#9E4539"/>
<path d="M91.0001 30H87.6667V33.3333H91.0001V30Z" fill="#9E4539"/>
<path d="M94.3333 30H91V33.3333H94.3333V30Z" fill="#9E4539"/>
<path d="M97.6666 30H94.3333V33.3333H97.6666V30Z" fill="#9E4539"/>
<path d="M101 30H97.6667V33.3333H101V30Z" fill="#9E4539"/>
<path d="M4.33333 33.3333H1V36.6666H4.33333V33.3333Z" fill="#9E4539"/>
<path d="M7.66659 33.3333H4.33325V36.6666H7.66659V33.3333Z" fill="#9E4539"/>
<path d="M11.0001 33.3333H7.66675V36.6666H11.0001V33.3333Z" fill="#9E4539"/>
<path d="M14.3333 33.3333H11V36.6666H14.3333V33.3333Z" fill="#9E4539"/>
<path d="M17.6666 33.3333H14.3333V36.6666H17.6666V33.3333Z" fill="#9E4539"/>
<path d="M21.0001 33.3333H17.6667V36.6666H21.0001V33.3333Z" fill="#9E4539"/>
<path d="M24.3333 33.3333H21V36.6666H24.3333V33.3333Z" fill="#9E4539"/>
<path d="M27.6666 33.3333H24.3333V36.6666H27.6666V33.3333Z" fill="#9E4539"/>
<path d="M31.0001 33.3333H27.6667V36.6666H31.0001V33.3333Z" fill="#9E4539"/>
<path d="M34.3333 33.3333H31V36.6666H34.3333V33.3333Z" fill="#9E4539"/>
<path d="M37.6666 33.3333H34.3333V36.6666H37.6666V33.3333Z" fill="#9E4539"/>
<path d="M41.0001 33.3333H37.6667V36.6666H41.0001V33.3333Z" fill="#060608"/>
<path d="M44.3333 33.3333H41V36.6666H44.3333V33.3333Z" fill="#E6904E"/>
<path d="M47.6666 33.3333H44.3333V36.6666H47.6666V33.3333Z" fill="#E6904E"/>
<path d="M51.0001 33.3333H47.6667V36.6666H51.0001V33.3333Z" fill="#E6904E"/>
<path d="M54.3333 33.3333H51V36.6666H54.3333V33.3333Z" fill="#E6904E"/>
<path d="M57.6666 33.3333H54.3333V36.6666H57.6666V33.3333Z" fill="#060608"/>
<path d="M61.0001 33.3333H57.6667V36.6666H61.0001V33.3333Z" fill="#9E4539"/>
<path d="M64.3333 33.3333H61V36.6666H64.3333V33.3333Z" fill="#9E4539"/>
<path d="M67.6666 33.3333H64.3333V36.6666H67.6666V33.3333Z" fill="#9E4539"/>
<path d="M71.0001 33.3333H67.6667V36.6666H71.0001V33.3333Z" fill="#9E4539"/>
<path d="M74.3333 33.3333H71V36.6666H74.3333V33.3333Z" fill="#9E4539"/>
<path d="M77.6666 33.3333H74.3333V36.6666H77.6666V33.3333Z" fill="#9E4539"/>
<path d="M81.0001 33.3333H77.6667V36.6666H81.0001V33.3333Z" fill="#9E4539"/>
<path d="M84.3333 33.3333H81V36.6666H84.3333V33.3333Z" fill="#9E4539"/>
<path d="M87.6666 33.3333H84.3333V36.6666H87.6666V33.3333Z" fill="#9E4539"/>
<path d="M91.0001 33.3333H87.6667V36.6666H91.0001V33.3333Z" fill="#9E4539"/>
<path d="M94.3333 33.3333H91V36.6666H94.3333V33.3333Z" fill="#9E4539"/>
<path d="M97.6666 33.3333H94.3333V36.6666H97.6666V33.3333Z" fill="#9E4539"/>
<path d="M101 33.3333H97.6667V36.6666H101V33.3333Z" fill="#9E4539"/>
<path d="M4.33333 36.6667H1V40.0001H4.33333V36.6667Z" fill="#9E4539"/>
<path d="M7.66659 36.6667H4.33325V40.0001H7.66659V36.6667Z" fill="#9E4539"/>
<path d="M11.0001 36.6667H7.66675V40.0001H11.0001V36.6667Z" fill="#9E4539"/>
<path d="M14.3333 36.6667H11V40.0001H14.3333V36.6667Z" fill="#9E4539"/>
<path d="M17.6666 36.6667H14.3333V40.0001H17.6666V36.6667Z" fill="#9E4539"/>
<path d="M21.0001 36.6667H17.6667V40.0001H21.0001V36.6667Z" fill="#9E4539"/>
<path d="M24.3333 36.6667H21V40.0001H24.3333V36.6667Z" fill="#9E4539"/>
<path d="M27.6666 36.6667H24.3333V40.0001H27.6666V36.6667Z" fill="#9E4539"/>
<path d="M31.0001 36.6667H27.6667V40.0001H31.0001V36.6667Z" fill="#9E4539"/>
<path d="M34.3333 36.6667H31V40.0001H34.3333V36.6667Z" fill="#9E4539"/>
<path d="M37.6666 36.6667H34.3333V40.0001H37.6666V36.6667Z" fill="#9E4539"/>
<path d="M41.0001 36.6667H37.6667V40.0001H41.0001V36.6667Z" fill="#060608"/>
<path d="M44.3333 36.6667H41V40.0001H44.3333V36.6667Z" fill="#E6904E"/>
<path d="M47.6666 36.6667H44.3333V40.0001H47.6666V36.6667Z" fill="#E6904E"/>
<path d="M51.0001 36.6667H47.6667V40.0001H51.0001V36.6667Z" fill="#E6904E"/>
<path d="M54.3333 36.6667H51V40.0001H54.3333V36.6667Z" fill="#E6904E"/>
<path d="M57.6666 36.6667H54.3333V40.0001H57.6666V36.6667Z" fill="#E6904E"/>
<path d="M61.0001 36.6667H57.6667V40.0001H61.0001V36.6667Z" fill="#060608"/>
<path d="M64.3333 36.6667H61V40.0001H64.3333V36.6667Z" fill="#9E4539"/>
<path d="M67.6666 36.6667H64.3333V40.0001H67.6666V36.6667Z" fill="#9E4539"/>
<path d="M71.0001 36.6667H67.6667V40.0001H71.0001V36.6667Z" fill="#9E4539"/>
<path d="M74.3333 36.6667H71V40.0001H74.3333V36.6667Z" fill="#9E4539"/>
<path d="M77.6666 36.6667H74.3333V40.0001H77.6666V36.6667Z" fill="#9E4539"/>
<path d="M81.0001 36.6667H77.6667V40.0001H81.0001V36.6667Z" fill="#9E4539"/>
<path d="M84.3333 36.6667H81V40.0001H84.3333V36.6667Z" fill="#9E4539"/>
<path d="M87.6666 36.6667H84.3333V40.0001H87.6666V36.6667Z" fill="#9E4539"/>
<path d="M91.0001 36.6667H87.6667V40.0001H91.0001V36.6667Z" fill="#9E4539"/>
<path d="M94.3333 36.6667H91V40.0001H94.3333V36.6667Z" fill="#9E4539"/>
<path d="M97.6666 36.6667H94.3333V40.0001H97.6666V36.6667Z" fill="#9E4539"/>
<path d="M101 36.6667H97.6667V40.0001H101V36.6667Z" fill="#9E4539"/>
<path d="M4.33333 40H1V43.3333H4.33333V40Z" fill="#9E4539"/>
<path d="M7.66659 40H4.33325V43.3333H7.66659V40Z" fill="#9E4539"/>
<path d="M11.0001 40H7.66675V43.3333H11.0001V40Z" fill="#9E4539"/>
<path d="M14.3333 40H11V43.3333H14.3333V40Z" fill="#9E4539"/>
<path d="M17.6666 40H14.3333V43.3333H17.6666V40Z" fill="#9E4539"/>
<path d="M21.0001 40H17.6667V43.3333H21.0001V40Z" fill="#9E4539"/>
<path d="M24.3333 40H21V43.3333H24.3333V40Z" fill="#9E4539"/>
<path d="M27.6666 40H24.3333V43.3333H27.6666V40Z" fill="#9E4539"/>
<path d="M31.0001 40H27.6667V43.3333H31.0001V40Z" fill="#9E4539"/>
<path d="M34.3333 40H31V43.3333H34.3333V40Z" fill="#9E4539"/>
<path d="M37.6666 40H34.3333V43.3333H37.6666V40Z" fill="#9E4539"/>
<path d="M41.0001 40H37.6667V43.3333H41.0001V40Z" fill="#060608"/>
<path d="M44.3333 40H41V43.3333H44.3333V40Z" fill="#E6904E"/>
<path d="M47.6666 40H44.3333V43.3333H47.6666V40Z" fill="#E6904E"/>
<path d="M51.0001 40H47.6667V43.3333H51.0001V40Z" fill="#E6904E"/>
<path d="M54.3333 40H51V43.3333H54.3333V40Z" fill="#E6904E"/>
<path d="M57.6666 40H54.3333V43.3333H57.6666V40Z" fill="#E6904E"/>
<path d="M61.0001 40H57.6667V43.3333H61.0001V40Z" fill="#E6904E"/>
<path d="M64.3333 40H61V43.3333H64.3333V40Z" fill="#060608"/>
<path d="M67.6666 40H64.3333V43.3333H67.6666V40Z" fill="#9E4539"/>
<path d="M71.0001 40H67.6667V43.3333H71.0001V40Z" fill="#9E4539"/>
<path d="M74.3333 40H71V43.3333H74.3333V40Z" fill="#9E4539"/>
<path d="M77.6666 40H74.3333V43.3333H77.6666V40Z" fill="#9E4539"/>
<path d="M81.0001 40H77.6667V43.3333H81.0001V40Z" fill="#9E4539"/>
<path d="M84.3333 40H81V43.3333H84.3333V40Z" fill="#9E4539"/>
<path d="M87.6666 40H84.3333V43.3333H87.6666V40Z" fill="#9E4539"/>
<path d="M91.0001 40H87.6667V43.3333H91.0001V40Z" fill="#9E4539"/>
<path d="M94.3333 40H91V43.3333H94.3333V40Z" fill="#9E4539"/>
<path d="M97.6666 40H94.3333V43.3333H97.6666V40Z" fill="#9E4539"/>
<path d="M101 40H97.6667V43.3333H101V40Z" fill="#9E4539"/>
<path d="M4.33333 43.3333H1V46.6666H4.33333V43.3333Z" fill="#9E4539"/>
<path d="M7.66659 43.3333H4.33325V46.6666H7.66659V43.3333Z" fill="#9E4539"/>
<path d="M11.0001 43.3333H7.66675V46.6666H11.0001V43.3333Z" fill="#9E4539"/>
<path d="M14.3333 43.3333H11V46.6666H14.3333V43.3333Z" fill="#9E4539"/>
<path d="M17.6666 43.3333H14.3333V46.6666H17.6666V43.3333Z" fill="#9E4539"/>
<path d="M21.0001 43.3333H17.6667V46.6666H21.0001V43.3333Z" fill="#9E4539"/>
<path d="M24.3333 43.3333H21V46.6666H24.3333V43.3333Z" fill="#9E4539"/>
<path d="M27.6666 43.3333H24.3333V46.6666H27.6666V43.3333Z" fill="#9E4539"/>
<path d="M31.0001 43.3333H27.6667V46.6666H31.0001V43.3333Z" fill="#9E4539"/>
<path d="M34.3333 43.3333H31V46.6666H34.3333V43.3333Z" fill="#9E4539"/>
<path d="M37.6666 43.3333H34.3333V46.6666H37.6666V43.3333Z" fill="#9E4539"/>
<path d="M41.0001 43.3333H37.6667V46.6666H41.0001V43.3333Z" fill="#060608"/>
<path d="M44.3333 43.3333H41V46.6666H44.3333V43.3333Z" fill="#E6904E"/>
<path d="M47.6666 43.3333H44.3333V46.6666H47.6666V43.3333Z" fill="#E6904E"/>
<path d="M51.0001 43.3333H47.6667V46.6666H51.0001V43.3333Z" fill="#E6904E"/>
<path d="M54.3333 43.3333H51V46.6666H54.3333V43.3333Z" fill="#E6904E"/>
<path d="M57.6666 43.3333H54.3333V46.6666H57.6666V43.3333Z" fill="#E6904E"/>
<path d="M61.0001 43.3333H57.6667V46.6666H61.0001V43.3333Z" fill="#E6904E"/>
<path d="M64.3333 43.3333H61V46.6666H64.3333V43.3333Z" fill="#E6904E"/>
<path d="M67.6666 43.3333H64.3333V46.6666H67.6666V43.3333Z" fill="#060608"/>
<path d="M71.0001 43.3333H67.6667V46.6666H71.0001V43.3333Z" fill="#9E4539"/>
<path d="M74.3333 43.3333H71V46.6666H74.3333V43.3333Z" fill="#9E4539"/>
<path d="M77.6666 43.3333H74.3333V46.6666H77.6666V43.3333Z" fill="#9E4539"/>
<path d="M81.0001 43.3333H77.6667V46.6666H81.0001V43.3333Z" fill="#9E4539"/>
<path d="M84.3333 43.3333H81V46.6666H84.3333V43.3333Z" fill="#9E4539"/>
<path d="M87.6666 43.3333H84.3333V46.6666H87.6666V43.3333Z" fill="#9E4539"/>
<path d="M91.0001 43.3333H87.6667V46.6666H91.0001V43.3333Z" fill="#9E4539"/>
<path d="M94.3333 43.3333H91V46.6666H94.3333V43.3333Z" fill="#9E4539"/>
<path d="M97.6666 43.3333H94.3333V46.6666H97.6666V43.3333Z" fill="#9E4539"/>
<path d="M101 43.3333H97.6667V46.6666H101V43.3333Z" fill="#9E4539"/>
<path d="M4.33333 46.6667H1V50.0001H4.33333V46.6667Z" fill="#9E4539"/>
<path d="M7.66659 46.6667H4.33325V50.0001H7.66659V46.6667Z" fill="#9E4539"/>
<path d="M11.0001 46.6667H7.66675V50.0001H11.0001V46.6667Z" fill="#9E4539"/>
<path d="M14.3333 46.6667H11V50.0001H14.3333V46.6667Z" fill="#9E4539"/>
<path d="M17.6666 46.6667H14.3333V50.0001H17.6666V46.6667Z" fill="#9E4539"/>
<path d="M21.0001 46.6667H17.6667V50.0001H21.0001V46.6667Z" fill="#9E4539"/>
<path d="M24.3333 46.6667H21V50.0001H24.3333V46.6667Z" fill="#9E4539"/>
<path d="M27.6666 46.6667H24.3333V50.0001H27.6666V46.6667Z" fill="#9E4539"/>
<path d="M31.0001 46.6667H27.6667V50.0001H31.0001V46.6667Z" fill="#9E4539"/>
<path d="M34.3333 46.6667H31V50.0001H34.3333V46.6667Z" fill="#9E4539"/>
<path d="M37.6666 46.6667H34.3333V50.0001H37.6666V46.6667Z" fill="#9E4539"/>
<path d="M41.0001 46.6667H37.6667V50.0001H41.0001V46.6667Z" fill="#060608"/>
<path d="M44.3333 46.6667H41V50.0001H44.3333V46.6667Z" fill="#E6904E"/>
<path d="M47.6666 46.6667H44.3333V50.0001H47.6666V46.6667Z" fill="#E6904E"/>
<path d="M51.0001 46.6667H47.6667V50.0001H51.0001V46.6667Z" fill="#E6904E"/>
<path d="M54.3333 46.6667H51V50.0001H54.3333V46.6667Z" fill="#E6904E"/>
<path d="M57.6666 46.6667H54.3333V50.0001H57.6666V46.6667Z" fill="#E6904E"/>
<path d="M61.0001 46.6667H57.6667V50.0001H61.0001V46.6667Z" fill="#E6904E"/>
<path d="M64.3333 46.6667H61V50.0001H64.3333V46.6667Z" fill="#E6904E"/>
<path d="M67.6666 46.6667H64.3333V50.0001H67.6666V46.6667Z" fill="#E6904E"/>
<path d="M71.0001 46.6667H67.6667V50.0001H71.0001V46.6667Z" fill="#060608"/>
<path d="M74.3333 46.6667H71V50.0001H74.3333V46.6667Z" fill="#9E4539"/>
<path d="M77.6666 46.6667H74.3333V50.0001H77.6666V46.6667Z" fill="#9E4539"/>
<path d="M81.0001 46.6667H77.6667V50.0001H81.0001V46.6667Z" fill="#9E4539"/>
<path d="M84.3333 46.6667H81V50.0001H84.3333V46.6667Z" fill="#9E4539"/>
<path d="M87.6666 46.6667H84.3333V50.0001H87.6666V46.6667Z" fill="#9E4539"/>
<path d="M91.0001 46.6667H87.6667V50.0001H91.0001V46.6667Z" fill="#9E4539"/>
<path d="M94.3333 46.6667H91V50.0001H94.3333V46.6667Z" fill="#9E4539"/>
<path d="M97.6666 46.6667H94.3333V50.0001H97.6666V46.6667Z" fill="#9E4539"/>
<path d="M101 46.6667H97.6667V50.0001H101V46.6667Z" fill="#9E4539"/>
<path d="M4.33333 50H1V53.3333H4.33333V50Z" fill="#9E4539"/>
<path d="M7.66659 50H4.33325V53.3333H7.66659V50Z" fill="#9E4539"/>
<path d="M11.0001 50H7.66675V53.3333H11.0001V50Z" fill="#9E4539"/>
<path d="M14.3333 50H11V53.3333H14.3333V50Z" fill="#9E4539"/>
<path d="M17.6666 50H14.3333V53.3333H17.6666V50Z" fill="#9E4539"/>
<path d="M21.0001 50H17.6667V53.3333H21.0001V50Z" fill="#9E4539"/>
<path d="M24.3333 50H21V53.3333H24.3333V50Z" fill="#9E4539"/>
<path d="M27.6666 50H24.3333V53.3333H27.6666V50Z" fill="#9E4539"/>
<path d="M31.0001 50H27.6667V53.3333H31.0001V50Z" fill="#9E4539"/>
<path d="M34.3333 50H31V53.3333H34.3333V50Z" fill="#9E4539"/>
<path d="M37.6666 50H34.3333V53.3333H37.6666V50Z" fill="#9E4539"/>
<path d="M41.0001 50H37.6667V53.3333H41.0001V50Z" fill="#060608"/>
<path d="M44.3333 50H41V53.3333H44.3333V50Z" fill="#E6904E"/>
<path d="M47.6666 50H44.3333V53.3333H47.6666V50Z" fill="#E6904E"/>
<path d="M51.0001 50H47.6667V53.3333H51.0001V50Z" fill="#E6904E"/>
<path d="M54.3333 50H51V53.3333H54.3333V50Z" fill="#E6904E"/>
<path d="M57.6666 50H54.3333V53.3333H57.6666V50Z" fill="#E6904E"/>
<path d="M61.0001 50H57.6667V53.3333H61.0001V50Z" fill="#E6904E"/>
<path d="M64.3333 50H61V53.3333H64.3333V50Z" fill="#E6904E"/>
<path d="M67.6666 50H64.3333V53.3333H67.6666V50Z" fill="#E6904E"/>
<path d="M71.0001 50H67.6667V53.3333H71.0001V50Z" fill="#E6904E"/>
<path d="M74.3333 50H71V53.3333H74.3333V50Z" fill="#060608"/>
<path d="M77.6666 50H74.3333V53.3333H77.6666V50Z" fill="#9E4539"/>
<path d="M81.0001 50H77.6667V53.3333H81.0001V50Z" fill="#9E4539"/>
<path d="M84.3333 50H81V53.3333H84.3333V50Z" fill="#9E4539"/>
<path d="M87.6666 50H84.3333V53.3333H87.6666V50Z" fill="#9E4539"/>
<path d="M91.0001 50H87.6667V53.3333H91.0001V50Z" fill="#9E4539"/>
<path d="M94.3333 50H91V53.3333H94.3333V50Z" fill="#9E4539"/>
<path d="M97.6666 50H94.3333V53.3333H97.6666V50Z" fill="#9E4539"/>
<path d="M101 50H97.6667V53.3333H101V50Z" fill="#9E4539"/>
<path d="M4.33333 53.3333H1V56.6666H4.33333V53.3333Z" fill="#9E4539"/>
<path d="M7.66659 53.3333H4.33325V56.6666H7.66659V53.3333Z" fill="#9E4539"/>
<path d="M11.0001 53.3333H7.66675V56.6666H11.0001V53.3333Z" fill="#9E4539"/>
<path d="M14.3333 53.3333H11V56.6666H14.3333V53.3333Z" fill="#9E4539"/>
<path d="M17.6666 53.3333H14.3333V56.6666H17.6666V53.3333Z" fill="#9E4539"/>
<path d="M21.0001 53.3333H17.6667V56.6666H21.0001V53.3333Z" fill="#9E4539"/>
<path d="M24.3333 53.3333H21V56.6666H24.3333V53.3333Z" fill="#9E4539"/>
<path d="M27.6666 53.3333H24.3333V56.6666H27.6666V53.3333Z" fill="#9E4539"/>
<path d="M31.0001 53.3333H27.6667V56.6666H31.0001V53.3333Z" fill="#9E4539"/>
<path d="M34.3333 53.3333H31V56.6666H34.3333V53.3333Z" fill="#9E4539"/>
<path d="M37.6666 53.3333H34.3333V56.6666H37.6666V53.3333Z" fill="#9E4539"/>
<path d="M41.0001 53.3333H37.6667V56.6666H41.0001V53.3333Z" fill="#060608"/>
<path d="M44.3333 53.3333H41V56.6666H44.3333V53.3333Z" fill="#E6904E"/>
<path d="M47.6666 53.3333H44.3333V56.6666H47.6666V53.3333Z" fill="#E6904E"/>
<path d="M51.0001 53.3333H47.6667V56.6666H51.0001V53.3333Z" fill="#E6904E"/>
<path d="M54.3333 53.3333H51V56.6666H54.3333V53.3333Z" fill="#E6904E"/>
<path d="M57.6666 53.3333H54.3333V56.6666H57.6666V53.3333Z" fill="#E6904E"/>
<path d="M61.0001 53.3333H57.6667V56.6666H61.0001V53.3333Z" fill="#E6904E"/>
<path d="M64.3333 53.3333H61V56.6666H64.3333V53.3333Z" fill="#E6904E"/>
<path d="M67.6666 53.3333H64.3333V56.6666H67.6666V53.3333Z" fill="#E6904E"/>
<path d="M71.0001 53.3333H67.6667V56.6666H71.0001V53.3333Z" fill="#E6904E"/>
<path d="M74.3333 53.3333H71V56.6666H74.3333V53.3333Z" fill="#E6904E"/>
<path d="M77.6666 53.3333H74.3333V56.6666H77.6666V53.3333Z" fill="#060608"/>
<path d="M81.0001 53.3333H77.6667V56.6666H81.0001V53.3333Z" fill="#9E4539"/>
<path d="M84.3333 53.3333H81V56.6666H84.3333V53.3333Z" fill="#9E4539"/>
<path d="M87.6666 53.3333H84.3333V56.6666H87.6666V53.3333Z" fill="#9E4539"/>
<path d="M91.0001 53.3333H87.6667V56.6666H91.0001V53.3333Z" fill="#9E4539"/>
<path d="M94.3333 53.3333H91V56.6666H94.3333V53.3333Z" fill="#9E4539"/>
<path d="M97.6666 53.3333H94.3333V56.6666H97.6666V53.3333Z" fill="#9E4539"/>
<path d="M101 53.3333H97.6667V56.6666H101V53.3333Z" fill="#9E4539"/>
<path d="M4.33333 56.6667H1V60.0001H4.33333V56.6667Z" fill="#9E4539"/>
<path d="M7.66659 56.6667H4.33325V60.0001H7.66659V56.6667Z" fill="#9E4539"/>
<path d="M11.0001 56.6667H7.66675V60.0001H11.0001V56.6667Z" fill="#9E4539"/>
<path d="M14.3333 56.6667H11V60.0001H14.3333V56.6667Z" fill="#9E4539"/>
<path d="M17.6666 56.6667H14.3333V60.0001H17.6666V56.6667Z" fill="#9E4539"/>
<path d="M21.0001 56.6667H17.6667V60.0001H21.0001V56.6667Z" fill="#9E4539"/>
<path d="M24.3333 56.6667H21V60.0001H24.3333V56.6667Z" fill="#9E4539"/>
<path d="M27.6666 56.6667H24.3333V60.0001H27.6666V56.6667Z" fill="#9E4539"/>
<path d="M31.0001 56.6667H27.6667V60.0001H31.0001V56.6667Z" fill="#9E4539"/>
<path d="M34.3333 56.6667H31V60.0001H34.3333V56.6667Z" fill="#9E4539"/>
<path d="M37.6666 56.6667H34.3333V60.0001H37.6666V56.6667Z" fill="#9E4539"/>
<path d="M41.0001 56.6667H37.6667V60.0001H41.0001V56.6667Z" fill="#060608"/>
<path d="M44.3333 56.6667H41V60.0001H44.3333V56.6667Z" fill="#E6904E"/>
<path d="M47.6666 56.6667H44.3333V60.0001H47.6666V56.6667Z" fill="#E6904E"/>
<path d="M51.0001 56.6667H47.6667V60.0001H51.0001V56.6667Z" fill="#E6904E"/>
<path d="M54.3333 56.6667H51V60.0001H54.3333V56.6667Z" fill="#E6904E"/>
<path d="M57.6666 56.6667H54.3333V60.0001H57.6666V56.6667Z" fill="#E6904E"/>
<path d="M61.0001 56.6667H57.6667V60.0001H61.0001V56.6667Z" fill="#E6904E"/>
<path d="M64.3333 56.6667H61V60.0001H64.3333V56.6667Z" fill="#E6904E"/>
<path d="M67.6666 56.6667H64.3333V60.0001H67.6666V56.6667Z" fill="#E6904E"/>
<path d="M71.0001 56.6667H67.6667V60.0001H71.0001V56.6667Z" fill="#E6904E"/>
<path d="M74.3333 56.6667H71V60.0001H74.3333V56.6667Z" fill="#E6904E"/>
<path d="M77.6666 56.6667H74.3333V60.0001H77.6666V56.6667Z" fill="#E6904E"/>
<path d="M81.0001 56.6667H77.6667V60.0001H81.0001V56.6667Z" fill="#060608"/>
<path d="M84.3333 56.6667H81V60.0001H84.3333V56.6667Z" fill="#9E4539"/>
<path d="M87.6666 56.6667H84.3333V60.0001H87.6666V56.6667Z" fill="#9E4539"/>
<path d="M91.0001 56.6667H87.6667V60.0001H91.0001V56.6667Z" fill="#9E4539"/>
<path d="M94.3333 56.6667H91V60.0001H94.3333V56.6667Z" fill="#9E4539"/>
<path d="M97.6666 56.6667H94.3333V60.0001H97.6666V56.6667Z" fill="#9E4539"/>
<path d="M101 56.6667H97.6667V60.0001H101V56.6667Z" fill="#9E4539"/>
<path d="M4.33333 60H1V63.3333H4.33333V60Z" fill="#9E4539"/>
<path d="M7.66659 60H4.33325V63.3333H7.66659V60Z" fill="#9E4539"/>
<path d="M11.0001 60H7.66675V63.3333H11.0001V60Z" fill="#9E4539"/>
<path d="M14.3333 60H11V63.3333H14.3333V60Z" fill="#9E4539"/>
<path d="M17.6666 60H14.3333V63.3333H17.6666V60Z" fill="#9E4539"/>
<path d="M21.0001 60H17.6667V63.3333H21.0001V60Z" fill="#9E4539"/>
<path d="M24.3333 60H21V63.3333H24.3333V60Z" fill="#9E4539"/>
<path d="M27.6666 60H24.3333V63.3333H27.6666V60Z" fill="#9E4539"/>
<path d="M31.0001 60H27.6667V63.3333H31.0001V60Z" fill="#9E4539"/>
<path d="M34.3333 60H31V63.3333H34.3333V60Z" fill="#9E4539"/>
<path d="M37.6666 60H34.3333V63.3333H37.6666V60Z" fill="#9E4539"/>
<path d="M41.0001 60H37.6667V63.3333H41.0001V60Z" fill="#060608"/>
<path d="M44.3333 60H41V63.3333H44.3333V60Z" fill="#E6904E"/>
<path d="M47.6666 60H44.3333V63.3333H47.6666V60Z" fill="#E6904E"/>
<path d="M51.0001 60H47.6667V63.3333H51.0001V60Z" fill="#E6904E"/>
<path d="M54.3333 60H51V63.3333H54.3333V60Z" fill="#E6904E"/>
<path d="M57.6666 60H54.3333V63.3333H57.6666V60Z" fill="#E6904E"/>
<path d="M61.0001 60H57.6667V63.3333H61.0001V60Z" fill="#E6904E"/>
<path d="M64.3333 60H61V63.3333H64.3333V60Z" fill="#E6904E"/>
<path d="M67.6666 60H64.3333V63.3333H67.6666V60Z" fill="#E6904E"/>
<path d="M71.0001 60H67.6667V63.3333H71.0001V60Z" fill="#E6904E"/>
<path d="M74.3333 60H71V63.3333H74.3333V60Z" fill="#E6904E"/>
<path d="M77.6666 60H74.3333V63.3333H77.6666V60Z" fill="#E6904E"/>
<path d="M81.0001 60H77.6667V63.3333H81.0001V60Z" fill="#E6904E"/>
<path d="M84.3333 60H81V63.3333H84.3333V60Z" fill="#060608"/>
<path d="M87.6666 60H84.3333V63.3333H87.6666V60Z" fill="#9E4539"/>
<path d="M91.0001 60H87.6667V63.3333H91.0001V60Z" fill="#9E4539"/>
<path d="M94.3333 60H91V63.3333H94.3333V60Z" fill="#9E4539"/>
<path d="M97.6666 60H94.3333V63.3333H97.6666V60Z" fill="#9E4539"/>
<path d="M101 60H97.6667V63.3333H101V60Z" fill="#9E4539"/>
<path d="M4.33333 63.3333H1V66.6666H4.33333V63.3333Z" fill="#9E4539"/>
<path d="M7.66659 63.3333H4.33325V66.6666H7.66659V63.3333Z" fill="#9E4539"/>
<path d="M11.0001 63.3333H7.66675V66.6666H11.0001V63.3333Z" fill="#9E4539"/>
<path d="M14.3333 63.3333H11V66.6666H14.3333V63.3333Z" fill="#9E4539"/>
<path d="M17.6666 63.3333H14.3333V66.6666H17.6666V63.3333Z" fill="#9E4539"/>
<path d="M21.0001 63.3333H17.6667V66.6666H21.0001V63.3333Z" fill="#9E4539"/>
<path d="M24.3333 63.3333H21V66.6666H24.3333V63.3333Z" fill="#9E4539"/>
<path d="M27.6666 63.3333H24.3333V66.6666H27.6666V63.3333Z" fill="#9E4539"/>
<path d="M31.0001 63.3333H27.6667V66.6666H31.0001V63.3333Z" fill="#9E4539"/>
<path d="M34.3333 63.3333H31V66.6666H34.3333V63.3333Z" fill="#9E4539"/>
<path d="M37.6666 63.3333H34.3333V66.6666H37.6666V63.3333Z" fill="#9E4539"/>
<path d="M41.0001 63.3333H37.6667V66.6666H41.0001V63.3333Z" fill="#060608"/>
<path d="M44.3333 63.3333H41V66.6666H44.3333V63.3333Z" fill="#E6904E"/>
<path d="M47.6666 63.3333H44.3333V66.6666H47.6666V63.3333Z" fill="#E6904E"/>
<path d="M51.0001 63.3333H47.6667V66.6666H51.0001V63.3333Z" fill="#E6904E"/>
<path d="M54.3333 63.3333H51V66.6666H54.3333V63.3333Z" fill="#E6904E"/>
<path d="M57.6666 63.3333H54.3333V66.6666H57.6666V63.3333Z" fill="#E6904E"/>
<path d="M61.0001 63.3333H57.6667V66.6666H61.0001V63.3333Z" fill="#060608"/>
<path d="M64.3333 63.3333H61V66.6666H64.3333V63.3333Z" fill="#060608"/>
<path d="M67.6666 63.3333H64.3333V66.6666H67.6666V63.3333Z" fill="#060608"/>
<path d="M71.0001 63.3333H67.6667V66.6666H71.0001V63.3333Z" fill="#060608"/>
<path d="M74.3333 63.3333H71V66.6666H74.3333V63.3333Z" fill="#060608"/>
<path d="M77.6666 63.3333H74.3333V66.6666H77.6666V63.3333Z" fill="#060608"/>
<path d="M81.0001 63.3333H77.6667V66.6666H81.0001V63.3333Z" fill="#060608"/>
<path d="M84.3333 63.3333H81V66.6666H84.3333V63.3333Z" fill="#060608"/>
<path d="M87.6666 63.3333H84.3333V66.6666H87.6666V63.3333Z" fill="#9E4539"/>
<path d="M91.0001 63.3333H87.6667V66.6666H91.0001V63.3333Z" fill="#9E4539"/>
<path d="M94.3333 63.3333H91V66.6666H94.3333V63.3333Z" fill="#9E4539"/>
<path d="M97.6666 63.3333H94.3333V66.6666H97.6666V63.3333Z" fill="#9E4539"/>
<path d="M101 63.3333H97.6667V66.6666H101V63.3333Z" fill="#9E4539"/>
<path d="M4.33333 66.6667H1V70.0001H4.33333V66.6667Z" fill="#9E4539"/>
<path d="M7.66659 66.6667H4.33325V70.0001H7.66659V66.6667Z" fill="#9E4539"/>
<path d="M11.0001 66.6667H7.66675V70.0001H11.0001V66.6667Z" fill="#9E4539"/>
<path d="M14.3333 66.6667H11V70.0001H14.3333V66.6667Z" fill="#9E4539"/>
<path d="M17.6666 66.6667H14.3333V70.0001H17.6666V66.6667Z" fill="#9E4539"/>
<path d="M21.0001 66.6667H17.6667V70.0001H21.0001V66.6667Z" fill="#9E4539"/>
<path d="M24.3333 66.6667H21V70.0001H24.3333V66.6667Z" fill="#9E4539"/>
<path d="M27.6666 66.6667H24.3333V70.0001H27.6666V66.6667Z" fill="#9E4539"/>
<path d="M31.0001 66.6667H27.6667V70.0001H31.0001V66.6667Z" fill="#9E4539"/>
<path d="M34.3333 66.6667H31V70.0001H34.3333V66.6667Z" fill="#9E4539"/>
<path d="M37.6666 66.6667H34.3333V70.0001H37.6666V66.6667Z" fill="#9E4539"/>
<path d="M41.0001 66.6667H37.6667V70.0001H41.0001V66.6667Z" fill="#060608"/>
<path d="M44.3333 66.6667H41V70.0001H44.3333V66.6667Z" fill="#E6904E"/>
<path d="M47.6666 66.6667H44.3333V70.0001H47.6666V66.6667Z" fill="#E6904E"/>
<path d="M51.0001 66.6667H47.6667V70.0001H51.0001V66.6667Z" fill="#E6904E"/>
<path d="M54.3333 66.6667H51V70.0001H54.3333V66.6667Z" fill="#E6904E"/>
<path d="M57.6666 66.6667H54.3333V70.0001H57.6666V66.6667Z" fill="#060608"/>
<path d="M61.0001 66.6667H57.6667V70.0001H61.0001V66.6667Z" fill="#9E4539"/>
<path d="M64.3333 66.6667H61V70.0001H64.3333V66.6667Z" fill="#9E4539"/>
<path d="M67.6666 66.6667H64.3333V70.0001H67.6666V66.6667Z" fill="#9E4539"/>
<path d="M71.0001 66.6667H67.6667V70.0001H71.0001V66.6667Z" fill="#9E4539"/>
<path d="M74.3333 66.6667H71V70.0001H74.3333V66.6667Z" fill="#9E4539"/>
<path d="M77.6666 66.6667H74.3333V70.0001H77.6666V66.6667Z" fill="#9E4539"/>
<path d="M81.0001 66.6667H77.6667V70.0001H81.0001V66.6667Z" fill="#9E4539"/>
<path d="M84.3333 66.6667H81V70.0001H84.3333V66.6667Z" fill="#9E4539"/>
<path d="M87.6666 66.6667H84.3333V70.0001H87.6666V66.6667Z" fill="#9E4539"/>
<path d="M91.0001 66.6667H87.6667V70.0001H91.0001V66.6667Z" fill="#9E4539"/>
<path d="M94.3333 66.6667H91V70.0001H94.3333V66.6667Z" fill="#9E4539"/>
<path d="M97.6666 66.6667H94.3333V70.0001H97.6666V66.6667Z" fill="#9E4539"/>
<path d="M101 66.6667H97.6667V70.0001H101V66.6667Z" fill="#9E4539"/>
<path d="M4.33333 70H1V73.3333H4.33333V70Z" fill="#9E4539"/>
<path d="M7.66659 70H4.33325V73.3333H7.66659V70Z" fill="#9E4539"/>
<path d="M11.0001 70H7.66675V73.3333H11.0001V70Z" fill="#9E4539"/>
<path d="M14.3333 70H11V73.3333H14.3333V70Z" fill="#9E4539"/>
<path d="M17.6666 70H14.3333V73.3333H17.6666V70Z" fill="#9E4539"/>
<path d="M21.0001 70H17.6667V73.3333H21.0001V70Z" fill="#9E4539"/>
<path d="M24.3333 70H21V73.3333H24.3333V70Z" fill="#9E4539"/>
<path d="M27.6666 70H24.3333V73.3333H27.6666V70Z" fill="#9E4539"/>
<path d="M31.0001 70H27.6667V73.3333H31.0001V70Z" fill="#9E4539"/>
<path d="M34.3333 70H31V73.3333H34.3333V70Z" fill="#9E4539"/>
<path d="M37.6666 70H34.3333V73.3333H37.6666V70Z" fill="#9E4539"/>
<path d="M41.0001 70H37.6667V73.3333H41.0001V70Z" fill="#060608"/>
<path d="M44.3333 70H41V73.3333H44.3333V70Z" fill="#E6904E"/>
<path d="M47.6666 70H44.3333V73.3333H47.6666V70Z" fill="#E6904E"/>
<path d="M51.0001 70H47.6667V73.3333H51.0001V70Z" fill="#E6904E"/>
<path d="M54.3333 70H51V73.3333H54.3333V70Z" fill="#060608"/>
<path d="M57.6666 70H54.3333V73.3333H57.6666V70Z" fill="#9E4539"/>
<path d="M61.0001 70H57.6667V73.3333H61.0001V70Z" fill="#9E4539"/>
<path d="M64.3333 70H61V73.3333H64.3333V70Z" fill="#9E4539"/>
<path d="M67.6666 70H64.3333V73.3333H67.6666V70Z" fill="#9E4539"/>
<path d="M71.0001 70H67.6667V73.3333H71.0001V70Z" fill="#9E4539"/>
<path d="M74.3333 70H71V73.3333H74.3333V70Z" fill="#9E4539"/>
<path d="M77.6666 70H74.3333V73.3333H77.6666V70Z" fill="#9E4539"/>
<path d="M81.0001 70H77.6667V73.3333H81.0001V70Z" fill="#9E4539"/>
<path d="M84.3333 70H81V73.3333H84.3333V70Z" fill="#9E4539"/>
<path d="M87.6666 70H84.3333V73.3333H87.6666V70Z" fill="#9E4539"/>
<path d="M91.0001 70H87.6667V73.3333H91.0001V70Z" fill="#9E4539"/>
<path d="M94.3333 70H91V73.3333H94.3333V70Z" fill="#9E4539"/>
<path d="M97.6666 70H94.3333V73.3333H97.6666V70Z" fill="#9E4539"/>
<path d="M101 70H97.6667V73.3333H101V70Z" fill="#9E4539"/>
<path d="M4.33333 73.3333H1V76.6666H4.33333V73.3333Z" fill="#9E4539"/>
<path d="M7.66659 73.3333H4.33325V76.6666H7.66659V73.3333Z" fill="#9E4539"/>
<path d="M11.0001 73.3333H7.66675V76.6666H11.0001V73.3333Z" fill="#9E4539"/>
<path d="M14.3333 73.3333H11V76.6666H14.3333V73.3333Z" fill="#9E4539"/>
<path d="M17.6666 73.3333H14.3333V76.6666H17.6666V73.3333Z" fill="#9E4539"/>
<path d="M21.0001 73.3333H17.6667V76.6666H21.0001V73.3333Z" fill="#9E4539"/>
<path d="M24.3333 73.3333H21V76.6666H24.3333V73.3333Z" fill="#9E4539"/>
<path d="M27.6666 73.3333H24.3333V76.6666H27.6666V73.3333Z" fill="#9E4539"/>
<path d="M31.0001 73.3333H27.6667V76.6666H31.0001V73.3333Z" fill="#9E4539"/>
<path d="M34.3333 73.3333H31V76.6666H34.3333V73.3333Z" fill="#9E4539"/>
<path d="M37.6666 73.3333H34.3333V76.6666H37.6666V73.3333Z" fill="#9E4539"/>
<path d="M41.0001 73.3333H37.6667V76.6666H41.0001V73.3333Z" fill="#060608"/>
<path d="M44.3333 73.3333H41V76.6666H44.3333V73.3333Z" fill="#E6904E"/>
<path d="M47.6666 73.3333H44.3333V76.6666H47.6666V73.3333Z" fill="#E6904E"/>
<path d="M51.0001 73.3333H47.6667V76.6666H51.0001V73.3333Z" fill="#060608"/>
<path d="M54.3333 73.3333H51V76.6666H54.3333V73.3333Z" fill="#9E4539"/>
<path d="M57.6666 73.3333H54.3333V76.6666H57.6666V73.3333Z" fill="#9E4539"/>
<path d="M61.0001 73.3333H57.6667V76.6666H61.0001V73.3333Z" fill="#9E4539"/>
<path d="M64.3333 73.3333H61V76.6666H64.3333V73.3333Z" fill="#9E4539"/>
<path d="M67.6666 73.3333H64.3333V76.6666H67.6666V73.3333Z" fill="#9E4539"/>
<path d="M71.0001 73.3333H67.6667V76.6666H71.0001V73.3333Z" fill="#9E4539"/>
<path d="M74.3333 73.3333H71V76.6666H74.3333V73.3333Z" fill="#9E4539"/>
<path d="M77.6666 73.3333H74.3333V76.6666H77.6666V73.3333Z" fill="#9E4539"/>
<path d="M81.0001 73.3333H77.6667V76.6666H81.0001V73.3333Z" fill="#9E4539"/>
<path d="M84.3333 73.3333H81V76.6666H84.3333V73.3333Z" fill="#9E4539"/>
<path d="M87.6666 73.3333H84.3333V76.6666H87.6666V73.3333Z" fill="#9E4539"/>
<path d="M91.0001 73.3333H87.6667V76.6666H91.0001V73.3333Z" fill="#9E4539"/>
<path d="M94.3333 73.3333H91V76.6666H94.3333V73.3333Z" fill="#9E4539"/>
<path d="M97.6666 73.3333H94.3333V76.6666H97.6666V73.3333Z" fill="#9E4539"/>
<path d="M101 73.3333H97.6667V76.6666H101V73.3333Z" fill="#9E4539"/>
<path d="M4.33333 76.6667H1V80.0001H4.33333V76.6667Z" fill="#9E4539"/>
<path d="M7.66659 76.6667H4.33325V80.0001H7.66659V76.6667Z" fill="#9E4539"/>
<path d="M11.0001 76.6667H7.66675V80.0001H11.0001V76.6667Z" fill="#9E4539"/>
<path d="M14.3333 76.6667H11V80.0001H14.3333V76.6667Z" fill="#9E4539"/>
<path d="M17.6666 76.6667H14.3333V80.0001H17.6666V76.6667Z" fill="#9E4539"/>
<path d="M21.0001 76.6667H17.6667V80.0001H21.0001V76.6667Z" fill="#9E4539"/>
<path d="M24.3333 76.6667H21V80.0001H24.3333V76.6667Z" fill="#9E4539"/>
<path d="M27.6666 76.6667H24.3333V80.0001H27.6666V76.6667Z" fill="#9E4539"/>
<path d="M31.0001 76.6667H27.6667V80.0001H31.0001V76.6667Z" fill="#9E4539"/>
<path d="M34.3333 76.6667H31V80.0001H34.3333V76.6667Z" fill="#9E4539"/>
<path d="M37.6666 76.6667H34.3333V80.0001H37.6666V76.6667Z" fill="#9E4539"/>
<path d="M41.0001 76.6667H37.6667V80.0001H41.0001V76.6667Z" fill="#060608"/>
<path d="M44.3333 76.6667H41V80.0001H44.3333V76.6667Z" fill="#E6904E"/>
<path d="M47.6666 76.6667H44.3333V80.0001H47.6666V76.6667Z" fill="#060608"/>
<path d="M51.0001 76.6667H47.6667V80.0001H51.0001V76.6667Z" fill="#9E4539"/>
<path d="M54.3333 76.6667H51V80.0001H54.3333V76.6667Z" fill="#9E4539"/>
<path d="M57.6666 76.6667H54.3333V80.0001H57.6666V76.6667Z" fill="#9E4539"/>
<path d="M61.0001 76.6667H57.6667V80.0001H61.0001V76.6667Z" fill="#9E4539"/>
<path d="M64.3333 76.6667H61V80.0001H64.3333V76.6667Z" fill="#9E4539"/>
<path d="M67.6666 76.6667H64.3333V80.0001H67.6666V76.6667Z" fill="#9E4539"/>
<path d="M71.0001 76.6667H67.6667V80.0001H71.0001V76.6667Z" fill="#9E4539"/>
<path d="M74.3333 76.6667H71V80.0001H74.3333V76.6667Z" fill="#9E4539"/>
<path d="M77.6666 76.6667H74.3333V80.0001H77.6666V76.6667Z" fill="#9E4539"/>
<path d="M81.0001 76.6667H77.6667V80.0001H81.0001V76.6667Z" fill="#9E4539"/>
<path d="M84.3333 76.6667H81V80.0001H84.3333V76.6667Z" fill="#9E4539"/>
<path d="M87.6666 76.6667H84.3333V80.0001H87.6666V76.6667Z" fill="#9E4539"/>
<path d="M91.0001 76.6667H87.6667V80.0001H91.0001V76.6667Z" fill="#9E4539"/>
<path d="M94.3333 76.6667H91V80.0001H94.3333V76.6667Z" fill="#9E4539"/>
<path d="M97.6666 76.6667H94.3333V80.0001H97.6666V76.6667Z" fill="#9E4539"/>
<path d="M101 76.6667H97.6667V80.0001H101V76.6667Z" fill="#9E4539"/>
<path d="M4.33333 80H1V83.3333H4.33333V80Z" fill="#9E4539"/>
<path d="M7.66659 80H4.33325V83.3333H7.66659V80Z" fill="#9E4539"/>
<path d="M11.0001 80H7.66675V83.3333H11.0001V80Z" fill="#9E4539"/>
<path d="M14.3333 80H11V83.3333H14.3333V80Z" fill="#9E4539"/>
<path d="M17.6666 80H14.3333V83.3333H17.6666V80Z" fill="#9E4539"/>
<path d="M21.0001 80H17.6667V83.3333H21.0001V80Z" fill="#9E4539"/>
<path d="M24.3333 80H21V83.3333H24.3333V80Z" fill="#9E4539"/>
<path d="M27.6666 80H24.3333V83.3333H27.6666V80Z" fill="#9E4539"/>
<path d="M31.0001 80H27.6667V83.3333H31.0001V80Z" fill="#9E4539"/>
<path d="M34.3333 80H31V83.3333H34.3333V80Z" fill="#9E4539"/>
<path d="M37.6666 80H34.3333V83.3333H37.6666V80Z" fill="#9E4539"/>
<path d="M41.0001 80H37.6667V83.3333H41.0001V80Z" fill="#060608"/>
<path d="M44.3333 80H41V83.3333H44.3333V80Z" fill="#060608"/>
<path d="M47.6666 80H44.3333V83.3333H47.6666V80Z" fill="#9E4539"/>
<path d="M51.0001 80H47.6667V83.3333H51.0001V80Z" fill="#9E4539"/>
<path d="M54.3333 80H51V83.3333H54.3333V80Z" fill="#9E4539"/>
<path d="M57.6666 80H54.3333V83.3333H57.6666V80Z" fill="#9E4539"/>
<path d="M61.0001 80H57.6667V83.3333H61.0001V80Z" fill="#9E4539"/>
<path d="M64.3333 80H61V83.3333H64.3333V80Z" fill="#9E4539"/>
<path d="M67.6666 80H64.3333V83.3333H67.6666V80Z" fill="#9E4539"/>
<path d="M71.0001 80H67.6667V83.3333H71.0001V80Z" fill="#9E4539"/>
<path d="M74.3333 80H71V83.3333H74.3333V80Z" fill="#9E4539"/>
<path d="M77.6666 80H74.3333V83.3333H77.6666V80Z" fill="#9E4539"/>
<path d="M81.0001 80H77.6667V83.3333H81.0001V80Z" fill="#9E4539"/>
<path d="M84.3333 80H81V83.3333H84.3333V80Z" fill="#9E4539"/>
<path d="M87.6666 80H84.3333V83.3333H87.6666V80Z" fill="#9E4539"/>
<path d="M91.0001 80H87.6667V83.3333H91.0001V80Z" fill="#9E4539"/>
<path d="M94.3333 80H91V83.3333H94.3333V80Z" fill="#9E4539"/>
<path d="M97.6666 80H94.3333V83.3333H97.6666V80Z" fill="#9E4539"/>
<path d="M101 80H97.6667V83.3333H101V80Z" fill="#9E4539"/>
<path d="M4.33333 83.3333H1V86.6666H4.33333V83.3333Z" fill="#9E4539"/>
<path d="M7.66659 83.3333H4.33325V86.6666H7.66659V83.3333Z" fill="#9E4539"/>
<path d="M11.0001 83.3333H7.66675V86.6666H11.0001V83.3333Z" fill="#9E4539"/>
<path d="M14.3333 83.3333H11V86.6666H14.3333V83.3333Z" fill="#9E4539"/>
<path d="M17.6666 83.3333H14.3333V86.6666H17.6666V83.3333Z" fill="#9E4539"/>
<path d="M21.0001 83.3333H17.6667V86.6666H21.0001V83.3333Z" fill="#9E4539"/>
<path d="M24.3333 83.3333H21V86.6666H24.3333V83.3333Z" fill="#9E4539"/>
<path d="M27.6666 83.3333H24.3333V86.6666H27.6666V83.3333Z" fill="#9E4539"/>
<path d="M31.0001 83.3333H27.6667V86.6666H31.0001V83.3333Z" fill="#9E4539"/>
<path d="M34.3333 83.3333H31V86.6666H34.3333V83.3333Z" fill="#9E4539"/>
<path d="M37.6666 83.3333H34.3333V86.6666H37.6666V83.3333Z" fill="#9E4539"/>
<path d="M41.0001 83.3333H37.6667V86.6666H41.0001V83.3333Z" fill="#9E4539"/>
<path d="M44.3333 83.3333H41V86.6666H44.3333V83.3333Z" fill="#9E4539"/>
<path d="M47.6666 83.3333H44.3333V86.6666H47.6666V83.3333Z" fill="#9E4539"/>
<path d="M51.0001 83.3333H47.6667V86.6666H51.0001V83.3333Z" fill="#9E4539"/>
<path d="M54.3333 83.3333H51V86.6666H54.3333V83.3333Z" fill="#9E4539"/>
<path d="M57.6666 83.3333H54.3333V86.6666H57.6666V83.3333Z" fill="#9E4539"/>
<path d="M61.0001 83.3333H57.6667V86.6666H61.0001V83.3333Z" fill="#9E4539"/>
<path d="M64.3333 83.3333H61V86.6666H64.3333V83.3333Z" fill="#9E4539"/>
<path d="M67.6666 83.3333H64.3333V86.6666H67.6666V83.3333Z" fill="#9E4539"/>
<path d="M71.0001 83.3333H67.6667V86.6666H71.0001V83.3333Z" fill="#9E4539"/>
<path d="M74.3333 83.3333H71V86.6666H74.3333V83.3333Z" fill="#9E4539"/>
<path d="M77.6666 83.3333H74.3333V86.6666H77.6666V83.3333Z" fill="#9E4539"/>
<path d="M81.0001 83.3333H77.6667V86.6666H81.0001V83.3333Z" fill="#9E4539"/>
<path d="M84.3333 83.3333H81V86.6666H84.3333V83.3333Z" fill="#9E4539"/>
<path d="M87.6666 83.3333H84.3333V86.6666H87.6666V83.3333Z" fill="#9E4539"/>
<path d="M91.0001 83.3333H87.6667V86.6666H91.0001V83.3333Z" fill="#9E4539"/>
<path d="M94.3333 83.3333H91V86.6666H94.3333V83.3333Z" fill="#9E4539"/>
<path d="M97.6666 83.3333H94.3333V86.6666H97.6666V83.3333Z" fill="#9E4539"/>
<path d="M101 83.3333H97.6667V86.6666H101V83.3333Z" fill="#9E4539"/>
<path d="M4.33333 86.6667H1V90.0001H4.33333V86.6667Z" fill="#9E4539"/>
<path d="M7.66659 86.6667H4.33325V90.0001H7.66659V86.6667Z" fill="#9E4539"/>
<path d="M11.0001 86.6667H7.66675V90.0001H11.0001V86.6667Z" fill="#9E4539"/>
<path d="M14.3333 86.6667H11V90.0001H14.3333V86.6667Z" fill="#9E4539"/>
<path d="M17.6666 86.6667H14.3333V90.0001H17.6666V86.6667Z" fill="#9E4539"/>
<path d="M21.0001 86.6667H17.6667V90.0001H21.0001V86.6667Z" fill="#9E4539"/>
<path d="M24.3333 86.6667H21V90.0001H24.3333V86.6667Z" fill="#9E4539"/>
<path d="M27.6666 86.6667H24.3333V90.0001H27.6666V86.6667Z" fill="#9E4539"/>
<path d="M31.0001 86.6667H27.6667V90.0001H31.0001V86.6667Z" fill="#9E4539"/>
<path d="M34.3333 86.6667H31V90.0001H34.3333V86.6667Z" fill="#9E4539"/>
<path d="M37.6666 86.6667H34.3333V90.0001H37.6666V86.6667Z" fill="#9E4539"/>
<path d="M41.0001 86.6667H37.6667V90.0001H41.0001V86.6667Z" fill="#9E4539"/>
<path d="M44.3333 86.6667H41V90.0001H44.3333V86.6667Z" fill="#9E4539"/>
<path d="M47.6666 86.6667H44.3333V90.0001H47.6666V86.6667Z" fill="#9E4539"/>
<path d="M51.0001 86.6667H47.6667V90.0001H51.0001V86.6667Z" fill="#9E4539"/>
<path d="M54.3333 86.6667H51V90.0001H54.3333V86.6667Z" fill="#9E4539"/>
<path d="M57.6666 86.6667H54.3333V90.0001H57.6666V86.6667Z" fill="#9E4539"/>
<path d="M61.0001 86.6667H57.6667V90.0001H61.0001V86.6667Z" fill="#9E4539"/>
<path d="M64.3333 86.6667H61V90.0001H64.3333V86.6667Z" fill="#9E4539"/>
<path d="M67.6666 86.6667H64.3333V90.0001H67.6666V86.6667Z" fill="#9E4539"/>
<path d="M71.0001 86.6667H67.6667V90.0001H71.0001V86.6667Z" fill="#9E4539"/>
<path d="M74.3333 86.6667H71V90.0001H74.3333V86.6667Z" fill="#9E4539"/>
<path d="M77.6666 86.6667H74.3333V90.0001H77.6666V86.6667Z" fill="#9E4539"/>
<path d="M81.0001 86.6667H77.6667V90.0001H81.0001V86.6667Z" fill="#9E4539"/>
<path d="M84.3333 86.6667H81V90.0001H84.3333V86.6667Z" fill="#9E4539"/>
<path d="M87.6666 86.6667H84.3333V90.0001H87.6666V86.6667Z" fill="#9E4539"/>
<path d="M91.0001 86.6667H87.6667V90.0001H91.0001V86.6667Z" fill="#9E4539"/>
<path d="M94.3333 86.6667H91V90.0001H94.3333V86.6667Z" fill="#9E4539"/>
<path d="M97.6666 86.6667H94.3333V90.0001H97.6666V86.6667Z" fill="#9E4539"/>
<path d="M101 86.6667H97.6667V90.0001H101V86.6667Z" fill="#9E4539"/>
<path d="M4.33333 90H1V93.3333H4.33333V90Z" fill="#9E4539"/>
<path d="M7.66659 90H4.33325V93.3333H7.66659V90Z" fill="#9E4539"/>
<path d="M11.0001 90H7.66675V93.3333H11.0001V90Z" fill="#9E4539"/>
<path d="M14.3333 90H11V93.3333H14.3333V90Z" fill="#9E4539"/>
<path d="M17.6666 90H14.3333V93.3333H17.6666V90Z" fill="#9E4539"/>
<path d="M21.0001 90H17.6667V93.3333H21.0001V90Z" fill="#9E4539"/>
<path d="M24.3333 90H21V93.3333H24.3333V90Z" fill="#9E4539"/>
<path d="M27.6666 90H24.3333V93.3333H27.6666V90Z" fill="#9E4539"/>
<path d="M31.0001 90H27.6667V93.3333H31.0001V90Z" fill="#9E4539"/>
<path d="M34.3333 90H31V93.3333H34.3333V90Z" fill="#9E4539"/>
<path d="M37.6666 90H34.3333V93.3333H37.6666V90Z" fill="#9E4539"/>
<path d="M41.0001 90H37.6667V93.3333H41.0001V90Z" fill="#9E4539"/>
<path d="M44.3333 90H41V93.3333H44.3333V90Z" fill="#9E4539"/>
<path d="M47.6666 90H44.3333V93.3333H47.6666V90Z" fill="#9E4539"/>
<path d="M51.0001 90H47.6667V93.3333H51.0001V90Z" fill="#9E4539"/>
<path d="M54.3333 90H51V93.3333H54.3333V90Z" fill="#9E4539"/>
<path d="M57.6666 90H54.3333V93.3333H57.6666V90Z" fill="#9E4539"/>
<path d="M61.0001 90H57.6667V93.3333H61.0001V90Z" fill="#9E4539"/>
<path d="M64.3333 90H61V93.3333H64.3333V90Z" fill="#9E4539"/>
<path d="M67.6666 90H64.3333V93.3333H67.6666V90Z" fill="#9E4539"/>
<path d="M71.0001 90H67.6667V93.3333H71.0001V90Z" fill="#9E4539"/>
<path d="M74.3333 90H71V93.3333H74.3333V90Z" fill="#9E4539"/>
<path d="M77.6666 90H74.3333V93.3333H77.6666V90Z" fill="#9E4539"/>
<path d="M81.0001 90H77.6667V93.3333H81.0001V90Z" fill="#9E4539"/>
<path d="M84.3333 90H81V93.3333H84.3333V90Z" fill="#9E4539"/>
<path d="M87.6666 90H84.3333V93.3333H87.6666V90Z" fill="#9E4539"/>
<path d="M91.0001 90H87.6667V93.3333H91.0001V90Z" fill="#9E4539"/>
<path d="M94.3333 90H91V93.3333H94.3333V90Z" fill="#9E4539"/>
<path d="M97.6666 90H94.3333V93.3333H97.6666V90Z" fill="#9E4539"/>
<path d="M101 90H97.6667V93.3333H101V90Z" fill="#9E4539"/>
<path d="M4.33333 93.3333H1V96.6666H4.33333V93.3333Z" fill="#9E4539"/>
<path d="M7.66659 93.3333H4.33325V96.6666H7.66659V93.3333Z" fill="#9E4539"/>
<path d="M11.0001 93.3333H7.66675V96.6666H11.0001V93.3333Z" fill="#9E4539"/>
<path d="M14.3333 93.3333H11V96.6666H14.3333V93.3333Z" fill="#9E4539"/>
<path d="M17.6666 93.3333H14.3333V96.6666H17.6666V93.3333Z" fill="#9E4539"/>
<path d="M21.0001 93.3333H17.6667V96.6666H21.0001V93.3333Z" fill="#9E4539"/>
<path d="M24.3333 93.3333H21V96.6666H24.3333V93.3333Z" fill="#9E4539"/>
<path d="M27.6666 93.3333H24.3333V96.6666H27.6666V93.3333Z" fill="#9E4539"/>
<path d="M31.0001 93.3333H27.6667V96.6666H31.0001V93.3333Z" fill="#9E4539"/>
<path d="M34.3333 93.3333H31V96.6666H34.3333V93.3333Z" fill="#9E4539"/>
<path d="M37.6666 93.3333H34.3333V96.6666H37.6666V93.3333Z" fill="#9E4539"/>
<path d="M41.0001 93.3333H37.6667V96.6666H41.0001V93.3333Z" fill="#9E4539"/>
<path d="M44.3333 93.3333H41V96.6666H44.3333V93.3333Z" fill="#9E4539"/>
<path d="M47.6666 93.3333H44.3333V96.6666H47.6666V93.3333Z" fill="#9E4539"/>
<path d="M51.0001 93.3333H47.6667V96.6666H51.0001V93.3333Z" fill="#9E4539"/>
<path d="M54.3333 93.3333H51V96.6666H54.3333V93.3333Z" fill="#9E4539"/>
<path d="M57.6666 93.3333H54.3333V96.6666H57.6666V93.3333Z" fill="#9E4539"/>
<path d="M61.0001 93.3333H57.6667V96.6666H61.0001V93.3333Z" fill="#9E4539"/>
<path d="M64.3333 93.3333H61V96.6666H64.3333V93.3333Z" fill="#9E4539"/>
<path d="M67.6666 93.3333H64.3333V96.6666H67.6666V93.3333Z" fill="#9E4539"/>
<path d="M71.0001 93.3333H67.6667V96.6666H71.0001V93.3333Z" fill="#9E4539"/>
<path d="M74.3333 93.3333H71V96.6666H74.3333V93.3333Z" fill="#9E4539"/>
<path d="M77.6666 93.3333H74.3333V96.6666H77.6666V93.3333Z" fill="#9E4539"/>
<path d="M81.0001 93.3333H77.6667V96.6666H81.0001V93.3333Z" fill="#9E4539"/>
<path d="M84.3333 93.3333H81V96.6666H84.3333V93.3333Z" fill="#9E4539"/>
<path d="M87.6666 93.3333H84.3333V96.6666H87.6666V93.3333Z" fill="#9E4539"/>
<path d="M91.0001 93.3333H87.6667V96.6666H91.0001V93.3333Z" fill="#9E4539"/>
<path d="M94.3333 93.3333H91V96.6666H94.3333V93.3333Z" fill="#9E4539"/>
<path d="M97.6666 93.3333H94.3333V96.6666H97.6666V93.3333Z" fill="#9E4539"/>
<path d="M101 93.3333H97.6667V96.6666H101V93.3333Z" fill="#9E4539"/>
<path d="M4.33333 96.6667H1V100H4.33333V96.6667Z" fill="#9E4539"/>
<path d="M7.66659 96.6667H4.33325V100H7.66659V96.6667Z" fill="#9E4539"/>
<path d="M11.0001 96.6667H7.66675V100H11.0001V96.6667Z" fill="#9E4539"/>
<path d="M14.3333 96.6667H11V100H14.3333V96.6667Z" fill="#9E4539"/>
<path d="M17.6666 96.6667H14.3333V100H17.6666V96.6667Z" fill="#9E4539"/>
<path d="M21.0001 96.6667H17.6667V100H21.0001V96.6667Z" fill="#9E4539"/>
<path d="M24.3333 96.6667H21V100H24.3333V96.6667Z" fill="#9E4539"/>
<path d="M27.6666 96.6667H24.3333V100H27.6666V96.6667Z" fill="#9E4539"/>
<path d="M31.0001 96.6667H27.6667V100H31.0001V96.6667Z" fill="#9E4539"/>
<path d="M34.3333 96.6667H31V100H34.3333V96.6667Z" fill="#9E4539"/>
<path d="M37.6666 96.6667H34.3333V100H37.6666V96.6667Z" fill="#9E4539"/>
<path d="M41.0001 96.6667H37.6667V100H41.0001V96.6667Z" fill="#9E4539"/>
<path d="M44.3333 96.6667H41V100H44.3333V96.6667Z" fill="#9E4539"/>
<path d="M47.6666 96.6667H44.3333V100H47.6666V96.6667Z" fill="#9E4539"/>
<path d="M51.0001 96.6667H47.6667V100H51.0001V96.6667Z" fill="#9E4539"/>
<path d="M54.3333 96.6667H51V100H54.3333V96.6667Z" fill="#9E4539"/>
<path d="M57.6666 96.6667H54.3333V100H57.6666V96.6667Z" fill="#9E4539"/>
<path d="M61.0001 96.6667H57.6667V100H61.0001V96.6667Z" fill="#9E4539"/>
<path d="M64.3333 96.6667H61V100H64.3333V96.6667Z" fill="#9E4539"/>
<path d="M67.6666 96.6667H64.3333V100H67.6666V96.6667Z" fill="#9E4539"/>
<path d="M71.0001 96.6667H67.6667V100H71.0001V96.6667Z" fill="#9E4539"/>
<path d="M74.3333 96.6667H71V100H74.3333V96.6667Z" fill="#9E4539"/>
<path d="M77.6666 96.6667H74.3333V100H77.6666V96.6667Z" fill="#9E4539"/>
<path d="M81.0001 96.6667H77.6667V100H81.0001V96.6667Z" fill="#9E4539"/>
<path d="M84.3333 96.6667H81V100H84.3333V96.6667Z" fill="#9E4539"/>
<path d="M87.6666 96.6667H84.3333V100H87.6666V96.6667Z" fill="#9E4539"/>
<path d="M91.0001 96.6667H87.6667V100H91.0001V96.6667Z" fill="#9E4539"/>
<path d="M94.3333 96.6667H91V100H94.3333V96.6667Z" fill="#9E4539"/>
<path d="M97.6666 96.6667H94.3333V100H97.6666V96.6667Z" fill="#9E4539"/>
<path d="M101 96.6667H97.6667V100H101V96.6667Z" fill="#9E4539"/>
</g>
</g>
<defs>
<clipPath id="clip0_2656_8374">
<rect x="0.5" width="100" height="100" rx="50" fill="white"/>
</clipPath>
<clipPath id="clip1_2656_8374">
<rect width="100" height="100" fill="white" transform="translate(1)"/>
</clipPath>
</defs>
</svg>
