<svg width="186" height="77" viewBox="0 0 186 77" fill="none" xmlns="http://www.w3.org/2000/svg">
<rect y="34.7974" width="3.23696" height="6.47392" fill="#181B20"/>
<rect x="12.9478" y="3.23706" width="3.23696" height="38.0343" fill="#181B20"/>
<rect x="22.6587" y="3.23706" width="3.23696" height="31.5604" fill="#181B20"/>
<rect x="32.3696" y="18.6125" width="3.23696" height="16.1848" fill="#181B20"/>
<rect x="42.0805" y="25.0864" width="3.23696" height="12.9478" fill="#181B20"/>
<rect x="51.7914" y="28.3234" width="3.23696" height="25.8957" fill="#181B20"/>
<rect x="3.23695" y="31.5603" width="6.47392" height="3.23696" fill="#181B20"/>
<rect x="25.8957" y="15.3756" width="6.47392" height="3.23696" fill="#181B20"/>
<rect x="32.3696" y="18.6125" width="9.71088" height="3.23696" fill="#181B20"/>
<rect x="42.0805" y="21.8495" width="6.47392" height="3.23696" fill="#181B20"/>
<rect x="16.1848" width="6.47392" height="3.23696" fill="#181B20"/>
<rect x="6.47391" y="44.5083" width="3.23696" height="6.47392" fill="#181B20"/>
<rect x="9.71086" y="50.9822" width="3.23696" height="6.47392" fill="#181B20"/>
<rect x="16.1848" y="60.693" width="3.23696" height="6.47392" fill="#181B20"/>
<rect x="45.3175" y="60.693" width="3.23696" height="6.47392" fill="#181B20"/>
<rect x="48.5544" y="54.2191" width="3.23696" height="6.47392" fill="#181B20"/>
<rect x="3.23695" y="41.2712" width="3.23696" height="3.23696" fill="#181B20"/>
<rect x="9.71086" y="34.7974" width="3.23696" height="3.23696" fill="#181B20"/>
<rect x="48.5544" y="25.0864" width="3.23696" height="3.23696" fill="#181B20"/>
<rect x="12.9478" y="57.4561" width="3.23696" height="3.23696" fill="#181B20"/>
<rect x="19.4218" y="67.1669" width="25.8957" height="3.23696" fill="#181B20"/>
<rect x="16.1848" y="3.23682" width="6.47392" height="38.0343" fill="white"/>
<rect x="3.23698" y="34.7971" width="6.47392" height="6.47392" fill="white"/>
<rect x="6.47394" y="38.0342" width="6.47392" height="3.23696" fill="white"/>
<rect x="6.47394" y="41.271" width="6.47392" height="3.23696" fill="white"/>
<rect x="9.71089" y="41.271" width="42.0805" height="9.71088" fill="white"/>
<rect x="16.1848" y="38.0342" width="29.1326" height="9.71088" fill="white"/>
<rect x="16.1848" y="34.7971" width="25.8957" height="9.71088" fill="white"/>
<rect x="16.1848" y="50.982" width="25.8957" height="9.71088" fill="white"/>
<rect x="12.9478" y="47.7451" width="25.8957" height="9.71088" fill="white"/>
<rect x="19.4218" y="50.982" width="25.8957" height="16.1848" fill="white"/>
<rect x="25.8957" y="18.6124" width="6.47392" height="38.0343" fill="white"/>
<rect x="35.6066" y="21.8493" width="6.47392" height="38.0343" fill="white"/>
<rect x="45.3175" y="25.0864" width="3.23696" height="35.6066" fill="white"/>
<rect x="48.5544" y="28.3232" width="3.23696" height="25.8957" fill="white"/>
<path d="M90.3552 46.5583H80.3809V60.6204H75.0395V21.2138H90.3552C98.0948 21.2138 103.055 26.2827 103.055 33.8588C103.055 41.2168 98.0403 46.5583 90.3552 46.5583ZM89.4286 26.0102H80.3809V41.7619H89.2106C94.4975 41.7619 97.4407 38.6551 97.4407 33.8043C97.4407 28.8444 94.443 26.0102 89.4286 26.0102ZM108.56 27.6453C106.706 27.6453 105.18 26.1192 105.18 24.266C105.18 22.3584 106.706 20.8868 108.56 20.8868C110.413 20.8868 111.939 22.3584 111.939 24.266C111.939 26.1192 110.413 27.6453 108.56 27.6453ZM106.052 60.6204V33.9678H111.176V60.6204H106.052ZM114.69 47.3213C114.69 38.9822 119.977 33.2047 127.771 33.2047C134.475 33.2047 139.162 37.02 140.089 42.961H134.965C134.093 39.5817 131.368 37.7831 127.934 37.7831C123.083 37.7831 119.759 41.4894 119.759 47.2668C119.759 52.9898 122.865 56.6961 127.716 56.6961C131.368 56.6961 134.093 54.7884 135.02 51.6272H140.143C139.108 57.4046 134.148 61.2744 127.716 61.2744C119.868 61.2744 114.69 55.715 114.69 47.3213ZM148.601 60.6204H143.478V20.5052H148.601V46.5038L160.428 33.9678H166.86L156.668 44.5961L166.805 60.6204H160.919L153.125 48.3024L148.601 53.0443V60.6204ZM184.128 33.7498V38.4371H181.838C176.988 38.4371 173.99 41.3804 173.99 46.5038V60.6204H168.866V34.0223H173.663L173.99 38.0556C175.08 35.2759 177.751 33.4227 181.402 33.4227C182.329 33.4227 183.092 33.5317 184.128 33.7498Z" fill="white"/>
</svg>
