<svg width="20" height="20" viewBox="0 0 20 20" fill="none" xmlns="http://www.w3.org/2000/svg">
<mask id="mask0_214_827" style="mask-type:alpha" maskUnits="userSpaceOnUse" x="0" y="0" width="20" height="20">
<rect width="20" height="20" fill="#D9D9D9"/>
</mask>
<g mask="url(#mask0_214_827)">
<path d="M12.5496 10.636L11.5304 9.61687C11.586 9.05174 11.4169 8.5875 11.0231 8.22417C10.6295 7.86097 10.1875 7.70715 9.69708 7.76271L8.67792 6.74354C8.81042 6.70076 8.95118 6.66868 9.10021 6.64729C9.24924 6.6259 9.39958 6.61521 9.55125 6.61521C10.4274 6.61521 11.171 6.92076 11.7821 7.53187C12.3932 8.14299 12.6988 8.8866 12.6988 9.76271C12.6988 9.91437 12.6881 10.0674 12.6667 10.2219C12.6453 10.3762 12.6062 10.5142 12.5496 10.636ZM15.3044 13.3748L14.5096 12.596C15.0096 12.2072 15.4644 11.7801 15.8742 11.3148C16.2839 10.8495 16.6276 10.3322 16.9054 9.76271C16.2249 8.35993 15.2214 7.25924 13.895 6.46062C12.5686 5.66201 11.1207 5.26271 9.55125 5.26271C9.19014 5.26271 8.83597 5.28354 8.48875 5.32521C8.14153 5.36687 7.80125 5.43632 7.46792 5.53354L6.58021 4.64583C7.06521 4.46417 7.55799 4.34104 8.05854 4.27646C8.5591 4.21174 9.05667 4.17937 9.55125 4.17937C11.3931 4.17937 13.1022 4.67618 14.6785 5.66979C16.2549 6.6634 17.3963 8.02771 18.1025 9.76271C17.8076 10.4795 17.4228 11.1328 16.9479 11.7227C16.4729 12.3124 15.9251 12.8631 15.3044 13.3748ZM15.5192 17.2788L12.9392 14.6825C12.4701 14.8824 11.9479 15.0429 11.3725 15.1642C10.7972 15.2854 10.1901 15.346 9.55125 15.346C7.70403 15.346 5.99493 14.8492 4.42396 13.8556C2.85285 12.862 1.71153 11.4977 1 9.76271C1.32153 8.97104 1.75368 8.24618 2.29646 7.58812C2.83924 6.92993 3.45194 6.35299 4.13458 5.85729L2.03521 3.77396L2.80938 3L16.2931 16.5046L15.5192 17.2788ZM4.90875 6.65208C4.38514 7.03028 3.87361 7.48278 3.37417 8.00958C2.87472 8.53625 2.48236 9.12063 2.19708 9.76271C2.87764 11.1655 3.88111 12.2662 5.2075 13.0648C6.53389 13.8634 7.98181 14.2627 9.55125 14.2627C10.0139 14.2627 10.4749 14.2237 10.9344 14.1456C11.3937 14.0677 11.789 13.9737 12.1202 13.8637L10.8781 12.6377C10.6944 12.7231 10.4813 12.7899 10.2388 12.8379C9.99625 12.8861 9.76708 12.9102 9.55125 12.9102C8.67514 12.9102 7.93153 12.6047 7.32042 11.9935C6.70931 11.3824 6.40375 10.6388 6.40375 9.76271C6.40375 9.55229 6.43479 9.32715 6.49688 9.08729C6.55882 8.84743 6.61861 8.63028 6.67625 8.43583L4.90875 6.65208Z" fill="#666E82"/>
</g>
</svg>
