<svg width="119" height="40" viewBox="0 0 119 40" fill="none" xmlns="http://www.w3.org/2000/svg">
<path d="M15.4517 26.4928H8.3439V39.322H0V0.730117H15.4517C23.229 0.730117 28.4311 5.89309 28.4311 13.6115C28.4311 21.3299 23.229 26.4928 15.4517 26.4928ZM13.5975 8.2399H8.3439V18.9831H13.5975C17.6149 18.9831 19.6236 17.2099 19.6236 13.6115C19.6236 10.013 17.6149 8.2399 13.5975 8.2399Z" fill="#2F3238"/>
<path d="M35.6056 9.17862C33.0819 9.17862 31.0732 7.14472 31.0732 4.58931C31.0732 2.0339 33.0819 0.0521506 35.6056 0.0521506C38.0779 0.0521506 40.0866 2.0339 40.0866 4.58931C40.0866 7.14472 38.0779 9.17862 35.6056 9.17862ZM31.6912 39.322V13.2464H39.6231V39.322H31.6912Z" fill="#2F3238"/>
<path d="M43.1528 26.1799C43.1528 18.1486 48.6124 12.412 56.3382 12.412C63.9611 12.412 69.0086 16.6362 69.5237 23.4681H61.5403C60.9737 20.8605 59.3771 19.6089 56.6473 19.6089C53.2994 19.6089 51.1362 22.1643 51.1362 26.1799C51.1362 30.352 53.1449 32.8031 56.5443 32.8031C59.3256 32.8031 61.0253 31.4993 61.5403 28.9439H69.5237C69.0086 35.515 63.755 40 56.5443 40C48.4064 40 43.1528 34.5241 43.1528 26.1799Z" fill="#2F3238"/>
<path d="M80.7692 39.322H72.8373V0H80.7692V22.6336L89.1131 13.2464H99.0537L89.3706 23.5724L98.7446 39.322H89.5766L83.808 29.5698L80.7692 32.8031V39.322Z" fill="#2F3238"/>
<path d="M119 13.2464V20.8083H116.476C111.944 20.8083 109.214 22.8422 109.214 28.0052V39.322H101.282V13.2986H108.75L109.162 17.1578C110.244 14.6023 112.51 12.8814 115.961 12.8814C116.888 12.8814 117.918 12.9857 119 13.2464Z" fill="#2F3238"/>
</svg>
