<svg width="20" height="20" viewBox="0 0 20 20" fill="none" xmlns="http://www.w3.org/2000/svg">
<mask id="mask0_365_278" style="mask-type:alpha" maskUnits="userSpaceOnUse" x="0" y="0" width="20" height="20">
<rect width="20" height="20" fill="#D9D9D9"/>
</mask>
<g mask="url(#mask0_365_278)">
<path d="M10 13.3333C11.0417 13.3333 11.9271 12.9687 12.6562 12.2396C13.3854 11.5104 13.75 10.625 13.75 9.58333C13.75 8.54166 13.3854 7.65624 12.6562 6.92708C11.9271 6.19791 11.0417 5.83333 10 5.83333C8.95833 5.83333 8.07292 6.19791 7.34375 6.92708C6.61458 7.65624 6.25 8.54166 6.25 9.58333C6.25 10.625 6.61458 11.5104 7.34375 12.2396C8.07292 12.9687 8.95833 13.3333 10 13.3333ZM10 11.8333C9.375 11.8333 8.84375 11.6146 8.40625 11.1771C7.96875 10.7396 7.75 10.2083 7.75 9.58333C7.75 8.95833 7.96875 8.42708 8.40625 7.98958C8.84375 7.55208 9.375 7.33333 10 7.33333C10.625 7.33333 11.1562 7.55208 11.5937 7.98958C12.0312 8.42708 12.25 8.95833 12.25 9.58333C12.25 10.2083 12.0312 10.7396 11.5937 11.1771C11.1562 11.6146 10.625 11.8333 10 11.8333ZM10 15.8333C7.97222 15.8333 6.125 15.2674 4.45833 14.1354C2.79167 13.0035 1.58333 11.4861 0.833332 9.58333C1.58333 7.68055 2.79167 6.16319 4.45833 5.03124C6.125 3.8993 7.97222 3.33333 10 3.33333C12.0278 3.33333 13.875 3.8993 15.5417 5.03124C17.2083 6.16319 18.4167 7.68055 19.1667 9.58333C18.4167 11.4861 17.2083 13.0035 15.5417 14.1354C13.875 15.2674 12.0278 15.8333 10 15.8333ZM10 14.1667C11.5694 14.1667 13.0104 13.7535 14.3229 12.9271C15.6354 12.1007 16.6389 10.9861 17.3333 9.58333C16.6389 8.18055 15.6354 7.06597 14.3229 6.23958C13.0104 5.41319 11.5694 4.99999 10 4.99999C8.43055 4.99999 6.98958 5.41319 5.67708 6.23958C4.36458 7.06597 3.36111 8.18055 2.66667 9.58333C3.36111 10.9861 4.36458 12.1007 5.67708 12.9271C6.98958 13.7535 8.43055 14.1667 10 14.1667Z" fill="#666E82"/>
</g>
</svg>
