<svg width="25" height="24" viewBox="0 0 25 24" fill="none" xmlns="http://www.w3.org/2000/svg">
<mask id="mask0_1205_1788" style="mask-type:alpha" maskUnits="userSpaceOnUse" x="0" y="0" width="25" height="24">
<rect x="0.699951" width="24" height="24" fill="#D9D9D9"/>
</mask>
<g mask="url(#mask0_1205_1788)">
<path d="M12.7 11.6923C11.7375 11.6923 10.9135 11.3496 10.2282 10.6643C9.5427 9.97876 9.19995 9.15476 9.19995 8.19226C9.19995 7.22976 9.5427 6.40584 10.2282 5.72051C10.9135 5.03501 11.7375 4.69226 12.7 4.69226C13.6625 4.69226 14.4864 5.03501 15.1717 5.72051C15.8572 6.40584 16.2 7.22976 16.2 8.19226C16.2 9.15476 15.8572 9.97876 15.1717 10.6643C14.4864 11.3496 13.6625 11.6923 12.7 11.6923ZM5.19995 19.3078V17.0845C5.19995 16.5948 5.33295 16.1413 5.59895 15.724C5.86495 15.3067 6.22045 14.9858 6.66545 14.7615C7.65378 14.277 8.65087 13.9136 9.6567 13.6713C10.6625 13.4289 11.677 13.3078 12.7 13.3078C13.723 13.3078 14.7374 13.4289 15.7432 13.6713C16.749 13.9136 17.7461 14.277 18.7345 14.7615C19.1795 14.9858 19.535 15.3067 19.801 15.724C20.067 16.1413 20.2 16.5948 20.2 17.0845V19.3078H5.19995Z" fill="#4E78F6"/>
</g>
</svg>
