<svg width="24" height="24" viewBox="0 0 24 24" fill="none" xmlns="http://www.w3.org/2000/svg">
<mask id="mask0_1401_1089" style="mask-type:alpha" maskUnits="userSpaceOnUse" x="0" y="0" width="24" height="24">
<rect width="24" height="24" fill="#D9D9D9"/>
</mask>
<g mask="url(#mask0_1401_1089)">
<path d="M5.38477 21.1153C4.69027 21.1153 4.09993 20.8723 3.61377 20.3863C3.12777 19.9001 2.88477 19.3098 2.88477 18.6153C2.88477 18.0551 3.04977 17.5593 3.37977 17.1278C3.70993 16.6964 4.12827 16.3981 4.63477 16.2328V7.76727C4.12827 7.60193 3.70993 7.3036 3.37977 6.87227C3.04977 6.44077 2.88477 5.94493 2.88477 5.38477C2.88477 4.69027 3.12777 4.09993 3.61377 3.61376C4.09993 3.12776 4.69027 2.88477 5.38477 2.88477C5.94493 2.88477 6.44077 3.04977 6.87227 3.37977C7.3036 3.70993 7.60193 4.12827 7.76727 4.63477H16.2328C16.3879 4.12827 16.6819 3.70993 17.1148 3.37977C17.5476 3.04977 18.0478 2.88477 18.6153 2.88477C19.3098 2.88477 19.9001 3.12776 20.3863 3.61376C20.8723 4.09993 21.1153 4.69027 21.1153 5.38477C21.1153 5.95227 20.9503 6.45243 20.6203 6.88526C20.2901 7.3181 19.8718 7.6121 19.3653 7.76727V16.2328C19.8718 16.3981 20.2901 16.6964 20.6203 17.1278C20.9503 17.5593 21.1153 18.0551 21.1153 18.6153C21.1153 19.3098 20.8723 19.9001 20.3863 20.3863C19.9001 20.8723 19.3098 21.1153 18.6153 21.1153C18.0551 21.1153 17.5593 20.9503 17.1278 20.6203C16.6964 20.2901 16.3981 19.8718 16.2328 19.3653H7.76727C7.60193 19.8718 7.3036 20.2901 6.87227 20.6203C6.44077 20.9503 5.94493 21.1153 5.38477 21.1153ZM5.38477 6.38477C5.6681 6.38477 5.9056 6.28893 6.09727 6.09727C6.28893 5.9056 6.38477 5.6681 6.38477 5.38477C6.38477 5.10143 6.28893 4.86393 6.09727 4.67227C5.9056 4.4806 5.6681 4.38477 5.38477 4.38477C5.10143 4.38477 4.86393 4.4806 4.67227 4.67227C4.4806 4.86393 4.38477 5.10143 4.38477 5.38477C4.38477 5.6681 4.4806 5.9056 4.67227 6.09727C4.86393 6.28893 5.10143 6.38477 5.38477 6.38477ZM18.6153 6.38477C18.8986 6.38477 19.1361 6.28893 19.3278 6.09727C19.5194 5.9056 19.6153 5.6681 19.6153 5.38477C19.6153 5.10143 19.5194 4.86393 19.3278 4.67227C19.1361 4.4806 18.8986 4.38477 18.6153 4.38477C18.3319 4.38477 18.0944 4.4806 17.9028 4.67227C17.7111 4.86393 17.6153 5.10143 17.6153 5.38477C17.6153 5.6681 17.7111 5.9056 17.9028 6.09727C18.0944 6.28893 18.3319 6.38477 18.6153 6.38477ZM7.76727 17.8653H16.2328C16.3571 17.4704 16.5616 17.1308 16.8463 16.8463C17.1308 16.5616 17.4704 16.3571 17.8653 16.2328V7.76727C17.4704 7.64943 17.1291 7.4466 16.8413 7.15876C16.5534 6.87093 16.3506 6.5296 16.2328 6.13477H7.76727C7.64293 6.5296 7.43843 6.86927 7.15377 7.15377C6.86927 7.43843 6.5296 7.64293 6.13477 7.76727V16.2328C6.5296 16.3571 6.86927 16.5616 7.15377 16.8463C7.43843 17.1308 7.64293 17.4704 7.76727 17.8653ZM18.6153 19.6153C18.8986 19.6153 19.1361 19.5194 19.3278 19.3278C19.5194 19.1361 19.6153 18.8986 19.6153 18.6153C19.6153 18.3319 19.5194 18.0944 19.3278 17.9028C19.1361 17.7111 18.8986 17.6153 18.6153 17.6153C18.3319 17.6153 18.0944 17.7111 17.9028 17.9028C17.7111 18.0944 17.6153 18.3319 17.6153 18.6153C17.6153 18.8986 17.7111 19.1361 17.9028 19.3278C18.0944 19.5194 18.3319 19.6153 18.6153 19.6153ZM5.38477 19.6153C5.6681 19.6153 5.9056 19.5194 6.09727 19.3278C6.28893 19.1361 6.38477 18.8986 6.38477 18.6153C6.38477 18.3319 6.28893 18.0944 6.09727 17.9028C5.9056 17.7111 5.6681 17.6153 5.38477 17.6153C5.10143 17.6153 4.86393 17.7111 4.67227 17.9028C4.4806 18.0944 4.38477 18.3319 4.38477 18.6153C4.38477 18.8986 4.4806 19.1361 4.67227 19.3278C4.86393 19.5194 5.10143 19.6153 5.38477 19.6153Z" fill="#2F3238"/>
</g>
</svg>
