<svg width="99" height="126" viewBox="0 0 99 126" fill="none" xmlns="http://www.w3.org/2000/svg">
<rect y="62.2752" width="5.7931" height="11.5862" fill="#1B1F27"/>
<rect x="23.1732" y="5.79282" width="5.7931" height="68.069" fill="#1B1F27"/>
<rect x="40.5516" y="5.79282" width="5.7931" height="56.4828" fill="#1B1F27"/>
<rect x="57.9301" y="33.3111" width="5.7931" height="28.9655" fill="#1B1F27"/>
<rect x="75.3104" y="44.8967" width="5.7931" height="23.1724" fill="#1B1F27"/>
<rect x="92.689" y="50.6895" width="5.7931" height="46.3448" fill="#1B1F27"/>
<rect x="5.79285" y="56.4824" width="11.5862" height="5.7931" fill="#1B1F27"/>
<rect x="46.3445" y="27.5164" width="11.5862" height="5.7931" fill="#1B1F27"/>
<rect x="57.9301" y="33.3111" width="17.3793" height="5.7931" fill="#1B1F27"/>
<rect x="75.3104" y="39.1039" width="11.5862" height="5.7931" fill="#1B1F27"/>
<rect x="28.9661" width="11.5862" height="5.7931" fill="#1B1F27"/>
<rect x="11.5857" y="79.6555" width="5.7931" height="11.5862" fill="#1B1F27"/>
<rect x="17.3784" y="91.2412" width="5.7931" height="11.5862" fill="#1B1F27"/>
<rect x="28.9661" y="108.622" width="5.7931" height="11.5862" fill="#1B1F27"/>
<rect x="81.1033" y="108.622" width="5.7931" height="11.5862" fill="#1B1F27"/>
<rect x="86.8961" y="97.034" width="5.7931" height="11.5862" fill="#1B1F27"/>
<rect x="5.79285" y="73.8627" width="5.7931" height="5.7931" fill="#1B1F27"/>
<rect x="17.3784" y="62.2752" width="5.7931" height="5.7931" fill="#1B1F27"/>
<rect x="86.8961" y="44.8967" width="5.7931" height="5.7931" fill="#1B1F27"/>
<rect x="23.1732" y="102.827" width="5.7931" height="5.7931" fill="#1B1F27"/>
<rect x="34.7588" y="120.207" width="46.3448" height="5.7931" fill="#1B1F27"/>
<rect x="29.1732" y="5.79297" width="11.5862" height="68.069" fill="white"/>
<rect x="6" y="62.2753" width="11.5862" height="11.5862" fill="white"/>
<rect x="11.7928" y="68.0681" width="11.5862" height="5.7931" fill="white"/>
<rect x="11.7928" y="73.8629" width="11.5862" height="5.7931" fill="white"/>
<rect x="17.5857" y="73.8629" width="75.3103" height="17.3793" fill="white"/>
<rect x="29.1732" y="68.0681" width="52.1379" height="17.3793" fill="white"/>
<rect x="29.1732" y="62.2753" width="46.3448" height="17.3793" fill="white"/>
<rect x="29.1732" y="91.2413" width="46.3448" height="17.3793" fill="white"/>
<rect x="23.3784" y="85.4485" width="46.3448" height="17.3793" fill="white"/>
<rect x="34.9661" y="91.2413" width="46.3448" height="28.9655" fill="white"/>
<rect x="46.5516" y="33.3093" width="11.5862" height="68.069" fill="white"/>
<rect x="63.9301" y="39.1041" width="11.5862" height="68.069" fill="white"/>
<rect x="81.3104" y="44.8969" width="5.7931" height="63.7241" fill="white"/>
<rect x="87.1033" y="50.6897" width="5.7931" height="46.3448" fill="white"/>
</svg>
