<svg width="25" height="24" viewBox="0 0 25 24" fill="none" xmlns="http://www.w3.org/2000/svg">
<mask id="mask0_1212_1937" style="mask-type:alpha" maskUnits="userSpaceOnUse" x="0" y="0" width="25" height="24">
<rect x="0.899994" width="24" height="24" fill="#D9D9D9"/>
</mask>
<g mask="url(#mask0_1212_1937)">
<path d="M8.39998 19.6922V9.29224C8.39998 8.79357 8.57915 8.37024 8.93748 8.02224C9.29582 7.67407 9.72432 7.49999 10.223 7.49999H20.5922C21.0909 7.49999 21.5169 7.67657 21.8702 8.02974C22.2234 8.38307 22.4 8.80907 22.4 9.30774V16.7885L17.6885 21.5H10.2077C9.70907 21.5 9.28307 21.3234 8.92973 20.9702C8.57657 20.6169 8.39998 20.1909 8.39998 19.6922ZM3.42498 6.42299C3.33148 5.92432 3.42865 5.47499 3.71648 5.07499C4.00415 4.67499 4.3974 4.42824 4.89623 4.33474L15.1307 2.52499C15.6294 2.43149 16.0787 2.52865 16.4787 2.81649C16.8787 3.10415 17.1256 3.49741 17.2192 3.99624L17.45 5.30774H10.2077C9.10773 5.30774 8.16607 5.69941 7.38273 6.48274C6.5994 7.26607 6.20773 8.20774 6.20773 9.30774V17.973C5.96023 17.8423 5.74865 17.6632 5.57298 17.4355C5.39748 17.208 5.28473 16.9487 5.23473 16.6577L3.42498 6.42299ZM20.9 16H16.9V20L20.9 16Z" fill="#4E78F6"/>
</g>
</svg>
