<svg width="25" height="24" viewBox="0 0 25 24" fill="none" xmlns="http://www.w3.org/2000/svg">
<mask id="mask0_1205_1336" style="mask-type:alpha" maskUnits="userSpaceOnUse" x="0" y="0" width="25" height="24">
<rect x="0.699951" width="24" height="24" fill="#D9D9D9"/>
</mask>
<g mask="url(#mask0_1205_1336)">
<path d="M12.7 11.6923C11.7375 11.6923 10.9135 11.3496 10.2282 10.6643C9.5427 9.97876 9.19995 9.15476 9.19995 8.19226C9.19995 7.22976 9.5427 6.40584 10.2282 5.72051C10.9135 5.03501 11.7375 4.69226 12.7 4.69226C13.6625 4.69226 14.4864 5.03501 15.1717 5.72051C15.8572 6.40584 16.2 7.22976 16.2 8.19226C16.2 9.15476 15.8572 9.97876 15.1717 10.6643C14.4864 11.3496 13.6625 11.6923 12.7 11.6923ZM5.19995 19.3078V17.0845C5.19995 16.5948 5.33295 16.1413 5.59895 15.724C5.86495 15.3067 6.22045 14.9858 6.66545 14.7615C7.65378 14.277 8.65087 13.9136 9.6567 13.6713C10.6625 13.4289 11.677 13.3078 12.7 13.3078C13.723 13.3078 14.7374 13.4289 15.7432 13.6713C16.749 13.9136 17.7461 14.277 18.7345 14.7615C19.1795 14.9858 19.535 15.3067 19.801 15.724C20.067 16.1413 20.2 16.5948 20.2 17.0845V19.3078H5.19995ZM6.69995 17.8078H18.7V17.0845C18.7 16.882 18.6413 16.6945 18.524 16.522C18.4066 16.3497 18.2474 16.209 18.0462 16.1C17.1845 15.6757 16.306 15.3542 15.4107 15.1355C14.5152 14.917 13.6116 14.8078 12.7 14.8078C11.7883 14.8078 10.8847 14.917 9.9892 15.1355C9.09387 15.3542 8.21537 15.6757 7.3537 16.1C7.15253 16.209 6.99328 16.3497 6.87595 16.522C6.75862 16.6945 6.69995 16.882 6.69995 17.0845V17.8078ZM12.7 10.1923C13.25 10.1923 13.7208 9.99643 14.1125 9.60476C14.5041 9.21309 14.7 8.74226 14.7 8.19226C14.7 7.64226 14.5041 7.17143 14.1125 6.77976C13.7208 6.38809 13.25 6.19226 12.7 6.19226C12.15 6.19226 11.6791 6.38809 11.2875 6.77976C10.8958 7.17143 10.7 7.64226 10.7 8.19226C10.7 8.74226 10.8958 9.21309 11.2875 9.60476C11.6791 9.99643 12.15 10.1923 12.7 10.1923Z" fill="#8F96A3"/>
</g>
</svg>
