<svg width="25" height="24" viewBox="0 0 25 24" fill="none" xmlns="http://www.w3.org/2000/svg">
<mask id="mask0_1212_2039" style="mask-type:alpha" maskUnits="userSpaceOnUse" x="0" y="0" width="25" height="24">
<rect x="0.0999756" width="24" height="24" fill="#D9D9D9"/>
</mask>
<g mask="url(#mask0_1212_2039)">
<path d="M6.09998 19.6153C5.65581 19.6153 5.27556 19.4571 4.95923 19.1408C4.64289 18.8244 4.48473 18.4442 4.48473 18C4.48473 17.5558 4.64289 17.1756 4.95923 16.8593C5.27556 16.5429 5.65581 16.3848 6.09998 16.3848C6.54414 16.3848 6.92439 16.5429 7.24073 16.8593C7.55706 17.1756 7.71523 17.5558 7.71523 18C7.71523 18.4442 7.55706 18.8244 7.24073 19.1408C6.92439 19.4571 6.54414 19.6153 6.09998 19.6153ZM6.09998 13.6153C5.65581 13.6153 5.27556 13.4571 4.95923 13.1408C4.64289 12.8244 4.48473 12.4442 4.48473 12C4.48473 11.5558 4.64289 11.1756 4.95923 10.8593C5.27556 10.5429 5.65581 10.3848 6.09998 10.3848C6.54414 10.3848 6.92439 10.5429 7.24073 10.8593C7.55706 11.1756 7.71523 11.5558 7.71523 12C7.71523 12.4442 7.55706 12.8244 7.24073 13.1408C6.92439 13.4571 6.54414 13.6153 6.09998 13.6153ZM6.09998 7.61526C5.65581 7.61526 5.27556 7.4571 4.95923 7.14077C4.64289 6.82443 4.48473 6.44418 4.48473 6.00002C4.48473 5.55585 4.64289 5.1756 4.95923 4.85927C5.27556 4.54293 5.65581 4.38477 6.09998 4.38477C6.54414 4.38477 6.92439 4.54293 7.24073 4.85927C7.55706 5.1756 7.71523 5.55585 7.71523 6.00002C7.71523 6.44418 7.55706 6.82443 7.24073 7.14077C6.92439 7.4571 6.54414 7.61526 6.09998 7.61526ZM12.1 7.61526C11.6558 7.61526 11.2756 7.4571 10.9592 7.14077C10.6429 6.82443 10.4847 6.44418 10.4847 6.00002C10.4847 5.55585 10.6429 5.1756 10.9592 4.85927C11.2756 4.54293 11.6558 4.38477 12.1 4.38477C12.5441 4.38477 12.9244 4.54293 13.2407 4.85927C13.5571 5.1756 13.7152 5.55585 13.7152 6.00002C13.7152 6.44418 13.5571 6.82443 13.2407 7.14077C12.9244 7.4571 12.5441 7.61526 12.1 7.61526ZM18.1 7.61526C17.6558 7.61526 17.2756 7.4571 16.9592 7.14077C16.6429 6.82443 16.4847 6.44418 16.4847 6.00002C16.4847 5.55585 16.6429 5.1756 16.9592 4.85927C17.2756 4.54293 17.6558 4.38477 18.1 4.38477C18.5441 4.38477 18.9244 4.54293 19.2407 4.85927C19.5571 5.1756 19.7152 5.55585 19.7152 6.00002C19.7152 6.44418 19.5571 6.82443 19.2407 7.14077C18.9244 7.4571 18.5441 7.61526 18.1 7.61526ZM12.1 13.6153C11.6558 13.6153 11.2756 13.4571 10.9592 13.1408C10.6429 12.8244 10.4847 12.4442 10.4847 12C10.4847 11.5558 10.6429 11.1756 10.9592 10.8593C11.2756 10.5429 11.6558 10.3848 12.1 10.3848C12.5441 10.3848 12.9244 10.5429 13.2407 10.8593C13.5571 11.1756 13.7152 11.5558 13.7152 12C13.7152 12.4442 13.5571 12.8244 13.2407 13.1408C12.9244 13.4571 12.5441 13.6153 12.1 13.6153ZM13.2155 19.6153V16.973L18.6442 11.5693C18.7686 11.4513 18.9028 11.3653 19.047 11.3115C19.1911 11.2577 19.3353 11.2308 19.4795 11.2308C19.6366 11.2308 19.7887 11.2603 19.9357 11.3193C20.0827 11.3783 20.2163 11.4668 20.3365 11.5848L21.2615 12.5193C21.3691 12.6436 21.4525 12.7782 21.5115 12.923C21.5705 13.068 21.6 13.2129 21.6 13.3578C21.6 13.5026 21.5746 13.65 21.524 13.8C21.4733 13.95 21.3858 14.0872 21.2615 14.2115L15.8577 19.6153H13.2155ZM19.4827 14.323L20.4077 13.3578L19.4827 12.423L18.5327 13.373L19.4827 14.323Z" fill="#4E78F6"/>
</g>
</svg>
